SplineFontDB: 3.0
FontName: Midway-Regular
FullName: Midway
FamilyName: Midway
Weight: Book
Copyright: Copyright 2011 Canonical Ltd.\nCopyright 2015 Yuta Taniguchi\nLicensed under the Ubuntu Font Licence 1.0
Version: 0.1
ItalicAngle: 0
UnderlinePosition: -156
UnderlineWidth: 23
Ascent: 800
Descent: 200
InvalidEm: 0
sfntRevision: 0x0000199a
LayerCount: 2
Layer: 0 1 "Back" 1
Layer: 1 1 "Fore" 0
XUID: [1021 935 -1301570125 11509133]
StyleMap: 0x0000
FSType: 0
OS2Version: 3
OS2_WeightWidthSlopeOnly: 0
OS2_UseTypoMetrics: 0
CreationTime: 1304432203
ModificationTime: 1453368787
PfmFamily: 17
TTFWeight: 400
TTFWidth: 5
LineGap: 0
VLineGap: 0
Panose: 2 11 5 9 3 6 2 3 2 4
OS2TypoAscent: 0
OS2TypoAOffset: 1
OS2TypoDescent: 0
OS2TypoDOffset: 1
OS2TypoLinegap: 0
OS2WinAscent: 0
OS2WinAOffset: 1
OS2WinDescent: 0
OS2WinDOffset: 1
HheadAscent: 0
HheadAOffset: 1
HheadDescent: 0
HheadDOffset: 1
OS2SubXSize: 824
OS2SubYSize: 766
OS2SubXOff: 0
OS2SubYOff: 165
OS2SupXSize: 824
OS2SupYSize: 766
OS2SupXOff: 0
OS2SupYOff: 562
OS2StrikeYSize: 59
OS2StrikeYPos: 294
OS2CapHeight: 729
OS2XHeight: 547
OS2Vendor: 'DAMA'
OS2CodePages: 2000009f.56010000
OS2UnicodeRanges: e00002ff.5000205b.00000000.00000000
Lookup: 1 0 0 "'locl' Localized Forms in Latin lookup 0" { "'locl' Localized Forms in Latin lookup 0 subtable"  } ['locl' ('latn' <'AZE ' > ) ]
Lookup: 1 0 0 "'locl' Localized Forms in Latin lookup 1" { "'locl' Localized Forms in Latin lookup 1 subtable"  } ['locl' ('latn' <'TRK ' > ) ]
Lookup: 1 0 0 "'locl' Localized Forms in Latin lookup 2" { "'locl' Localized Forms in Latin lookup 2 subtable"  } ['locl' ('latn' <'CRT ' > ) ]
Lookup: 1 0 0 "'locl' Localized Forms in Cyrillic lookup 3" { "'locl' Localized Forms in Cyrillic lookup 3 subtable"  } ['locl' ('cyrl' <'BGR ' > ) ]
Lookup: 1 0 0 "'locl' Localized Forms in Cyrillic lookup 4" { "'locl' Localized Forms in Cyrillic lookup 4 subtable"  } ['locl' ('cyrl' <'MKD ' > ) ]

StartChar: SF030000.001
Encoding: 65536 -1 0
Width: 588
VWidth: 1177
Flags: W
LayerCount: 2
Fore
SplineSet
59 0 m 1,0,-1
 59 883 l 1,1,-1
 530 883 l 1,2,-1
 530 0 l 1,3,-1
 59 0 l 1,0,-1
471 59 m 1,4,-1
 471 824 l 1,5,-1
 118 824 l 1,6,-1
 118 59 l 1,7,-1
 471 59 l 1,4,-1
EndSplineSet
EndChar

StartChar: exclam
Encoding: 33 33 4
Width: 588
VWidth: 1177
Flags: W
LayerCount: 2
Fore
SplineSet
345 531 m 2,0,1
 345 487 345 487 344 451 c 128,-1,2
 343 415 343 415 340 382 c 128,-1,3
 337 349 337 349 333.5 316.5 c 128,-1,4
 330 284 330 284 326 249 c 1,5,-1
 259 249 l 1,6,7
 255 284 255 284 252 316.5 c 128,-1,8
 249 349 249 349 246 382 c 128,-1,9
 243 415 243 415 241.5 451.5 c 128,-1,10
 240 488 240 488 240 531 c 2,11,-1
 240 729 l 1,12,-1
 345 729 l 1,13,-1
 345 531 l 2,0,1
292 -14 m 0,14,15
 260 -14 260 -14 236.5 7.5 c 128,-1,16
 213 29 213 29 213 66 c 256,17,18
 213 103 213 103 236.5 124.5 c 128,-1,19
 260 146 260 146 292 146 c 0,20,21
 325 146 325 146 348 124 c 128,-1,22
 371 102 371 102 371 66 c 256,23,24
 371 29 371 29 348 7.5 c 128,-1,25
 325 -14 325 -14 292 -14 c 0,14,15
EndSplineSet
EndChar

StartChar: quotedbl
Encoding: 34 34 5
Width: 588
VWidth: 1177
Flags: W
LayerCount: 2
Fore
SplineSet
243 800 m 1,0,-1
 243 747 l 2,1,2
 243 695 243 695 237 628.5 c 128,-1,3
 231 562 231 562 221 506 c 1,4,-1
 172 506 l 1,5,6
 164 561 164 561 158 628 c 128,-1,7
 152 695 152 695 152 748 c 2,8,-1
 152 800 l 1,9,-1
 243 800 l 1,0,-1
437 800 m 1,10,-1
 437 747 l 2,11,12
 437 695 437 695 431 628.5 c 128,-1,13
 425 562 425 562 417 506 c 1,14,-1
 367 506 l 1,15,16
 358 561 358 561 352 628 c 128,-1,17
 346 695 346 695 346 748 c 2,18,-1
 346 800 l 1,19,-1
 437 800 l 1,10,-1
EndSplineSet
EndChar

StartChar: numbersign
Encoding: 35 35 6
Width: 588
VWidth: 1177
Flags: W
LayerCount: 2
Fore
SplineSet
378 0 m 1,0,-1
 290 0 l 1,1,-1
 326 192 l 1,2,-1
 196 192 l 1,3,-1
 159 0 l 1,4,-1
 71 0 l 1,5,-1
 107 192 l 1,6,-1
 32 192 l 1,7,-1
 32 271 l 1,8,-1
 122 271 l 1,9,-1
 158 458 l 1,10,-1
 32 458 l 1,11,-1
 32 536 l 1,12,-1
 174 536 l 1,13,-1
 211 729 l 1,14,-1
 299 729 l 1,15,-1
 263 536 l 1,16,-1
 393 536 l 1,17,-1
 429 729 l 1,18,-1
 517 729 l 1,19,-1
 482 536 l 1,20,-1
 557 536 l 1,21,-1
 557 458 l 1,22,-1
 466 458 l 1,23,-1
 430 271 l 1,24,-1
 557 271 l 1,25,-1
 557 192 l 1,26,-1
 415 192 l 1,27,-1
 378 0 l 1,0,-1
377 458 m 1,28,-1
 247 458 l 1,29,-1
 211 271 l 1,30,-1
 340 271 l 1,31,-1
 377 458 l 1,28,-1
EndSplineSet
EndChar

StartChar: dollar
Encoding: 36 36 7
Width: 588
VWidth: 1177
Flags: W
LayerCount: 2
Fore
SplineSet
274 100 m 0,0,1
 316 100 316 100 345.5 106.5 c 128,-1,2
 375 113 375 113 391.5 125.5 c 128,-1,3
 408 138 408 138 415 155 c 128,-1,4
 422 172 422 172 422 192 c 0,5,6
 422 221 422 221 407.5 242 c 128,-1,7
 393 263 393 263 369 278.5 c 128,-1,8
 345 294 345 294 314.5 306.5 c 128,-1,9
 284 319 284 319 251 331 c 0,10,11
 219 343 219 343 188 357 c 128,-1,12
 157 371 157 371 132.5 391.5 c 128,-1,13
 108 412 108 412 93 441 c 128,-1,14
 78 470 78 470 78 512 c 0,15,16
 78 587 78 587 122.5 634.5 c 128,-1,17
 167 682 167 682 252 695 c 1,18,-1
 252 816 l 1,19,-1
 339 816 l 1,20,-1
 339 698 l 1,21,22
 386 696 386 696 425.5 687 c 128,-1,23
 465 678 465 678 489 669 c 1,24,-1
 469 587 l 1,25,26
 444 596 444 596 406.5 606 c 128,-1,27
 369 616 369 616 311 616 c 0,28,29
 247 616 247 616 213.5 592.5 c 128,-1,30
 180 569 180 569 180 524 c 0,31,32
 180 499 180 499 190 482.5 c 128,-1,33
 200 466 200 466 219 453.5 c 128,-1,34
 238 441 238 441 263.5 430 c 128,-1,35
 289 419 289 419 320 408 c 0,36,37
 360 393 360 393 398 375.5 c 128,-1,38
 436 358 436 358 464 334.5 c 128,-1,39
 492 311 492 311 509.5 278 c 128,-1,40
 527 245 527 245 527 199 c 0,41,42
 527 130 527 130 481 81.5 c 128,-1,43
 435 33 435 33 339 21 c 1,44,-1
 339 -114 l 1,45,-1
 252 -114 l 1,46,-1
 252 18 l 1,47,48
 178 20 178 20 132 34 c 128,-1,49
 86 48 86 48 64 61 c 1,50,-1
 90 143 l 1,51,52
 122 128 122 128 165 114 c 128,-1,53
 208 100 208 100 274 100 c 0,0,1
EndSplineSet
EndChar

StartChar: percent
Encoding: 37 37 8
Width: 588
VWidth: 1177
Flags: W
LayerCount: 2
Fore
SplineSet
112 0 m 1,0,-1
 29 0 l 1,1,-1
 476 729 l 1,2,-1
 558 729 l 1,3,-1
 112 0 l 1,0,-1
21 562 m 256,4,5
 21 652 21 652 55.5 698 c 128,-1,6
 90 744 90 744 150 744 c 256,7,8
 210 744 210 744 244 697.5 c 128,-1,9
 278 651 278 651 278 562 c 256,10,11
 278 472 278 472 244 425 c 128,-1,12
 210 378 210 378 150 378 c 256,13,14
 90 378 90 378 55.5 425 c 128,-1,15
 21 472 21 472 21 562 c 256,4,5
205 562 m 256,16,17
 205 615 205 615 191 649 c 128,-1,18
 177 683 177 683 150 683 c 256,19,20
 123 683 123 683 108 649 c 128,-1,21
 93 615 93 615 93 562 c 256,22,23
 93 509 93 509 107.5 475 c 128,-1,24
 122 441 122 441 150 441 c 256,25,26
 177 441 177 441 191 475 c 128,-1,27
 205 509 205 509 205 562 c 256,16,17
312 167 m 256,28,29
 312 257 312 257 345.5 303.5 c 128,-1,30
 379 350 379 350 439 350 c 256,31,32
 499 350 499 350 533.5 303.5 c 128,-1,33
 568 257 568 257 568 167 c 256,34,35
 568 77 568 77 533.5 31 c 128,-1,36
 499 -15 499 -15 439 -15 c 256,37,38
 379 -15 379 -15 345.5 31 c 128,-1,39
 312 77 312 77 312 167 c 256,28,29
496 167 m 256,40,41
 496 220 496 220 481 254.5 c 128,-1,42
 466 289 466 289 439 289 c 256,43,44
 412 289 412 289 398 254.5 c 128,-1,45
 384 220 384 220 384 167 c 256,46,47
 384 114 384 114 398 80 c 128,-1,48
 412 46 412 46 439 46 c 256,49,50
 466 46 466 46 481 80 c 128,-1,51
 496 114 496 114 496 167 c 256,40,41
EndSplineSet
EndChar

StartChar: ampersand
Encoding: 38 38 9
Width: 588
VWidth: 1177
Flags: W
LayerCount: 2
Fore
SplineSet
320 333 m 2,0,1
 340 309 340 309 362 285 c 128,-1,2
 384 261 384 261 406 234 c 1,3,4
 415 267 415 267 422.5 306 c 128,-1,5
 430 345 430 345 433 392 c 1,6,-1
 515 382 l 1,7,8
 508 314 508 314 494.5 260 c 128,-1,9
 481 206 481 206 461 163 c 1,10,11
 488 125 488 125 512.5 85 c 128,-1,12
 537 45 537 45 557 0 c 1,13,-1
 455 0 l 1,14,15
 435 41 435 41 410 79 c 1,16,17
 372 32 372 32 325.5 11.5 c 128,-1,18
 279 -9 279 -9 229 -9 c 0,19,20
 184 -9 184 -9 148.5 5.5 c 128,-1,21
 113 20 113 20 88.5 46 c 128,-1,22
 64 72 64 72 50.5 106 c 128,-1,23
 37 140 37 140 37 178 c 0,24,25
 37 233 37 233 65.5 289.5 c 128,-1,26
 94 346 94 346 157 395 c 1,27,28
 126 436 126 436 107 478.5 c 128,-1,29
 88 521 88 521 88 565 c 0,30,31
 88 611 88 611 103 645.5 c 128,-1,32
 118 680 118 680 142.5 701.5 c 128,-1,33
 167 723 167 723 199.5 734.5 c 128,-1,34
 232 746 232 746 266 746 c 0,35,36
 297 746 297 746 326.5 736.5 c 128,-1,37
 356 727 356 727 378 707.5 c 128,-1,38
 400 688 400 688 414 659.5 c 128,-1,39
 428 631 428 631 428 595 c 0,40,41
 428 541 428 541 392.5 483.5 c 128,-1,42
 357 426 357 426 280 378 c 1,43,-1
 320 333 l 2,0,1
203 336 m 1,44,45
 169 305 169 305 151.5 265 c 128,-1,46
 134 225 134 225 134 187 c 0,47,48
 134 141 134 141 157.5 111 c 128,-1,49
 181 81 181 81 215.5 73.5 c 128,-1,50
 250 66 250 66 290 83 c 128,-1,51
 330 100 330 100 363 147 c 1,52,53
 324 200 324 200 282.5 245.5 c 128,-1,54
 241 291 241 291 203 336 c 1,44,45
339 584 m 0,55,56
 339 626 339 626 316 647.5 c 128,-1,57
 293 669 293 669 264 669 c 0,58,59
 233 669 233 669 206.5 645 c 128,-1,60
 180 621 180 621 180 572 c 0,61,62
 180 538 180 538 190.5 508.5 c 128,-1,63
 201 479 201 479 236 435 c 1,64,65
 293 470 293 470 316 510 c 128,-1,66
 339 550 339 550 339 584 c 0,55,56
EndSplineSet
EndChar

StartChar: quotesingle
Encoding: 39 39 10
Width: 588
VWidth: 1177
Flags: W
LayerCount: 2
Fore
SplineSet
345 800 m 1,0,-1
 345 747 l 2,1,2
 345 721 345 721 343.5 687.5 c 128,-1,3
 342 654 342 654 339 618 c 128,-1,4
 336 582 336 582 332.5 547 c 128,-1,5
 329 512 329 512 324 485 c 1,6,-1
 264 485 l 1,7,8
 259 512 259 512 255.5 547 c 128,-1,9
 252 582 252 582 249 618 c 128,-1,10
 246 654 246 654 244.5 688 c 128,-1,11
 243 722 243 722 243 748 c 2,12,-1
 243 800 l 1,13,-1
 345 800 l 1,0,-1
EndSplineSet
EndChar

StartChar: parenleft
Encoding: 40 40 11
Width: 588
VWidth: 1177
Flags: W
LayerCount: 2
Fore
SplineSet
452 755 m 1,0,1
 342 670 342 670 284.5 559.5 c 128,-1,2
 227 449 227 449 227 318 c 0,3,4
 227 252 227 252 240.5 193 c 128,-1,5
 254 134 254 134 282 80 c 128,-1,6
 310 26 310 26 353 -24.5 c 128,-1,7
 396 -75 396 -75 455 -126 c 1,8,-1
 402 -197 l 1,9,10
 267 -97 267 -97 200 35.5 c 128,-1,11
 133 168 133 168 133 316 c 0,12,13
 133 462 133 462 200 595 c 128,-1,14
 267 728 267 728 402 826 c 1,15,-1
 453 755 l 1,16,-1
 452 755 l 1,0,1
EndSplineSet
Substitution2: "'case' Case-Sensitive Forms lookup 17 subtable" Parenleft
EndChar

StartChar: parenright
Encoding: 41 41 12
Width: 588
VWidth: 1177
Flags: W
LayerCount: 2
Fore
SplineSet
135 -126 m 1,0,1
 245 -41 245 -41 303.5 69.5 c 128,-1,2
 362 180 362 180 362 311 c 0,3,4
 362 377 362 377 348.5 436 c 128,-1,5
 335 495 335 495 306.5 549 c 128,-1,6
 278 603 278 603 235 653.5 c 128,-1,7
 192 704 192 704 133 755 c 1,8,-1
 186 826 l 1,9,10
 321 726 321 726 388 593.5 c 128,-1,11
 455 461 455 461 455 313 c 0,12,13
 455 240 455 240 437.5 169.5 c 128,-1,14
 420 99 420 99 386.5 33.5 c 128,-1,15
 353 -32 353 -32 303 -90 c 128,-1,16
 253 -148 253 -148 186 -197 c 1,17,-1
 134 -126 l 1,18,-1
 135 -126 l 1,0,1
EndSplineSet
Substitution2: "'case' Case-Sensitive Forms lookup 17 subtable" Parenright
EndChar

StartChar: asterisk
Encoding: 42 42 13
Width: 588
VWidth: 1177
Flags: W
LayerCount: 2
Fore
SplineSet
338 491 m 1,0,1
 370 462 370 462 404 429.5 c 128,-1,2
 438 397 438 397 462 360 c 2,3,-1
 466 355 l 1,4,-1
 384 294 l 1,5,-1
 378 302 l 2,6,7
 353 337 353 337 333 378.5 c 128,-1,8
 313 420 313 420 296 459 c 1,9,10
 277 420 277 420 257 378.5 c 128,-1,11
 237 337 237 337 210 302 c 1,12,-1
 204 296 l 1,13,-1
 122 355 l 1,14,-1
 128 362 l 2,15,16
 154 399 154 399 187 430.5 c 128,-1,17
 220 462 220 462 252 491 c 1,18,19
 208 497 208 497 162.5 503.5 c 128,-1,20
 117 510 117 510 75 524 c 2,21,-1
 67 527 l 1,22,-1
 99 623 l 1,23,-1
 107 620 l 2,24,25
 148 604 148 604 190 583.5 c 128,-1,26
 232 563 232 563 270 542 c 1,27,28
 261 584 261 584 253 630 c 128,-1,29
 245 676 245 676 245 721 c 2,30,-1
 245 729 l 1,31,-1
 346 729 l 1,32,-1
 346 721 l 2,33,34
 346 676 346 676 338.5 630 c 128,-1,35
 331 584 331 584 322 542 c 1,36,37
 360 564 360 564 401 583.5 c 128,-1,38
 442 603 442 603 483 618 c 2,39,-1
 491 622 l 1,40,-1
 522 525 l 1,41,-1
 515 523 l 2,42,43
 473 510 473 510 427.5 503 c 128,-1,44
 382 496 382 496 338 491 c 1,0,1
EndSplineSet
EndChar

StartChar: plus
Encoding: 43 43 14
Width: 588
VWidth: 1177
Flags: W
LayerCount: 2
Fore
SplineSet
54 351 m 1,0,-1
 252 351 l 1,1,-1
 252 568 l 1,2,-1
 337 568 l 1,3,-1
 337 351 l 1,4,-1
 536 351 l 1,5,-1
 536 269 l 1,6,-1
 337 269 l 1,7,-1
 337 51 l 1,8,-1
 252 51 l 1,9,-1
 252 269 l 1,10,-1
 54 269 l 1,11,-1
 54 351 l 1,0,-1
EndSplineSet
EndChar

StartChar: comma
Encoding: 44 44 15
Width: 588
VWidth: 1177
Flags: W
LayerCount: 2
Fore
SplineSet
176 -93 m 1,0,1
 197 -88 197 -88 217.5 -83.5 c 128,-1,2
 238 -79 238 -79 255.5 -70 c 128,-1,3
 273 -61 273 -61 287.5 -47.5 c 128,-1,4
 302 -34 302 -34 310 -11 c 1,5,6
 272 -7 272 -7 255 18.5 c 128,-1,7
 238 44 238 44 238 68 c 0,8,9
 238 115 238 115 264.5 139.5 c 128,-1,10
 291 164 291 164 325 164 c 0,11,12
 369 164 369 164 391 132.5 c 128,-1,13
 413 101 413 101 413 57 c 0,14,15
 413 23 413 23 399.5 -14.5 c 128,-1,16
 386 -52 386 -52 358.5 -84.5 c 128,-1,17
 331 -117 331 -117 290 -140 c 128,-1,18
 249 -163 249 -163 192 -170 c 1,19,-1
 176 -93 l 1,0,1
EndSplineSet
EndChar

StartChar: hyphen
Encoding: 45 45 16
Width: 588
VWidth: 1177
Flags: W
LayerCount: 2
Fore
SplineSet
118 345 m 1,0,-1
 471 345 l 1,1,-1
 471 253 l 1,2,-1
 118 253 l 5,3,-1
 118 345 l 1,0,-1
EndSplineSet
Substitution2: "'case' Case-Sensitive Forms lookup 17 subtable" Hyphen
EndChar

StartChar: period
Encoding: 46 46 17
Width: 588
VWidth: 1177
Flags: W
LayerCount: 2
Fore
SplineSet
382 75 m 0,0,1
 382 40 382 40 358.5 13 c 128,-1,2
 335 -14 335 -14 296 -14 c 0,3,4
 256 -14 256 -14 232 13 c 128,-1,5
 208 40 208 40 208 75 c 0,6,7
 208 112 208 112 232 139 c 128,-1,8
 256 166 256 166 296 166 c 0,9,10
 335 166 335 166 358.5 139 c 128,-1,11
 382 112 382 112 382 75 c 0,0,1
EndSplineSet
EndChar

StartChar: slash
Encoding: 47 47 18
Width: 588
VWidth: 1177
Flags: W
LayerCount: 2
Fore
SplineSet
181 -194 m 1,0,-1
 81 -194 l 1,1,-1
 410 823 l 1,2,-1
 508 823 l 1,3,-1
 181 -194 l 1,0,-1
EndSplineSet
Substitution2: "'case' Case-Sensitive Forms lookup 17 subtable" Slash
Substitution2: "'ss02' Style Set 2 lookup 14 subtable" fraction
Substitution2: "'frac' Diagonal Fractions lookup 12 subtable" fraction
EndChar

StartChar: zero
Encoding: 48 48 19
Width: 588
VWidth: 1177
Flags: W
LayerCount: 2
Fore
SplineSet
363 378 m 256,0,1
 363 347 363 347 344.5 325 c 128,-1,2
 326 303 326 303 297 303 c 0,3,4
 266 303 266 303 247.5 325 c 128,-1,5
 229 347 229 347 229 378 c 256,6,7
 229 409 229 409 247.5 432.5 c 128,-1,8
 266 456 266 456 297 456 c 0,9,10
 326 456 326 456 344.5 432.5 c 128,-1,11
 363 409 363 409 363 378 c 256,0,1
54 365 m 256,12,13
 54 549 54 549 117 647.5 c 128,-1,14
 180 746 180 746 294 746 c 0,15,16
 409 746 409 746 472 647.5 c 128,-1,17
 535 549 535 549 535 365 c 256,18,19
 535 181 535 181 472.5 83 c 128,-1,20
 410 -15 410 -15 294 -15 c 0,21,22
 180 -15 180 -15 117 83 c 128,-1,23
 54 181 54 181 54 365 c 256,12,13
436 365 m 256,24,25
 436 425 436 425 429 478.5 c 128,-1,26
 422 532 422 532 405.5 572 c 128,-1,27
 389 612 389 612 362 636 c 128,-1,28
 335 660 335 660 294 660 c 256,29,30
 254 660 254 660 227 636 c 128,-1,31
 200 612 200 612 183.5 572 c 128,-1,32
 167 532 167 532 160 478.5 c 128,-1,33
 153 425 153 425 153 365 c 256,34,35
 153 305 153 305 160 251.5 c 128,-1,36
 167 198 167 198 183.5 158 c 128,-1,37
 200 118 200 118 227 94.5 c 128,-1,38
 254 71 254 71 294 71 c 256,39,40
 334 71 334 71 361.5 94.5 c 128,-1,41
 389 118 389 118 405.5 158 c 128,-1,42
 422 198 422 198 429 251.5 c 128,-1,43
 436 305 436 305 436 365 c 256,24,25
EndSplineSet
Substitution2: "'ss02' Style Set 2 lookup 15 subtable" zerosuperior
Substitution2: "'sinf' Scientific Inferiors lookup 11 subtable" zero.sinf
Substitution2: "'subs' Subscript lookup 10 subtable" zero.sinf
Substitution2: "'sups' Superscript lookup 9 subtable" zero.sups
Substitution2: "'dnom' Denominators lookup 8 subtable" zeroinferior
Substitution2: "'numr' Numerators lookup 6 subtable" zerosuperior
EndChar

StartChar: one
Encoding: 49 49 20
Width: 588
VWidth: 1177
Flags: W
LayerCount: 2
Fore
SplineSet
88 578 m 1,0,1
 148 602 148 602 204.5 638 c 128,-1,2
 261 674 261 674 310 729 c 1,3,-1
 378 729 l 1,4,-1
 378 82 l 1,5,-1
 516 82 l 1,6,-1
 516 0 l 1,7,-1
 124 0 l 1,8,-1
 124 82 l 1,9,-1
 282 82 l 1,10,-1
 282 594 l 1,11,12
 269 582 269 582 250.5 569.5 c 128,-1,13
 232 557 232 557 210 545.5 c 128,-1,14
 188 534 188 534 164.5 523 c 128,-1,15
 141 512 141 512 119 505 c 1,16,-1
 88 578 l 1,0,1
EndSplineSet
Substitution2: "'ss02' Style Set 2 lookup 15 subtable" onesuperior
Substitution2: "'sinf' Scientific Inferiors lookup 11 subtable" one.sinf
Substitution2: "'subs' Subscript lookup 10 subtable" one.sinf
Substitution2: "'sups' Superscript lookup 9 subtable" one.sups
Substitution2: "'dnom' Denominators lookup 8 subtable" oneinferior
Substitution2: "'numr' Numerators lookup 6 subtable" onesuperior
EndChar

StartChar: two
Encoding: 50 50 21
Width: 588
VWidth: 1177
Flags: W
LayerCount: 2
Fore
SplineSet
495 543 m 0,0,1
 495 505 495 505 480 470 c 128,-1,2
 465 435 465 435 441 400.5 c 128,-1,3
 417 366 417 366 386.5 333 c 128,-1,4
 356 300 356 300 324 269 c 0,5,6
 306 251 306 251 282.5 226 c 128,-1,7
 259 201 259 201 238 175.5 c 128,-1,8
 217 150 217 150 202.5 125 c 128,-1,9
 188 100 188 100 188 82 c 1,10,-1
 524 82 l 1,11,-1
 524 0 l 1,12,-1
 82 0 l 1,13,14
 81 6 81 6 81 12.5 c 128,-1,15
 81 19 81 19 81 25 c 0,16,17
 81 74 81 74 97.5 116.5 c 128,-1,18
 114 159 114 159 140 196.5 c 128,-1,19
 166 234 166 234 198.5 268 c 128,-1,20
 231 302 231 302 263 333 c 0,21,22
 289 359 289 359 313 384 c 128,-1,23
 337 409 337 409 355 433.5 c 128,-1,24
 373 458 373 458 384.5 484.5 c 128,-1,25
 396 511 396 511 396 539 c 0,26,27
 396 571 396 571 386 593.5 c 128,-1,28
 376 616 376 616 359 630.5 c 128,-1,29
 342 645 342 645 319.5 652.5 c 128,-1,30
 297 660 297 660 271 660 c 0,31,32
 240 660 240 660 215 651.5 c 128,-1,33
 190 643 190 643 170.5 631.5 c 128,-1,34
 151 620 151 620 136.5 608.5 c 128,-1,35
 122 597 122 597 115 590 c 1,36,-1
 67 658 l 1,37,38
 76 669 76 669 95 684.5 c 128,-1,39
 114 700 114 700 140.5 713.5 c 128,-1,40
 167 727 167 727 200 736.5 c 128,-1,41
 233 746 233 746 271 746 c 0,42,43
 385 746 385 746 440 693.5 c 128,-1,44
 495 641 495 641 495 543 c 0,0,1
EndSplineSet
Substitution2: "'ss02' Style Set 2 lookup 15 subtable" twosuperior
Substitution2: "'sinf' Scientific Inferiors lookup 11 subtable" two.sinf
Substitution2: "'subs' Subscript lookup 10 subtable" two.sinf
Substitution2: "'sups' Superscript lookup 9 subtable" two.sups
Substitution2: "'dnom' Denominators lookup 8 subtable" twoinferior
Substitution2: "'numr' Numerators lookup 6 subtable" twosuperior
EndChar

StartChar: three
Encoding: 51 51 22
Width: 588
VWidth: 1177
Flags: W
LayerCount: 2
Fore
SplineSet
250 71 m 0,0,1
 343 71 343 71 382.5 108 c 128,-1,2
 422 145 422 145 422 207 c 0,3,4
 422 247 422 247 405.5 274.5 c 128,-1,5
 389 302 389 302 362 318.5 c 128,-1,6
 335 335 335 335 299.5 342 c 128,-1,7
 264 349 264 349 225 349 c 2,8,-1
 200 349 l 1,9,-1
 200 428 l 1,10,-1
 234 428 l 2,11,12
 260 428 260 428 288 433 c 128,-1,13
 316 438 316 438 339 451.5 c 128,-1,14
 362 465 362 465 376 488.5 c 128,-1,15
 390 512 390 512 390 549 c 0,16,17
 390 609 390 609 353 634.5 c 128,-1,18
 316 660 316 660 266 660 c 0,19,20
 215 660 215 660 180 645 c 128,-1,21
 145 630 145 630 121 615 c 1,22,-1
 84 689 l 1,23,24
 109 707 109 707 158.5 726.5 c 128,-1,25
 208 746 208 746 270 746 c 0,26,27
 328 746 328 746 369 731.5 c 128,-1,28
 410 717 410 717 436.5 691 c 128,-1,29
 463 665 463 665 476 630.5 c 128,-1,30
 489 596 489 596 489 555 c 0,31,32
 489 497 489 497 459 457 c 128,-1,33
 429 417 429 417 382 396 c 1,34,35
 439 380 439 380 480 332 c 128,-1,36
 521 284 521 284 521 205 c 0,37,38
 521 158 521 158 505 117.5 c 128,-1,39
 489 77 489 77 456.5 47.5 c 128,-1,40
 424 18 424 18 373 1.5 c 128,-1,41
 322 -15 322 -15 251 -15 c 0,42,43
 224 -15 224 -15 195 -11 c 128,-1,44
 166 -7 166 -7 141.5 -0.5 c 128,-1,45
 117 6 117 6 97.5 12.5 c 128,-1,46
 78 19 78 19 69 22 c 1,47,-1
 88 106 l 1,48,49
 107 97 107 97 148.5 84 c 128,-1,50
 190 71 190 71 250 71 c 0,0,1
EndSplineSet
Substitution2: "'ss02' Style Set 2 lookup 15 subtable" threesuperior
Substitution2: "'sinf' Scientific Inferiors lookup 11 subtable" three.sinf
Substitution2: "'subs' Subscript lookup 10 subtable" three.sinf
Substitution2: "'sups' Superscript lookup 9 subtable" three.sups
Substitution2: "'dnom' Denominators lookup 8 subtable" threeinferior
Substitution2: "'numr' Numerators lookup 6 subtable" threesuperior
EndChar

StartChar: four
Encoding: 52 52 23
Width: 588
VWidth: 1177
Flags: W
LayerCount: 2
Fore
SplineSet
42 252 m 1,0,1
 62 299 62 299 97 360.5 c 128,-1,2
 132 422 132 422 175.5 487 c 128,-1,3
 219 552 219 552 268.5 615 c 128,-1,4
 318 678 318 678 369 729 c 1,5,-1
 463 729 l 1,6,-1
 463 266 l 1,7,-1
 549 266 l 1,8,-1
 549 186 l 1,9,-1
 463 186 l 1,10,-1
 463 0 l 1,11,-1
 369 0 l 1,12,-1
 369 186 l 1,13,-1
 42 186 l 1,14,-1
 42 252 l 1,0,1
369 614 m 1,15,16
 337 580 337 580 304.5 538.5 c 128,-1,17
 272 497 272 497 241.5 451.5 c 128,-1,18
 211 406 211 406 184.5 359 c 128,-1,19
 158 312 158 312 137 266 c 1,20,-1
 369 266 l 1,21,-1
 369 614 l 1,15,16
EndSplineSet
Substitution2: "'ss02' Style Set 2 lookup 15 subtable" foursuperior
Substitution2: "'sinf' Scientific Inferiors lookup 11 subtable" four.sinf
Substitution2: "'subs' Subscript lookup 10 subtable" four.sinf
Substitution2: "'sups' Superscript lookup 9 subtable" four.sups
Substitution2: "'dnom' Denominators lookup 8 subtable" fourinferior
Substitution2: "'numr' Numerators lookup 6 subtable" foursuperior
EndChar

StartChar: five
Encoding: 53 53 24
Width: 588
VWidth: 1177
Flags: W
LayerCount: 2
Fore
SplineSet
219 448 m 1,0,1
 377 442 377 442 449 378 c 128,-1,2
 521 314 521 314 521 207 c 0,3,4
 521 159 521 159 505.5 118 c 128,-1,5
 490 77 490 77 457.5 47.5 c 128,-1,6
 425 18 425 18 375 1.5 c 128,-1,7
 325 -15 325 -15 257 -15 c 0,8,9
 229 -15 229 -15 201 -11 c 128,-1,10
 173 -7 173 -7 148.5 -1 c 128,-1,11
 124 5 124 5 105 11.5 c 128,-1,12
 86 18 86 18 78 22 c 1,13,-1
 97 106 l 1,14,15
 116 97 116 97 155 84 c 128,-1,16
 194 71 194 71 254 71 c 0,17,18
 301 71 301 71 333 81.5 c 128,-1,19
 365 92 365 92 384.5 110 c 128,-1,20
 404 128 404 128 413 152 c 128,-1,21
 422 176 422 176 422 201 c 0,22,23
 422 241 422 241 408.5 272.5 c 128,-1,24
 395 304 395 304 361 325 c 128,-1,25
 327 346 327 346 269 357.5 c 128,-1,26
 211 369 211 369 122 369 c 1,27,28
 129 421 129 421 133.5 466 c 128,-1,29
 138 511 138 511 141 554 c 128,-1,30
 144 597 144 597 145.5 639.5 c 128,-1,31
 147 682 147 682 150 729 c 1,32,-1
 501 729 l 1,33,-1
 501 647 l 1,34,-1
 234 647 l 1,35,36
 233 631 233 631 231.5 604 c 128,-1,37
 230 577 230 577 227.5 547.5 c 128,-1,38
 225 518 225 518 222.5 491 c 128,-1,39
 220 464 220 464 219 448 c 1,0,1
EndSplineSet
Substitution2: "'ss02' Style Set 2 lookup 15 subtable" fivesuperior
Substitution2: "'sinf' Scientific Inferiors lookup 11 subtable" five.sinf
Substitution2: "'subs' Subscript lookup 10 subtable" five.sinf
Substitution2: "'sups' Superscript lookup 9 subtable" five.sups
Substitution2: "'dnom' Denominators lookup 8 subtable" fiveinferior
Substitution2: "'numr' Numerators lookup 6 subtable" fivesuperior
EndChar

StartChar: six
Encoding: 54 54 25
Width: 588
VWidth: 1177
Flags: W
LayerCount: 2
Fore
SplineSet
64 292 m 0,0,1
 64 398 64 398 92.5 480 c 128,-1,2
 121 562 121 562 175 617.5 c 128,-1,3
 229 673 229 673 305.5 702 c 128,-1,4
 382 731 382 731 478 733 c 1,5,-1
 486 650 l 1,6,7
 424 649 424 649 373 636.5 c 128,-1,8
 322 624 322 624 281.5 596.5 c 128,-1,9
 241 569 241 569 214 525.5 c 128,-1,10
 187 482 187 482 173 418 c 1,11,12
 201 431 201 431 235 439.5 c 128,-1,13
 269 448 269 448 306 448 c 0,14,15
 367 448 367 448 410 429 c 128,-1,16
 453 410 453 410 479 378.5 c 128,-1,17
 505 347 505 347 517 306 c 128,-1,18
 529 265 529 265 529 221 c 0,19,20
 529 181 529 181 516 139.5 c 128,-1,21
 503 98 503 98 476 63 c 128,-1,22
 449 28 449 28 406.5 6.5 c 128,-1,23
 364 -15 364 -15 305 -15 c 0,24,25
 184 -15 184 -15 124 66 c 128,-1,26
 64 147 64 147 64 292 c 0,0,1
296 367 m 0,27,28
 258 367 258 367 227 360 c 128,-1,29
 196 353 196 353 164 339 c 1,30,31
 163 327 163 327 163 316 c 128,-1,32
 163 305 163 305 163 292 c 0,33,34
 163 246 163 246 169.5 205.5 c 128,-1,35
 176 165 176 165 191.5 133.5 c 128,-1,36
 207 102 207 102 234 84 c 128,-1,37
 261 66 261 66 304 66 c 0,38,39
 339 66 339 66 362.5 80.5 c 128,-1,40
 386 95 386 95 401.5 117.5 c 128,-1,41
 417 140 417 140 423.5 168 c 128,-1,42
 430 196 430 196 430 220 c 0,43,44
 430 292 430 292 397.5 329.5 c 128,-1,45
 365 367 365 367 296 367 c 0,27,28
EndSplineSet
Substitution2: "'ss02' Style Set 2 lookup 15 subtable" sixsuperior
Substitution2: "'sinf' Scientific Inferiors lookup 11 subtable" six.sinf
Substitution2: "'subs' Subscript lookup 10 subtable" six.sinf
Substitution2: "'sups' Superscript lookup 9 subtable" six.sups
Substitution2: "'dnom' Denominators lookup 8 subtable" sixinferior
Substitution2: "'numr' Numerators lookup 6 subtable" sixsuperior
EndChar

StartChar: seven
Encoding: 55 55 26
Width: 588
VWidth: 1177
Flags: W
LayerCount: 2
Fore
SplineSet
183 0 m 1,0,1
 189 84 189 84 213 177.5 c 128,-1,2
 237 271 237 271 271 358.5 c 128,-1,3
 305 446 305 446 346.5 521 c 128,-1,4
 388 596 388 596 428 644 c 1,5,-1
 74 644 l 1,6,-1
 74 729 l 1,7,-1
 536 729 l 1,8,-1
 536 648 l 1,9,10
 501 607 501 607 459.5 537.5 c 128,-1,11
 418 468 418 468 381 381 c 128,-1,12
 344 294 344 294 317 196 c 128,-1,13
 290 98 290 98 283 0 c 1,14,-1
 183 0 l 1,0,1
EndSplineSet
Substitution2: "'ss02' Style Set 2 lookup 15 subtable" sevensuperior
Substitution2: "'sinf' Scientific Inferiors lookup 11 subtable" seven.sinf
Substitution2: "'subs' Subscript lookup 10 subtable" seven.sinf
Substitution2: "'sups' Superscript lookup 9 subtable" seven.sups
Substitution2: "'dnom' Denominators lookup 8 subtable" seveninferior
Substitution2: "'numr' Numerators lookup 6 subtable" sevensuperior
EndChar

StartChar: eight
Encoding: 56 56 27
Width: 588
VWidth: 1177
Flags: W
LayerCount: 2
Fore
SplineSet
529 190 m 0,0,1
 529 98 529 98 470.5 41.5 c 128,-1,2
 412 -15 412 -15 293 -15 c 0,3,4
 225 -15 225 -15 180 3 c 128,-1,5
 135 21 135 21 108.5 50 c 128,-1,6
 82 79 82 79 71 114.5 c 128,-1,7
 60 150 60 150 60 184 c 0,8,9
 60 246 60 246 94 294.5 c 128,-1,10
 128 343 128 343 176 372 c 1,11,12
 76 429 76 429 75 545 c 0,13,14
 75 585 75 585 90.5 621.5 c 128,-1,15
 106 658 106 658 134.5 685.5 c 128,-1,16
 163 713 163 713 203.5 729.5 c 128,-1,17
 244 746 244 746 294 746 c 0,18,19
 353 746 353 746 395 728 c 128,-1,20
 437 710 437 710 463 682.5 c 128,-1,21
 489 655 489 655 500.5 621.5 c 128,-1,22
 512 588 512 588 512 556 c 0,23,24
 512 494 512 494 480.5 448.5 c 128,-1,25
 449 403 449 403 408 376 c 1,26,27
 529 318 529 318 529 190 c 0,0,1
154 183 m 0,28,29
 154 164 154 164 161 143 c 128,-1,30
 168 122 168 122 184.5 104.5 c 128,-1,31
 201 87 201 87 228.5 76 c 128,-1,32
 256 65 256 65 294 65 c 0,33,34
 331 65 331 65 357.5 75 c 128,-1,35
 384 85 384 85 401 102 c 128,-1,36
 418 119 418 119 426.5 140 c 128,-1,37
 435 161 435 161 435 183 c 0,38,39
 435 250 435 250 386.5 286 c 128,-1,40
 338 322 338 322 253 340 c 1,41,42
 206 314 206 314 180 275.5 c 128,-1,43
 154 237 154 237 154 183 c 0,28,29
418 556 m 0,44,45
 418 571 418 571 411 590.5 c 128,-1,46
 404 610 404 610 389.5 626 c 128,-1,47
 375 642 375 642 351 653 c 128,-1,48
 327 664 327 664 294 664 c 0,49,50
 260 664 260 664 237 653.5 c 128,-1,51
 214 643 214 643 199 627 c 128,-1,52
 184 611 184 611 177.5 591.5 c 128,-1,53
 171 572 171 572 171 554 c 0,54,55
 171 506 171 506 205.5 464 c 128,-1,56
 240 422 240 422 320 403 c 1,57,58
 365 429 365 429 391.5 464 c 128,-1,59
 418 499 418 499 418 556 c 0,44,45
EndSplineSet
Substitution2: "'ss02' Style Set 2 lookup 15 subtable" eightsuperior
Substitution2: "'sinf' Scientific Inferiors lookup 11 subtable" eight.sinf
Substitution2: "'subs' Subscript lookup 10 subtable" eight.sinf
Substitution2: "'sups' Superscript lookup 9 subtable" eight.sups
Substitution2: "'dnom' Denominators lookup 8 subtable" eightinferior
Substitution2: "'numr' Numerators lookup 6 subtable" eightsuperior
EndChar

StartChar: nine
Encoding: 57 57 28
Width: 588
VWidth: 1177
Flags: W
LayerCount: 2
Fore
SplineSet
527 437 m 0,0,1
 527 219 527 219 420.5 109 c 128,-1,2
 314 -1 314 -1 101 -2 c 1,3,-1
 98 80 l 1,4,5
 230 80 230 80 310.5 132.5 c 128,-1,6
 391 185 391 185 417 313 c 1,7,8
 389 300 389 300 354.5 292.5 c 128,-1,9
 320 285 320 285 283 285 c 0,10,11
 221 285 221 285 178 303.5 c 128,-1,12
 135 322 135 322 109.5 353 c 128,-1,13
 84 384 84 384 72 424 c 128,-1,14
 60 464 60 464 60 509 c 0,15,16
 60 549 60 549 73 591 c 128,-1,17
 86 633 86 633 113 667 c 128,-1,18
 140 701 140 701 182.5 723.5 c 128,-1,19
 225 746 225 746 284 746 c 0,20,21
 404 746 404 746 465.5 663.5 c 128,-1,22
 527 581 527 581 527 437 c 0,0,1
293 365 m 0,23,24
 331 365 331 365 363.5 372 c 128,-1,25
 396 379 396 379 426 392 c 1,26,27
 427 404 427 404 427.5 414.5 c 128,-1,28
 428 425 428 425 428 437 c 0,29,30
 428 483 428 483 421.5 524 c 128,-1,31
 415 565 415 565 399 596 c 128,-1,32
 383 627 383 627 355 645 c 128,-1,33
 327 663 327 663 285 663 c 0,34,35
 250 663 250 663 226.5 648.5 c 128,-1,36
 203 634 203 634 187.5 612 c 128,-1,37
 172 590 172 590 165.5 563 c 128,-1,38
 159 536 159 536 159 511 c 0,39,40
 159 439 159 439 191.5 402 c 128,-1,41
 224 365 224 365 293 365 c 0,23,24
EndSplineSet
Substitution2: "'ss02' Style Set 2 lookup 15 subtable" ninesuperior
Substitution2: "'sinf' Scientific Inferiors lookup 11 subtable" nine.sinf
Substitution2: "'subs' Subscript lookup 10 subtable" nine.sinf
Substitution2: "'sups' Superscript lookup 9 subtable" nine.sups
Substitution2: "'dnom' Denominators lookup 8 subtable" nineinferior
Substitution2: "'numr' Numerators lookup 6 subtable" ninesuperior
EndChar

StartChar: less
Encoding: 60 60 31
Width: 588
VWidth: 1177
Flags: W
LayerCount: 2
Fore
SplineSet
166 300 m 1,0,-1
 539 146 l 1,1,-1
 512 65 l 1,2,-1
 58 258 l 1,3,-1
 58 342 l 1,4,-1
 512 535 l 1,5,-1
 539 453 l 1,6,-1
 166 300 l 1,0,-1
EndSplineSet
EndChar

StartChar: equal
Encoding: 61 61 32
Width: 588
VWidth: 1177
Flags: W
LayerCount: 2
Fore
SplineSet
54 239 m 1,0,-1
 536 239 l 1,1,-1
 536 155 l 1,2,-1
 54 155 l 1,3,-1
 54 239 l 1,0,-1
54 463 m 1,4,-1
 536 463 l 1,5,-1
 536 379 l 1,6,-1
 54 379 l 5,7,-1
 54 463 l 1,4,-1
EndSplineSet
EndChar

StartChar: greater
Encoding: 62 62 33
Width: 588
VWidth: 1177
Flags: W
LayerCount: 2
Fore
SplineSet
58 453 m 1,0,-1
 85 535 l 1,1,-1
 539 342 l 1,2,-1
 539 258 l 1,3,-1
 85 65 l 1,4,-1
 58 146 l 1,5,-1
 431 300 l 1,6,-1
 58 453 l 1,0,-1
EndSplineSet
EndChar

StartChar: question
Encoding: 63 63 34
Width: 588
VWidth: 1177
Flags: W
LayerCount: 2
Fore
SplineSet
218 249 m 1,0,-1
 217 271 l 2,1,2
 217 322 217 322 243 359 c 128,-1,3
 269 396 269 396 300 427.5 c 128,-1,4
 331 459 331 459 357 491 c 128,-1,5
 383 523 383 523 383 564 c 0,6,7
 383 609 383 609 354.5 636 c 128,-1,8
 326 663 326 663 271 663 c 0,9,10
 237 663 237 663 203.5 655 c 128,-1,11
 170 647 170 647 135 628 c 1,12,-1
 108 703 l 1,13,14
 143 723 143 723 188 734.5 c 128,-1,15
 233 746 233 746 284 746 c 0,16,17
 344 746 344 746 382 729.5 c 128,-1,18
 420 713 420 713 442.5 687.5 c 128,-1,19
 465 662 465 662 474 631.5 c 128,-1,20
 483 601 483 601 483 572 c 0,21,22
 483 537 483 537 469.5 509.5 c 128,-1,23
 456 482 456 482 436 457 c 128,-1,24
 416 432 416 432 392.5 410 c 128,-1,25
 369 388 369 388 349 363.5 c 128,-1,26
 329 339 329 339 315.5 311 c 128,-1,27
 302 283 302 283 302 249 c 1,28,-1
 218 249 l 1,0,-1
269 -14 m 0,29,30
 236 -14 236 -14 213 7.5 c 128,-1,31
 190 29 190 29 190 66 c 256,32,33
 190 103 190 103 213 124.5 c 128,-1,34
 236 146 236 146 269 146 c 0,35,36
 301 146 301 146 324 124 c 128,-1,37
 347 102 347 102 347 66 c 256,38,39
 347 29 347 29 324 7.5 c 128,-1,40
 301 -14 301 -14 269 -14 c 0,29,30
EndSplineSet
EndChar

StartChar: at
Encoding: 64 64 35
Width: 588
VWidth: 1177
Flags: W
LayerCount: 2
Fore
SplineSet
551 74 m 1,0,1
 516 60 516 60 479.5 54.5 c 128,-1,2
 443 49 443 49 412 49 c 0,3,4
 371 49 371 49 335.5 63 c 128,-1,5
 300 77 300 77 273.5 105 c 128,-1,6
 247 133 247 133 232.5 177 c 128,-1,7
 218 221 218 221 218 283 c 0,8,9
 218 393 218 393 274.5 449.5 c 128,-1,10
 331 506 331 506 422 506 c 0,11,12
 431 506 431 506 440 505.5 c 128,-1,13
 449 505 449 505 458 504 c 1,14,15
 458 578 458 578 427.5 621.5 c 128,-1,16
 397 665 397 665 330 665 c 0,17,18
 289 665 289 665 254.5 645 c 128,-1,19
 220 625 220 625 195.5 581 c 128,-1,20
 171 537 171 537 157 467.5 c 128,-1,21
 143 398 143 398 143 299 c 0,22,23
 143 225 143 225 157 156 c 128,-1,24
 171 87 171 87 201 35.5 c 128,-1,25
 231 -16 231 -16 277.5 -47.5 c 128,-1,26
 324 -79 324 -79 389 -79 c 0,27,28
 436 -79 436 -79 486 -64 c 1,29,-1
 496 -143 l 1,30,31
 434 -159 434 -159 380 -159 c 0,32,33
 294 -159 294 -159 231 -120.5 c 128,-1,34
 168 -82 168 -82 127.5 -20 c 128,-1,35
 87 42 87 42 67 122.5 c 128,-1,36
 47 203 47 203 47 286 c 0,37,38
 47 407 47 407 69 494.5 c 128,-1,39
 91 582 91 582 129 637.5 c 128,-1,40
 167 693 167 693 218 719.5 c 128,-1,41
 269 746 269 746 327 746 c 0,42,43
 431 746 431 746 491 675.5 c 128,-1,44
 551 605 551 605 551 481 c 2,45,-1
 551 74 l 1,0,1
312 283 m 0,46,47
 312 259 312 259 315 232 c 128,-1,48
 318 205 318 205 328.5 182 c 128,-1,49
 339 159 339 159 358.5 143 c 128,-1,50
 378 127 378 127 412 127 c 0,51,52
 421 127 421 127 433 128.5 c 128,-1,53
 445 130 445 130 458 133 c 1,54,-1
 458 422 l 1,55,56
 447 426 447 426 437.5 427 c 128,-1,57
 428 428 428 428 418 428 c 0,58,59
 367 428 367 428 339.5 388.5 c 128,-1,60
 312 349 312 349 312 283 c 0,46,47
EndSplineSet
Substitution2: "'case' Case-Sensitive Forms lookup 17 subtable" At
EndChar

StartChar: A
Encoding: 65 65 36
Width: 588
VWidth: 1177
Flags: W
LayerCount: 2
Fore
SplineSet
476 0 m 1,0,-1
 432 191 l 1,1,-1
 152 191 l 1,2,-1
 110 0 l 1,3,-1
 11 0 l 1,4,5
 31 78 31 78 55.5 168.5 c 128,-1,6
 80 259 80 259 109 354.5 c 128,-1,7
 138 450 138 450 169.5 546 c 128,-1,8
 201 642 201 642 237 729 c 1,9,-1
 357 729 l 1,10,11
 391 642 391 642 422 546 c 128,-1,12
 453 450 453 450 481 354.5 c 128,-1,13
 509 259 509 259 533.5 168.5 c 128,-1,14
 558 78 558 78 578 0 c 1,15,-1
 476 0 l 1,0,-1
293 644 m 1,16,17
 266 570 266 570 234.5 472.5 c 128,-1,18
 203 375 203 375 174 271 c 1,19,-1
 410 271 l 1,20,21
 383 377 383 377 351.5 475 c 128,-1,22
 320 573 320 573 293 644 c 1,16,17
EndSplineSet
EndChar

StartChar: B
Encoding: 66 66 37
Width: 588
VWidth: 1177
Flags: W
LayerCount: 2
Fore
SplineSet
240 -6 m 0,0,1
 222 -6 222 -6 199 -5 c 128,-1,2
 176 -4 176 -4 152 -2 c 128,-1,3
 128 0 128 0 104.5 3.5 c 128,-1,4
 81 7 81 7 64 12 c 1,5,-1
 64 718 l 1,6,7
 82 723 82 723 104.5 726.5 c 128,-1,8
 127 730 127 730 151.5 732 c 128,-1,9
 176 734 176 734 198.5 735 c 128,-1,10
 221 736 221 736 240 736 c 0,11,12
 294 736 294 736 341.5 726.5 c 128,-1,13
 389 717 389 717 423.5 695 c 128,-1,14
 458 673 458 673 477.5 636.5 c 128,-1,15
 497 600 497 600 497 545 c 0,16,17
 497 519 497 519 489 495 c 128,-1,18
 481 471 481 471 466 450 c 128,-1,19
 451 429 451 429 431.5 413 c 128,-1,20
 412 397 412 397 390 389 c 1,21,22
 450 373 450 373 490.5 328.5 c 128,-1,23
 531 284 531 284 531 213 c 0,24,25
 531 105 531 105 461.5 49.5 c 128,-1,26
 392 -6 392 -6 240 -6 c 0,0,1
160 340 m 1,27,-1
 160 80 l 2,28,29
 162 79 162 79 186.5 77 c 128,-1,30
 211 75 211 75 247 75 c 256,31,32
 284 75 284 75 317.5 81 c 128,-1,33
 351 87 351 87 377 103 c 128,-1,34
 403 119 403 119 419 145 c 128,-1,35
 435 171 435 171 435 212 c 0,36,37
 435 249 435 249 420 273.5 c 128,-1,38
 405 298 405 298 381 312.5 c 128,-1,39
 357 327 357 327 325 333.5 c 128,-1,40
 293 340 293 340 259 340 c 2,41,-1
 160 340 l 1,27,-1
160 420 m 1,42,-1
 237 420 l 2,43,44
 266 420 266 420 295.5 426 c 128,-1,45
 325 432 325 432 348.5 445 c 128,-1,46
 372 458 372 458 386 480.5 c 128,-1,47
 400 503 400 503 400 537 c 0,48,49
 400 569 400 569 387.5 591.5 c 128,-1,50
 375 614 375 614 353.5 628 c 128,-1,51
 332 642 332 642 304.5 648 c 128,-1,52
 277 654 277 654 246 654 c 256,53,54
 215 654 215 654 192.5 653.5 c 128,-1,55
 170 653 170 653 160 650 c 1,56,-1
 160 420 l 1,42,-1
EndSplineSet
EndChar

StartChar: C
Encoding: 67 67 38
Width: 588
VWidth: 1177
Flags: W
LayerCount: 2
Fore
SplineSet
542 31 m 1,0,1
 501 7 501 7 454.5 -4 c 128,-1,2
 408 -15 408 -15 355 -15 c 0,3,4
 290 -15 290 -15 235 8 c 128,-1,5
 180 31 180 31 140 77.5 c 128,-1,6
 100 124 100 124 77 195.5 c 128,-1,7
 54 267 54 267 54 365 c 0,8,9
 54 458 54 458 78 529 c 128,-1,10
 102 600 102 600 143.5 648 c 128,-1,11
 185 696 185 696 240.5 721 c 128,-1,12
 296 746 296 746 358 746 c 0,13,14
 402 746 402 746 447 734 c 128,-1,15
 492 722 492 722 536 695 c 1,16,-1
 508 615 l 1,17,18
 430 660 430 660 362 660 c 0,19,20
 314 660 314 660 275.5 639 c 128,-1,21
 237 618 237 618 210 579.5 c 128,-1,22
 183 541 183 541 168 486.5 c 128,-1,23
 153 432 153 432 153 365 c 0,24,25
 153 290 153 290 169 234.5 c 128,-1,26
 185 179 185 179 213 142.5 c 128,-1,27
 241 106 241 106 280.5 88.5 c 128,-1,28
 320 71 320 71 366 71 c 0,29,30
 400 71 400 71 438 79.5 c 128,-1,31
 476 88 476 88 516 111 c 1,32,-1
 542 31 l 1,0,1
EndSplineSet
EndChar

StartChar: D
Encoding: 68 68 39
Width: 588
VWidth: 1177
Flags: W
LayerCount: 2
Fore
SplineSet
542 365 m 0,0,1
 542 264 542 264 516.5 193 c 128,-1,2
 491 122 491 122 447 78 c 128,-1,3
 403 34 403 34 342.5 14 c 128,-1,4
 282 -6 282 -6 211 -6 c 0,5,6
 138 -6 138 -6 64 12 c 1,7,-1
 64 718 l 1,8,9
 138 736 138 736 211 736 c 0,10,11
 282 736 282 736 342.5 716 c 128,-1,12
 403 696 403 696 447 651.5 c 128,-1,13
 491 607 491 607 516.5 536 c 128,-1,14
 542 465 542 465 542 365 c 0,0,1
160 81 m 1,15,16
 189 77 189 77 220 78 c 0,17,18
 273 78 273 78 314.5 94 c 128,-1,19
 356 110 356 110 384 144.5 c 128,-1,20
 412 179 412 179 427.5 234 c 128,-1,21
 443 289 443 289 443 365 c 0,22,23
 443 513 443 513 386 583 c 128,-1,24
 329 653 329 653 217 653 c 0,25,26
 202 653 202 653 187 652 c 128,-1,27
 172 651 172 651 160 649 c 1,28,-1
 160 81 l 1,15,16
EndSplineSet
EndChar

StartChar: E
Encoding: 69 69 40
Width: 588
VWidth: 1177
Flags: W
LayerCount: 2
Fore
SplineSet
107 0 m 1,0,-1
 107 729 l 1,1,-1
 516 729 l 1,2,-1
 516 647 l 1,3,-1
 204 647 l 1,4,-1
 204 423 l 1,5,-1
 477 423 l 1,6,-1
 477 340 l 1,7,-1
 204 340 l 1,8,-1
 204 82 l 1,9,-1
 542 82 l 1,10,-1
 542 0 l 1,11,-1
 107 0 l 1,0,-1
EndSplineSet
EndChar

StartChar: F
Encoding: 70 70 41
Width: 588
VWidth: 1177
Flags: W
LayerCount: 2
Fore
SplineSet
107 0 m 1,0,-1
 107 729 l 1,1,-1
 521 729 l 1,2,-1
 521 647 l 1,3,-1
 204 647 l 1,4,-1
 204 419 l 1,5,-1
 483 419 l 1,6,-1
 483 338 l 1,7,-1
 204 338 l 1,8,-1
 204 0 l 1,9,-1
 107 0 l 1,0,-1
EndSplineSet
EndChar

StartChar: G
Encoding: 71 71 42
Width: 588
VWidth: 1177
Flags: W
LayerCount: 2
Fore
SplineSet
439 359 m 1,0,-1
 536 359 l 1,1,-1
 536 18 l 1,2,3
 514 10 514 10 464.5 -2.5 c 128,-1,4
 415 -15 415 -15 347 -15 c 0,5,6
 281 -15 281 -15 227 10 c 128,-1,7
 173 35 173 35 135 83.5 c 128,-1,8
 97 132 97 132 75.5 203 c 128,-1,9
 54 274 54 274 54 365 c 0,10,11
 54 457 54 457 77.5 527.5 c 128,-1,12
 101 598 101 598 142 646.5 c 128,-1,13
 183 695 183 695 237 720.5 c 128,-1,14
 291 746 291 746 353 746 c 0,15,16
 393 746 393 746 424 740 c 128,-1,17
 455 734 455 734 476.5 725.5 c 128,-1,18
 498 717 498 717 512.5 708.5 c 128,-1,19
 527 700 527 700 534 695 c 1,20,-1
 502 614 l 1,21,22
 475 635 475 635 437.5 648.5 c 128,-1,23
 400 662 400 662 359 662 c 0,24,25
 314 662 314 662 276 641 c 128,-1,26
 238 620 238 620 211 581 c 128,-1,27
 184 542 184 542 168.5 487 c 128,-1,28
 153 432 153 432 153 365 c 0,29,30
 153 299 153 299 166.5 245 c 128,-1,31
 180 191 180 191 206 152 c 128,-1,32
 232 113 232 113 270.5 91 c 128,-1,33
 309 69 309 69 358 69 c 0,34,35
 392 69 392 69 411 74 c 128,-1,36
 430 79 430 79 439 84 c 1,37,-1
 439 359 l 1,0,-1
EndSplineSet
EndChar

StartChar: H
Encoding: 72 72 43
Width: 588
VWidth: 1177
Flags: W
LayerCount: 2
Fore
SplineSet
439 729 m 1,0,-1
 536 729 l 1,1,-1
 536 0 l 1,2,-1
 439 0 l 1,3,-1
 439 339 l 1,4,-1
 150 339 l 1,5,-1
 150 0 l 1,6,-1
 53 0 l 1,7,-1
 53 729 l 1,8,-1
 150 729 l 1,9,-1
 150 422 l 1,10,-1
 439 422 l 1,11,-1
 439 729 l 1,0,-1
EndSplineSet
EndChar

StartChar: I
Encoding: 73 73 44
Width: 588
VWidth: 1177
Flags: W
LayerCount: 2
Fore
SplineSet
343 647 m 1,0,-1
 343 82 l 1,1,-1
 484 82 l 1,2,-1
 484 0 l 1,3,-1
 105 0 l 1,4,-1
 105 82 l 1,5,-1
 246 82 l 1,6,-1
 246 647 l 1,7,-1
 105 647 l 1,8,-1
 105 729 l 1,9,-1
 484 729 l 1,10,-1
 484 647 l 1,11,-1
 343 647 l 1,0,-1
EndSplineSet
EndChar

StartChar: J
Encoding: 74 74 45
Width: 588
VWidth: 1177
Flags: W
LayerCount: 2
Fore
SplineSet
150 647 m 1,0,-1
 150 729 l 1,1,-1
 495 729 l 1,2,-1
 495 234 l 2,3,4
 495 182 495 182 483.5 136.5 c 128,-1,5
 472 91 472 91 444.5 57.5 c 128,-1,6
 417 24 417 24 370.5 4.5 c 128,-1,7
 324 -15 324 -15 253 -15 c 256,8,9
 182 -15 182 -15 134 5 c 128,-1,10
 86 25 86 25 64 44 c 1,11,-1
 102 122 l 1,12,13
 124 106 124 106 161.5 87 c 128,-1,14
 199 68 199 68 249 68 c 0,15,16
 324 68 324 68 361 108 c 128,-1,17
 398 148 398 148 398 244 c 2,18,-1
 398 647 l 1,19,-1
 150 647 l 1,0,-1
EndSplineSet
EndChar

StartChar: K
Encoding: 75 75 46
Width: 588
VWidth: 1177
Flags: W
LayerCount: 2
Fore
SplineSet
554 729 m 1,0,1
 496 643 496 643 427 558 c 128,-1,2
 358 473 358 473 278 389 c 1,3,4
 316 357 316 357 358 314.5 c 128,-1,5
 400 272 400 272 441 222 c 128,-1,6
 482 172 482 172 518 115.5 c 128,-1,7
 554 59 554 59 578 0 c 1,8,-1
 469 0 l 1,9,10
 440 54 440 54 405.5 106 c 128,-1,11
 371 158 371 158 332.5 202.5 c 128,-1,12
 294 247 294 247 253.5 284.5 c 128,-1,13
 213 322 213 322 172 349 c 1,14,-1
 172 0 l 1,15,-1
 75 0 l 1,16,-1
 75 729 l 1,17,-1
 172 729 l 1,18,-1
 172 404 l 1,19,20
 249 483 249 483 319 569 c 128,-1,21
 389 655 389 655 442 729 c 1,22,-1
 554 729 l 1,0,1
EndSplineSet
EndChar

StartChar: L
Encoding: 76 76 47
Width: 588
VWidth: 1177
Flags: W
LayerCount: 2
Fore
SplineSet
542 82 m 1,0,-1
 542 0 l 1,1,-1
 107 0 l 1,2,-1
 107 729 l 1,3,-1
 204 729 l 1,4,-1
 204 82 l 1,5,-1
 542 82 l 1,0,-1
EndSplineSet
EndChar

StartChar: M
Encoding: 77 77 48
Width: 588
VWidth: 1177
Flags: W
LayerCount: 2
Fore
SplineSet
296 366 m 1,0,-1
 409 729 l 1,1,-1
 499 729 l 1,2,3
 523 557 523 557 533 377 c 128,-1,4
 543 197 543 197 551 0 c 1,5,-1
 457 0 l 1,6,7
 456 64 456 64 454.5 138 c 128,-1,8
 453 212 453 212 451.5 291 c 128,-1,9
 450 370 450 370 448 451 c 128,-1,10
 446 532 446 532 444 609 c 1,11,-1
 338 277 l 1,12,-1
 253 277 l 1,13,-1
 145 609 l 1,14,15
 144 532 144 532 142 451.5 c 128,-1,16
 140 371 140 371 138.5 291.5 c 128,-1,17
 137 212 137 212 135 138 c 128,-1,18
 133 64 133 64 132 0 c 1,19,-1
 38 0 l 1,20,21
 42 90 42 90 46.5 184 c 128,-1,22
 51 278 51 278 57.5 371 c 128,-1,23
 64 464 64 464 72.5 554.5 c 128,-1,24
 81 645 81 645 92 729 c 1,25,-1
 181 729 l 1,26,-1
 296 366 l 1,0,-1
EndSplineSet
EndChar

StartChar: N
Encoding: 78 78 49
Width: 588
VWidth: 1177
Flags: W
LayerCount: 2
Fore
SplineSet
425 0 m 1,0,1
 385 98 385 98 349.5 177.5 c 128,-1,2
 314 257 314 257 282 326.5 c 128,-1,3
 250 396 250 396 218 457.5 c 128,-1,4
 186 519 186 519 153 582 c 1,5,-1
 153 0 l 1,6,-1
 65 0 l 1,7,-1
 65 729 l 1,8,-1
 164 729 l 1,9,10
 212 641 212 641 248 575 c 128,-1,11
 284 509 284 509 314 447 c 128,-1,12
 344 385 344 385 372 319.5 c 128,-1,13
 400 254 400 254 436 168 c 1,14,-1
 436 729 l 1,15,-1
 524 729 l 1,16,-1
 524 0 l 1,17,-1
 425 0 l 1,0,1
EndSplineSet
EndChar

StartChar: O
Encoding: 79 79 50
Width: 588
VWidth: 1177
Flags: W
LayerCount: 2
Fore
SplineSet
34 365 m 256,0,1
 34 463 34 463 53 535 c 128,-1,2
 72 607 72 607 106 653.5 c 128,-1,3
 140 700 140 700 188 723 c 128,-1,4
 236 746 236 746 294 746 c 256,5,6
 352 746 352 746 400.5 723 c 128,-1,7
 449 700 449 700 483 653.5 c 128,-1,8
 517 607 517 607 536.5 535 c 128,-1,9
 556 463 556 463 556 365 c 256,10,11
 556 267 556 267 536.5 195.5 c 128,-1,12
 517 124 517 124 483 76.5 c 128,-1,13
 449 29 449 29 400.5 7 c 128,-1,14
 352 -15 352 -15 294 -15 c 0,15,16
 235 -15 235 -15 187.5 7 c 128,-1,17
 140 29 140 29 106 76.5 c 128,-1,18
 72 124 72 124 53 195.5 c 128,-1,19
 34 267 34 267 34 365 c 256,0,1
133 365 m 256,20,21
 133 221 133 221 172 144.5 c 128,-1,22
 211 68 211 68 292 68 c 0,23,24
 374 68 374 68 415.5 144.5 c 128,-1,25
 457 221 457 221 457 365 c 256,26,27
 457 509 457 509 416 585.5 c 128,-1,28
 375 662 375 662 292 662 c 0,29,30
 211 662 211 662 172 585.5 c 128,-1,31
 133 509 133 509 133 365 c 256,20,21
EndSplineSet
EndChar

StartChar: P
Encoding: 80 80 51
Width: 588
VWidth: 1177
Flags: W
LayerCount: 2
Fore
SplineSet
277 736 m 0,0,1
 342 736 342 736 390.5 719.5 c 128,-1,2
 439 703 439 703 471.5 673 c 128,-1,3
 504 643 504 643 520 602 c 128,-1,4
 536 561 536 561 536 510 c 0,5,6
 536 396 536 396 469 334 c 128,-1,7
 402 272 402 272 267 272 c 2,8,-1
 183 272 l 1,9,-1
 183 0 l 1,10,-1
 86 0 l 1,11,-1
 86 718 l 1,12,13
 107 723 107 723 132.5 726.5 c 128,-1,14
 158 730 158 730 183 732.5 c 128,-1,15
 208 735 208 735 232.5 735.5 c 128,-1,16
 257 736 257 736 277 736 c 0,0,1
284 653 m 0,17,18
 253 653 253 653 225 652 c 128,-1,19
 197 651 197 651 183 649 c 1,20,-1
 183 355 l 1,21,-1
 263 355 l 2,22,23
 351 355 351 355 394 390 c 128,-1,24
 437 425 437 425 437 506 c 0,25,26
 437 653 437 653 284 653 c 0,17,18
EndSplineSet
EndChar

StartChar: Q
Encoding: 81 81 52
Width: 588
VWidth: 1177
Flags: W
LayerCount: 2
Fore
SplineSet
34 364 m 0,0,1
 34 462 34 462 53 533.5 c 128,-1,2
 72 605 72 605 106 651.5 c 128,-1,3
 140 698 140 698 188 721 c 128,-1,4
 236 744 236 744 294 744 c 256,5,6
 352 744 352 744 400.5 721 c 128,-1,7
 449 698 449 698 483 651.5 c 128,-1,8
 517 605 517 605 536.5 533.5 c 128,-1,9
 556 462 556 462 556 364 c 0,10,11
 556 277 556 277 540.5 210.5 c 128,-1,12
 525 144 525 144 497 96.5 c 128,-1,13
 469 49 469 49 429 22 c 128,-1,14
 389 -5 389 -5 340 -13 c 1,15,16
 344 -37 344 -37 360.5 -54 c 128,-1,17
 377 -71 377 -71 402.5 -83 c 128,-1,18
 428 -95 428 -95 460 -103.5 c 128,-1,19
 492 -112 492 -112 528 -117 c 1,20,-1
 505 -194 l 1,21,22
 457 -186 457 -186 413 -173 c 128,-1,23
 369 -160 369 -160 333.5 -139 c 128,-1,24
 298 -118 298 -118 273.5 -87.5 c 128,-1,25
 249 -57 249 -57 240 -12 c 1,26,27
 145 8 145 8 89.5 99.5 c 128,-1,28
 34 191 34 191 34 364 c 0,0,1
133 364 m 256,29,30
 133 220 133 220 172 143.5 c 128,-1,31
 211 67 211 67 292 67 c 0,32,33
 374 67 374 67 415.5 143.5 c 128,-1,34
 457 220 457 220 457 364 c 256,35,36
 457 508 457 508 416 584.5 c 128,-1,37
 375 661 375 661 292 661 c 0,38,39
 211 661 211 661 172 584.5 c 128,-1,40
 133 508 133 508 133 364 c 256,29,30
EndSplineSet
EndChar

StartChar: R
Encoding: 82 82 53
Width: 588
VWidth: 1177
Flags: W
LayerCount: 2
Fore
SplineSet
508 506 m 0,0,1
 508 439 508 439 472.5 388 c 128,-1,2
 437 337 437 337 377 309 c 1,3,4
 395 281 395 281 416.5 244.5 c 128,-1,5
 438 208 438 208 460.5 167.5 c 128,-1,6
 483 127 483 127 505 84 c 128,-1,7
 527 41 527 41 545 0 c 1,8,-1
 442 0 l 1,9,10
 407 85 407 85 365 162.5 c 128,-1,11
 323 240 323 240 284 289 c 1,12,13
 277 288 277 288 263.5 287.5 c 128,-1,14
 250 287 250 287 245 287 c 2,15,-1
 163 287 l 1,16,-1
 163 0 l 1,17,-1
 65 0 l 1,18,-1
 65 718 l 1,19,20
 83 723 83 723 105.5 726.5 c 128,-1,21
 128 730 128 730 152.5 732 c 128,-1,22
 177 734 177 734 200.5 735 c 128,-1,23
 224 736 224 736 243 736 c 0,24,25
 375 736 375 736 441.5 678 c 128,-1,26
 508 620 508 620 508 506 c 0,0,1
251 653 m 0,27,28
 224 653 224 653 198.5 652 c 128,-1,29
 173 651 173 651 163 649 c 1,30,-1
 163 367 l 1,31,-1
 225 367 l 2,32,33
 267 367 267 367 301 373 c 128,-1,34
 335 379 335 379 359 395 c 128,-1,35
 383 411 383 411 396 438.5 c 128,-1,36
 409 466 409 466 409 511 c 0,37,38
 409 553 409 553 396 580.5 c 128,-1,39
 383 608 383 608 361.5 624 c 128,-1,40
 340 640 340 640 311.5 646.5 c 128,-1,41
 283 653 283 653 251 653 c 0,27,28
EndSplineSet
EndChar

StartChar: S
Encoding: 83 83 54
Width: 588
VWidth: 1177
Flags: W
LayerCount: 2
Fore
SplineSet
276 68 m 0,0,1
 350 68 350 68 389 96.5 c 128,-1,2
 428 125 428 125 428 181 c 0,3,4
 428 215 428 215 413.5 239.5 c 128,-1,5
 399 264 399 264 375.5 282 c 128,-1,6
 352 300 352 300 322.5 313.5 c 128,-1,7
 293 327 293 327 263 339 c 0,8,9
 228 353 228 353 195.5 371 c 128,-1,10
 163 389 163 389 137.5 412.5 c 128,-1,11
 112 436 112 436 97 467.5 c 128,-1,12
 82 499 82 499 82 543 c 0,13,14
 82 638 82 638 142.5 692 c 128,-1,15
 203 746 203 746 310 746 c 0,16,17
 339 746 339 746 368 741.5 c 128,-1,18
 397 737 397 737 421.5 731.5 c 128,-1,19
 446 726 446 726 465.5 717.5 c 128,-1,20
 485 709 485 709 497 701 c 1,21,-1
 466 620 l 1,22,23
 442 634 442 634 401 648 c 128,-1,24
 360 662 360 662 310 662 c 0,25,26
 257 662 257 662 218 635.5 c 128,-1,27
 179 609 179 609 179 556 c 0,28,29
 179 525 179 525 190 504 c 128,-1,30
 201 483 201 483 220.5 467 c 128,-1,31
 240 451 240 451 266 438 c 128,-1,32
 292 425 292 425 323 412 c 0,33,34
 368 393 368 393 405 374.5 c 128,-1,35
 442 356 442 356 468.5 330 c 128,-1,36
 495 304 495 304 509.5 268.5 c 128,-1,37
 524 233 524 233 524 183 c 0,38,39
 524 88 524 88 460 36.5 c 128,-1,40
 396 -15 396 -15 276 -15 c 0,41,42
 237 -15 237 -15 202.5 -10 c 128,-1,43
 168 -5 168 -5 141.5 3.5 c 128,-1,44
 115 12 115 12 95 20 c 128,-1,45
 75 28 75 28 65 35 c 1,46,-1
 94 115 l 1,47,48
 118 102 118 102 164 85 c 128,-1,49
 210 68 210 68 276 68 c 0,0,1
EndSplineSet
EndChar

StartChar: T
Encoding: 84 84 55
Width: 588
VWidth: 1177
Flags: W
LayerCount: 2
Fore
SplineSet
543 729 m 1,0,-1
 543 647 l 1,1,-1
 343 647 l 1,2,-1
 343 0 l 1,3,-1
 246 0 l 1,4,-1
 246 647 l 1,5,-1
 46 647 l 1,6,-1
 46 729 l 1,7,-1
 543 729 l 1,0,-1
EndSplineSet
EndChar

StartChar: U
Encoding: 85 85 56
Width: 588
VWidth: 1177
Flags: W
LayerCount: 2
Fore
SplineSet
294 -15 m 256,0,1
 229 -15 229 -15 184 3.5 c 128,-1,2
 139 22 139 22 110.5 56.5 c 128,-1,3
 82 91 82 91 69.5 140.5 c 128,-1,4
 57 190 57 190 57 251 c 2,5,-1
 57 729 l 1,6,-1
 153 729 l 1,7,-1
 153 261 l 2,8,9
 153 206 153 206 163 169 c 128,-1,10
 173 132 173 132 191.5 109.5 c 128,-1,11
 210 87 210 87 235.5 77.5 c 128,-1,12
 261 68 261 68 294 68 c 256,13,14
 327 68 327 68 353 77.5 c 128,-1,15
 379 87 379 87 397.5 109.5 c 128,-1,16
 416 132 416 132 426 169 c 128,-1,17
 436 206 436 206 436 261 c 2,18,-1
 436 729 l 1,19,-1
 532 729 l 1,20,-1
 532 251 l 2,21,22
 532 190 532 190 519 140.5 c 128,-1,23
 506 91 506 91 478 56.5 c 128,-1,24
 450 22 450 22 404.5 3.5 c 128,-1,25
 359 -15 359 -15 294 -15 c 256,0,1
EndSplineSet
EndChar

StartChar: V
Encoding: 86 86 57
Width: 588
VWidth: 1177
Flags: W
LayerCount: 2
Fore
SplineSet
120 729 m 1,0,1
 134 655 134 655 156 567 c 128,-1,2
 178 479 178 479 202 391.5 c 128,-1,3
 226 304 226 304 251 224 c 128,-1,4
 276 144 276 144 297 84 c 1,5,6
 316 144 316 144 341 225 c 128,-1,7
 366 306 366 306 391 394 c 128,-1,8
 416 482 416 482 437.5 569 c 128,-1,9
 459 656 459 656 473 729 c 1,10,-1
 575 729 l 1,11,12
 566 682 566 682 544.5 602.5 c 128,-1,13
 523 523 523 523 493.5 424.5 c 128,-1,14
 464 326 464 326 428 216 c 128,-1,15
 392 106 392 106 353 0 c 1,16,-1
 233 0 l 1,17,18
 196 106 196 106 161.5 215.5 c 128,-1,19
 127 325 127 325 97.5 423.5 c 128,-1,20
 68 522 68 522 47 602 c 128,-1,21
 26 682 26 682 15 729 c 1,22,-1
 120 729 l 1,0,1
EndSplineSet
EndChar

StartChar: W
Encoding: 87 87 58
Width: 588
VWidth: 1177
Flags: W
LayerCount: 2
Fore
SplineSet
180 0 m 1,0,-1
 90 0 l 1,1,2
 79 72 79 72 71.5 158.5 c 128,-1,3
 64 245 64 245 57.5 339 c 128,-1,4
 51 433 51 433 46 532 c 128,-1,5
 41 631 41 631 38 729 c 1,6,-1
 132 729 l 1,7,-1
 145 120 l 1,8,-1
 251 452 l 1,9,-1
 336 452 l 1,10,-1
 444 120 l 1,11,-1
 457 729 l 1,12,-1
 551 729 l 1,13,14
 547 630 547 630 542 531 c 128,-1,15
 537 432 537 432 530 338.5 c 128,-1,16
 523 245 523 245 514.5 159 c 128,-1,17
 506 73 506 73 497 0 c 1,18,-1
 408 0 l 1,19,-1
 293 363 l 1,20,-1
 180 0 l 1,0,-1
EndSplineSet
EndChar

StartChar: X
Encoding: 88 88 59
Width: 588
VWidth: 1177
Flags: W
LayerCount: 2
Fore
SplineSet
452 0 m 1,0,1
 439 32 439 32 421.5 72 c 128,-1,2
 404 112 404 112 384 154.5 c 128,-1,3
 364 197 364 197 341 239.5 c 128,-1,4
 318 282 318 282 293 318 c 1,5,6
 252 252 252 252 211 166.5 c 128,-1,7
 170 81 170 81 134 0 c 1,8,-1
 29 0 l 1,9,10
 68 87 68 87 120 189 c 128,-1,11
 172 291 172 291 231 385 c 1,12,-1
 41 729 l 1,13,-1
 148 729 l 1,14,-1
 291 450 l 1,15,-1
 444 729 l 1,16,-1
 549 729 l 1,17,-1
 356 389 l 1,18,19
 413 297 413 297 465.5 198 c 128,-1,20
 518 99 518 99 559 0 c 1,21,-1
 452 0 l 1,0,1
EndSplineSet
EndChar

StartChar: Y
Encoding: 89 89 60
Width: 588
VWidth: 1177
Flags: W
LayerCount: 2
Fore
SplineSet
247 0 m 1,0,-1
 247 271 l 1,1,2
 175 389 175 389 117 500.5 c 128,-1,3
 59 612 59 612 15 729 c 1,4,-1
 124 729 l 1,5,6
 158 630 158 630 202 540 c 128,-1,7
 246 450 246 450 297 355 c 1,8,9
 351 455 351 455 393 545 c 128,-1,10
 435 635 435 635 469 729 c 1,11,-1
 575 729 l 1,12,13
 530 614 530 614 472.5 504.5 c 128,-1,14
 415 395 415 395 344 273 c 1,15,-1
 344 0 l 1,16,-1
 247 0 l 1,0,-1
EndSplineSet
EndChar

StartChar: Z
Encoding: 90 90 61
Width: 588
VWidth: 1177
Flags: W
LayerCount: 2
Fore
SplineSet
527 654 m 1,0,1
 489 602 489 602 442.5 530.5 c 128,-1,2
 396 459 396 459 347.5 381.5 c 128,-1,3
 299 304 299 304 253.5 225.5 c 128,-1,4
 208 147 208 147 174 82 c 1,5,-1
 536 82 l 1,6,-1
 536 0 l 1,7,-1
 64 0 l 1,8,-1
 64 64 l 1,9,10
 101 138 101 138 144.5 216 c 128,-1,11
 188 294 188 294 234 369.5 c 128,-1,12
 280 445 280 445 326 516 c 128,-1,13
 372 587 372 587 415 647 c 1,14,-1
 81 647 l 1,15,-1
 81 729 l 1,16,-1
 527 729 l 1,17,-1
 527 654 l 1,0,1
EndSplineSet
EndChar

StartChar: bracketleft
Encoding: 91 91 62
Width: 588
VWidth: 1177
Flags: W
LayerCount: 2
Fore
SplineSet
168 823 m 1,0,-1
 450 823 l 1,1,-1
 450 747 l 1,2,-1
 260 747 l 1,3,-1
 260 -118 l 1,4,-1
 450 -118 l 1,5,-1
 450 -194 l 1,6,-1
 168 -194 l 1,7,-1
 168 823 l 1,0,-1
EndSplineSet
Substitution2: "'case' Case-Sensitive Forms lookup 17 subtable" Bracketleft
EndChar

StartChar: backslash
Encoding: 92 92 63
Width: 588
VWidth: 1177
Flags: W
LayerCount: 2
Fore
SplineSet
82 823 m 1,0,-1
 180 823 l 1,1,-1
 506 -194 l 1,2,-1
 408 -194 l 1,3,-1
 82 823 l 1,0,-1
EndSplineSet
Substitution2: "'case' Case-Sensitive Forms lookup 17 subtable" Backslash
EndChar

StartChar: bracketright
Encoding: 93 93 64
Width: 588
VWidth: 1177
Flags: W
LayerCount: 2
Fore
SplineSet
420 -194 m 1,0,-1
 139 -194 l 1,1,-1
 139 -118 l 1,2,-1
 329 -118 l 1,3,-1
 329 747 l 1,4,-1
 139 747 l 1,5,-1
 139 823 l 1,6,-1
 420 823 l 1,7,-1
 420 -194 l 1,0,-1
EndSplineSet
Substitution2: "'case' Case-Sensitive Forms lookup 17 subtable" Bracketright
EndChar

StartChar: asciicircum
Encoding: 94 94 65
Width: 588
VWidth: 1177
Flags: W
LayerCount: 2
Fore
SplineSet
338 729 m 1,0,-1
 542 371 l 1,1,-1
 464 331 l 1,2,-1
 294 628 l 1,3,-1
 125 331 l 1,4,-1
 47 371 l 1,5,-1
 251 729 l 1,6,-1
 338 729 l 1,0,-1
EndSplineSet
EndChar

StartChar: underscore
Encoding: 95 95 66
Width: 588
VWidth: 1177
Flags: W
LayerCount: 2
Fore
SplineSet
9 -112 m 1,0,-1
 580 -112 l 1,1,-1
 580 -194 l 1,2,-1
 9 -194 l 1,3,-1
 9 -112 l 1,0,-1
EndSplineSet
EndChar

StartChar: grave
Encoding: 96 96 67
Width: 588
VWidth: 1177
Flags: W
LayerCount: 2
Fore
SplineSet
254 816 m 1,0,-1
 389 654 l 1,1,-1
 339 610 l 1,2,-1
 192 754 l 1,3,-1
 254 816 l 1,0,-1
EndSplineSet
EndChar

StartChar: a
Encoding: 97 97 68
Width: 588
VWidth: 1177
Flags: W
LayerCount: 2
Fore
SplineSet
300 69 m 0,0,1
 337 69 337 69 366 71.5 c 128,-1,2
 395 74 395 74 413 78 c 1,3,-1
 413 240 l 1,4,5
 394 246 394 246 368 249.5 c 128,-1,6
 342 253 342 253 312 253 c 0,7,8
 285 253 285 253 259 249 c 128,-1,9
 233 245 233 245 213 234.5 c 128,-1,10
 193 224 193 224 180 207 c 128,-1,11
 167 190 167 190 167 164 c 0,12,13
 167 111 167 111 203 90 c 128,-1,14
 239 69 239 69 300 69 c 0,0,1
291 559 m 0,15,16
 352 559 352 559 394 544 c 128,-1,17
 436 529 436 529 462 502 c 128,-1,18
 488 475 488 475 498.5 436 c 128,-1,19
 509 397 509 397 509 351 c 2,20,-1
 509 9 l 1,21,22
 475 3 475 3 419 -5 c 128,-1,23
 363 -13 363 -13 304 -13 c 0,24,25
 259 -13 259 -13 216.5 -5.5 c 128,-1,26
 174 2 174 2 141 21.5 c 128,-1,27
 108 41 108 41 88 75.5 c 128,-1,28
 68 110 68 110 68 163 c 0,29,30
 68 210 68 210 89 242 c 128,-1,31
 110 274 110 274 142 294 c 128,-1,32
 174 314 174 314 216 323 c 128,-1,33
 258 332 258 332 300 332 c 0,34,35
 358 332 358 332 413 319 c 1,36,-1
 413 346 l 2,37,38
 413 371 413 371 408 394 c 128,-1,39
 403 417 403 417 388 436 c 128,-1,40
 373 455 373 455 348 466 c 128,-1,41
 323 477 323 477 283 477 c 0,42,43
 232 477 232 477 194.5 470 c 128,-1,44
 157 463 157 463 137 456 c 1,45,-1
 125 536 l 1,46,47
 145 545 145 545 191.5 552 c 128,-1,48
 238 559 238 559 291 559 c 0,15,16
EndSplineSet
Substitution2: "'case' Case-Sensitive Forms lookup 18 subtable" A
Substitution2: "'ordn' Ordinals in Latin lookup 7 subtable" ordfeminine
EndChar

StartChar: b
Encoding: 98 98 69
Width: 588
VWidth: 1177
Flags: W
LayerCount: 2
Fore
SplineSet
181 527 m 1,0,1
 199 538 199 538 232.5 548.5 c 128,-1,2
 266 559 266 559 307 559 c 0,3,4
 362 559 362 559 406 538 c 128,-1,5
 450 517 450 517 480 479.5 c 128,-1,6
 510 442 510 442 526 389.5 c 128,-1,7
 542 337 542 337 542 273 c 0,8,9
 542 207 542 207 523 154 c 128,-1,10
 504 101 504 101 470 64 c 128,-1,11
 436 27 436 27 387.5 7 c 128,-1,12
 339 -13 339 -13 280 -13 c 0,13,14
 215 -13 215 -13 164.5 -3.5 c 128,-1,15
 114 6 114 6 84 15 c 1,16,-1
 84 800 l 1,17,-1
 181 816 l 1,18,-1
 181 527 l 1,0,1
181 85 m 1,19,20
 203 79 203 79 226 76 c 128,-1,21
 249 73 249 73 269 73 c 0,22,23
 350 73 350 73 396 123 c 128,-1,24
 442 173 442 173 442 273 c 0,25,26
 442 315 442 315 433.5 352.5 c 128,-1,27
 425 390 425 390 407.5 416.5 c 128,-1,28
 390 443 390 443 362.5 458 c 128,-1,29
 335 473 335 473 296 473 c 0,30,31
 262 473 262 473 230 459.5 c 128,-1,32
 198 446 198 446 181 431 c 1,33,-1
 181 85 l 1,19,20
EndSplineSet
Substitution2: "'case' Case-Sensitive Forms lookup 18 subtable" B
EndChar

StartChar: c
Encoding: 99 99 70
Width: 588
VWidth: 1177
Flags: W
LayerCount: 2
Fore
SplineSet
58 272 m 0,0,1
 58 346 58 346 81.5 400.5 c 128,-1,2
 105 455 105 455 146 490 c 128,-1,3
 187 525 187 525 242 542 c 128,-1,4
 297 559 297 559 359 559 c 0,5,6
 399 559 399 559 438.5 554 c 128,-1,7
 478 549 478 549 523 535 c 1,8,-1
 501 451 l 1,9,10
 462 465 462 465 429.5 469 c 128,-1,11
 397 473 397 473 364 473 c 0,12,13
 322 473 322 473 284 462 c 128,-1,14
 246 451 246 451 218.5 427 c 128,-1,15
 191 403 191 403 174.5 364.5 c 128,-1,16
 158 326 158 326 158 272 c 0,17,18
 158 220 158 220 173 183 c 128,-1,19
 188 146 188 146 216 122 c 128,-1,20
 244 98 244 98 283 86 c 128,-1,21
 322 74 322 74 369 74 c 0,22,23
 407 74 407 74 441.5 78 c 128,-1,24
 476 82 476 82 517 97 c 1,25,-1
 531 15 l 1,26,27
 490 0 490 0 447.5 -6.5 c 128,-1,28
 405 -13 405 -13 356 -13 c 0,29,30
 290 -13 290 -13 235 5.5 c 128,-1,31
 180 24 180 24 140.5 59 c 128,-1,32
 101 94 101 94 79.5 147.5 c 128,-1,33
 58 201 58 201 58 272 c 0,0,1
EndSplineSet
Substitution2: "'case' Case-Sensitive Forms lookup 18 subtable" C
EndChar

StartChar: d
Encoding: 100 100 71
Width: 588
VWidth: 1177
Flags: W
LayerCount: 2
Fore
SplineSet
408 431 m 1,0,1
 392 446 392 446 359.5 459.5 c 128,-1,2
 327 473 327 473 293 473 c 0,3,4
 254 473 254 473 226.5 458 c 128,-1,5
 199 443 199 443 181.5 416.5 c 128,-1,6
 164 390 164 390 155.5 353 c 128,-1,7
 147 316 147 316 147 273 c 0,8,9
 147 178 147 178 192 126 c 128,-1,10
 237 74 237 74 309 74 c 0,11,12
 346 74 346 74 371 77.5 c 128,-1,13
 396 81 396 81 408 85 c 1,14,-1
 408 431 l 1,0,1
408 800 m 1,15,-1
 505 816 l 1,16,-1
 505 15 l 1,17,18
 473 6 473 6 424 -3.5 c 128,-1,19
 375 -13 375 -13 309 -13 c 0,20,21
 250 -13 250 -13 201.5 7 c 128,-1,22
 153 27 153 27 119 64 c 128,-1,23
 85 101 85 101 66 154 c 128,-1,24
 47 207 47 207 47 273 c 0,25,26
 47 337 47 337 63 389.5 c 128,-1,27
 79 442 79 442 109.5 479.5 c 128,-1,28
 140 517 140 517 183 538 c 128,-1,29
 226 559 226 559 282 559 c 0,30,31
 326 559 326 559 358.5 548.5 c 128,-1,32
 391 538 391 538 408 527 c 1,33,-1
 408 800 l 1,15,-1
EndSplineSet
Substitution2: "'case' Case-Sensitive Forms lookup 18 subtable" D
EndChar

StartChar: e
Encoding: 101 101 72
Width: 588
VWidth: 1177
Flags: W
LayerCount: 2
Fore
SplineSet
305 559 m 0,0,1
 416 559 416 559 476 490.5 c 128,-1,2
 536 422 536 422 536 282 c 2,3,-1
 536 247 l 1,4,-1
 145 247 l 1,5,6
 151 162 151 162 201 118 c 128,-1,7
 251 74 251 74 342 74 c 0,8,9
 394 74 394 74 430 82.5 c 128,-1,10
 466 91 466 91 485 100 c 1,11,-1
 498 18 l 1,12,13
 480 9 480 9 434.5 -2 c 128,-1,14
 389 -13 389 -13 331 -13 c 0,15,16
 260 -13 260 -13 206.5 9 c 128,-1,17
 153 31 153 31 117.5 68.5 c 128,-1,18
 82 106 82 106 64.5 158.5 c 128,-1,19
 47 211 47 211 47 272 c 0,20,21
 47 345 47 345 69.5 399 c 128,-1,22
 92 453 92 453 128.5 488.5 c 128,-1,23
 165 524 165 524 211 541.5 c 128,-1,24
 257 559 257 559 305 559 c 0,0,1
437 326 m 1,25,26
 437 395 437 395 400.5 436 c 128,-1,27
 364 477 364 477 304 477 c 0,28,29
 270 477 270 477 242 464 c 128,-1,30
 214 451 214 451 194 430 c 128,-1,31
 174 409 174 409 162.5 382 c 128,-1,32
 151 355 151 355 147 326 c 1,33,-1
 437 326 l 1,25,26
EndSplineSet
Substitution2: "'case' Case-Sensitive Forms lookup 18 subtable" E
EndChar

StartChar: f
Encoding: 102 102 73
Width: 588
VWidth: 1177
Flags: W
LayerCount: 2
Fore
SplineSet
190 0 m 1,0,-1
 190 465 l 1,1,-1
 74 465 l 1,2,-1
 74 547 l 1,3,-1
 190 547 l 1,4,-1
 190 596 l 2,5,6
 190 660 190 660 207.5 701.5 c 128,-1,7
 225 743 225 743 254 769 c 128,-1,8
 283 795 283 795 321 805.5 c 128,-1,9
 359 816 359 816 402 816 c 256,10,11
 444 816 444 816 487 806.5 c 128,-1,12
 530 797 530 797 568 784 c 1,13,-1
 550 701 l 1,14,15
 524 714 524 714 485 723.5 c 128,-1,16
 446 733 446 733 406 733 c 0,17,18
 381 733 381 733 359.5 726.5 c 128,-1,19
 338 720 338 720 321.5 704 c 128,-1,20
 305 688 305 688 295.5 661.5 c 128,-1,21
 286 635 286 635 286 595 c 2,22,-1
 286 547 l 1,23,-1
 506 547 l 1,24,-1
 506 465 l 1,25,-1
 286 465 l 1,26,-1
 286 0 l 1,27,-1
 190 0 l 1,0,-1
EndSplineSet
Substitution2: "'case' Case-Sensitive Forms lookup 18 subtable" F
EndChar

StartChar: g
Encoding: 103 103 74
Width: 588
VWidth: 1177
Flags: W
LayerCount: 2
Fore
SplineSet
408 51 m 1,0,1
 392 42 392 42 357.5 31 c 128,-1,2
 323 20 323 20 278 20 c 0,3,4
 230 20 230 20 188 36 c 128,-1,5
 146 52 146 52 115 84.5 c 128,-1,6
 84 117 84 117 65.5 167 c 128,-1,7
 47 217 47 217 47 285 c 0,8,9
 47 345 47 345 64 395 c 128,-1,10
 81 445 81 445 113.5 481.5 c 128,-1,11
 146 518 146 518 193 538.5 c 128,-1,12
 240 559 240 559 300 559 c 0,13,14
 371 559 371 559 421 549 c 128,-1,15
 471 539 471 539 505 530 c 1,16,-1
 505 42 l 2,17,18
 505 -85 505 -85 441 -141.5 c 128,-1,19
 377 -198 377 -198 247 -198 c 0,20,21
 194 -198 194 -198 151 -189.5 c 128,-1,22
 108 -181 108 -181 75 -170 c 1,23,-1
 93 -84 l 1,24,25
 124 -97 124 -97 163.5 -105 c 128,-1,26
 203 -113 203 -113 250 -113 c 0,27,28
 335 -113 335 -113 371.5 -79 c 128,-1,29
 408 -45 408 -45 408 32 c 2,30,-1
 408 51 l 1,0,1
408 461 m 1,31,32
 394 466 394 466 369 469.5 c 128,-1,33
 344 473 344 473 302 473 c 0,34,35
 227 473 227 473 187 421.5 c 128,-1,36
 147 370 147 370 147 284 c 0,37,38
 147 237 147 237 158.5 203.5 c 128,-1,39
 170 170 170 170 189 148 c 128,-1,40
 208 126 208 126 233 116 c 128,-1,41
 258 106 258 106 286 106 c 0,42,43
 323 106 323 106 355.5 116.5 c 128,-1,44
 388 127 388 127 408 141 c 1,45,-1
 408 461 l 1,31,32
EndSplineSet
Substitution2: "'case' Case-Sensitive Forms lookup 18 subtable" G
EndChar

StartChar: h
Encoding: 104 104 75
Width: 588
VWidth: 1177
Flags: W
LayerCount: 2
Fore
SplineSet
84 0 m 1,0,-1
 84 800 l 1,1,-1
 181 816 l 1,2,-1
 181 538 l 1,3,4
 205 547 205 547 234.5 552.5 c 128,-1,5
 264 558 264 558 292 558 c 0,6,7
 354 558 354 558 396 540 c 128,-1,8
 438 522 438 522 463 489 c 128,-1,9
 488 456 488 456 498.5 410 c 128,-1,10
 509 364 509 364 509 309 c 2,11,-1
 509 0 l 1,12,-1
 412 0 l 1,13,-1
 412 287 l 2,14,15
 412 388 412 388 384 430 c 128,-1,16
 356 472 356 472 283 472 c 0,17,18
 252 472 252 472 223 465.5 c 128,-1,19
 194 459 194 459 181 453 c 1,20,-1
 181 0 l 1,21,-1
 84 0 l 1,0,-1
EndSplineSet
Substitution2: "'case' Case-Sensitive Forms lookup 18 subtable" H
EndChar

StartChar: i
Encoding: 105 105 76
Width: 588
VWidth: 1177
Flags: W
LayerCount: 2
Fore
SplineSet
246 631 m 0,0,1
 215 631 215 631 193 652.5 c 128,-1,2
 171 674 171 674 171 710 c 256,3,4
 171 747 171 747 193.5 768 c 128,-1,5
 216 789 216 789 246 789 c 0,6,7
 278 789 278 789 300 768 c 128,-1,8
 322 747 322 747 322 710 c 256,9,10
 322 673 322 673 300 652 c 128,-1,11
 278 631 278 631 246 631 c 0,0,1
221 465 m 1,12,-1
 64 465 l 1,13,-1
 64 547 l 1,14,-1
 318 547 l 1,15,-1
 318 211 l 2,16,17
 318 130 318 130 340.5 102 c 128,-1,18
 363 74 363 74 408 74 c 0,19,20
 442 74 442 74 470.5 82.5 c 128,-1,21
 499 91 499 91 516 100 c 1,22,-1
 530 18 l 1,23,24
 523 14 523 14 510 9 c 128,-1,25
 497 4 497 4 480 -1 c 128,-1,26
 463 -6 463 -6 442.5 -9.5 c 128,-1,27
 422 -13 422 -13 399 -13 c 0,28,29
 347 -13 347 -13 313 1 c 128,-1,30
 279 15 279 15 258.5 43.5 c 128,-1,31
 238 72 238 72 229.5 113.5 c 128,-1,32
 221 155 221 155 221 211 c 2,33,-1
 221 465 l 1,12,-1
EndSplineSet
Substitution2: "'case' Case-Sensitive Forms lookup 18 subtable" I
Substitution2: "'locl' Localized Forms in Latin lookup 2 subtable" i.locl
Substitution2: "'locl' Localized Forms in Latin lookup 1 subtable" i.locl
Substitution2: "'locl' Localized Forms in Latin lookup 0 subtable" i.locl
EndChar

StartChar: j
Encoding: 106 106 77
Width: 588
VWidth: 1177
Flags: W
LayerCount: 2
Fore
SplineSet
363 631 m 0,0,1
 332 631 332 631 309.5 652.5 c 128,-1,2
 287 674 287 674 287 710 c 256,3,4
 287 747 287 747 309.5 768 c 128,-1,5
 332 789 332 789 363 789 c 0,6,7
 395 789 395 789 416.5 768 c 128,-1,8
 438 747 438 747 438 710 c 256,9,10
 438 673 438 673 416.5 652 c 128,-1,11
 395 631 395 631 363 631 c 0,0,1
134 465 m 1,12,-1
 134 547 l 1,13,-1
 452 547 l 1,14,-1
 452 6 l 2,15,16
 452 -51 452 -51 436 -90.5 c 128,-1,17
 420 -130 420 -130 393.5 -154.5 c 128,-1,18
 367 -179 367 -179 332.5 -189.5 c 128,-1,19
 298 -200 298 -200 259 -200 c 0,20,21
 214 -200 214 -200 169 -190.5 c 128,-1,22
 124 -181 124 -181 84 -161 c 1,23,-1
 113 -79 l 1,24,25
 142 -93 142 -93 178 -103 c 128,-1,26
 214 -113 214 -113 247 -113 c 0,27,28
 294 -113 294 -113 325 -89 c 128,-1,29
 356 -65 356 -65 356 5 c 2,30,-1
 356 465 l 1,31,-1
 134 465 l 1,12,-1
EndSplineSet
Substitution2: "'case' Case-Sensitive Forms lookup 18 subtable" J
EndChar

StartChar: k
Encoding: 107 107 78
Width: 588
VWidth: 1177
Flags: W
LayerCount: 2
Fore
SplineSet
280 300 m 1,0,1
 312 276 312 276 352 240.5 c 128,-1,2
 392 205 392 205 431.5 163.5 c 128,-1,3
 471 122 471 122 506.5 79.5 c 128,-1,4
 542 37 542 37 563 0 c 1,5,-1
 448 0 l 1,6,7
 426 37 426 37 392.5 75 c 128,-1,8
 359 113 359 113 322 148.5 c 128,-1,9
 285 184 285 184 248 213.5 c 128,-1,10
 211 243 211 243 181 263 c 1,11,-1
 181 0 l 1,12,-1
 84 0 l 1,13,-1
 84 800 l 1,14,-1
 181 816 l 1,15,-1
 181 318 l 1,16,17
 246 375 246 375 311 430.5 c 128,-1,18
 376 486 376 486 428 547 c 1,19,-1
 542 547 l 1,20,21
 491 487 491 487 419.5 423 c 128,-1,22
 348 359 348 359 280 300 c 1,0,1
EndSplineSet
Substitution2: "'case' Case-Sensitive Forms lookup 18 subtable" K
EndChar

StartChar: l
Encoding: 108 108 79
Width: 588
VWidth: 1177
Flags: W
LayerCount: 2
Fore
SplineSet
398 -13 m 0,0,1
 346 -13 346 -13 312 1 c 128,-1,2
 278 15 278 15 258 43.5 c 128,-1,3
 238 72 238 72 229.5 113.5 c 128,-1,4
 221 155 221 155 221 211 c 2,5,-1
 221 728 l 1,6,-1
 64 728 l 1,7,-1
 64 810 l 1,8,-1
 318 810 l 1,9,-1
 318 211 l 2,10,11
 318 170 318 170 323.5 144 c 128,-1,12
 329 118 329 118 340 102 c 128,-1,13
 351 86 351 86 367.5 80 c 128,-1,14
 384 74 384 74 406 74 c 0,15,16
 440 74 440 74 469.5 82.5 c 128,-1,17
 499 91 499 91 516 100 c 1,18,-1
 530 18 l 1,19,20
 523 14 523 14 510 9 c 128,-1,21
 497 4 497 4 479.5 -1 c 128,-1,22
 462 -6 462 -6 441 -9.5 c 128,-1,23
 420 -13 420 -13 398 -13 c 0,0,1
EndSplineSet
Substitution2: "'case' Case-Sensitive Forms lookup 18 subtable" L
EndChar

StartChar: m
Encoding: 109 109 80
Width: 588
VWidth: 1177
Flags: W
LayerCount: 2
Fore
SplineSet
48 531 m 1,0,1
 119 558 119 558 181 558 c 0,2,3
 215 558 215 558 245.5 548 c 128,-1,4
 276 538 276 538 297 517 c 1,5,6
 348 558 348 558 405 558 c 0,7,8
 433 558 433 558 458.5 547.5 c 128,-1,9
 484 537 484 537 503.5 516 c 128,-1,10
 523 495 523 495 535 463 c 128,-1,11
 547 431 547 431 547 389 c 2,12,-1
 547 0 l 1,13,-1
 458 0 l 1,14,-1
 458 391 l 2,15,16
 458 433 458 433 439 455.5 c 128,-1,17
 420 478 420 478 392 478 c 0,18,19
 378 478 378 478 362.5 471 c 128,-1,20
 347 464 347 464 335 449 c 1,21,22
 342 422 342 422 342 389 c 2,23,-1
 342 211 l 1,24,-1
 342 0 l 1,25,-1
 253 0 l 5,26,-1
 253 211 l 1,27,-1
 253 390 l 2,28,29
 253 431 253 431 240 454.5 c 128,-1,30
 227 478 227 478 190 478 c 0,31,32
 166 478 166 478 137 468 c 1,33,-1
 137 0 l 1,34,-1
 48 0 l 1,35,-1
 48 531 l 1,0,1
EndSplineSet
Substitution2: "'case' Case-Sensitive Forms lookup 18 subtable" M
EndChar

StartChar: n
Encoding: 110 110 81
Width: 588
VWidth: 1177
Flags: W
LayerCount: 2
Fore
SplineSet
84 531 m 1,0,1
 137 544 137 544 189 551 c 128,-1,2
 241 558 241 558 287 558 c 0,3,4
 397 558 397 558 453 501.5 c 128,-1,5
 509 445 509 445 509 320 c 2,6,-1
 509 0 l 1,7,-1
 412 0 l 1,8,-1
 412 303 l 2,9,10
 412 356 412 356 402.5 389 c 128,-1,11
 393 422 393 422 376 440 c 128,-1,12
 359 458 359 458 335 465 c 128,-1,13
 311 472 311 472 283 472 c 0,14,15
 259 472 259 472 232.5 469 c 128,-1,16
 206 466 206 466 181 462 c 1,17,-1
 181 0 l 1,18,-1
 84 0 l 1,19,-1
 84 531 l 1,0,1
EndSplineSet
Substitution2: "'case' Case-Sensitive Forms lookup 18 subtable" N
EndChar

StartChar: o
Encoding: 111 111 82
Width: 588
VWidth: 1177
Flags: W
LayerCount: 2
Fore
SplineSet
542 273 m 256,0,1
 542 208 542 208 523.5 156 c 128,-1,2
 505 104 505 104 472 66 c 128,-1,3
 439 28 439 28 393 7.5 c 128,-1,4
 347 -13 347 -13 293 -13 c 0,5,6
 240 -13 240 -13 195 7.5 c 128,-1,7
 150 28 150 28 117 66 c 128,-1,8
 84 104 84 104 65.5 156 c 128,-1,9
 47 208 47 208 47 273 c 256,10,11
 47 338 47 338 65.5 391 c 128,-1,12
 84 444 84 444 117 481 c 128,-1,13
 150 518 150 518 195 538.5 c 128,-1,14
 240 559 240 559 293 559 c 0,15,16
 347 559 347 559 393 538.5 c 128,-1,17
 439 518 439 518 472 481 c 128,-1,18
 505 444 505 444 523.5 391 c 128,-1,19
 542 338 542 338 542 273 c 256,0,1
442 273 m 0,20,21
 442 366 442 366 402 419.5 c 128,-1,22
 362 473 362 473 293 473 c 0,23,24
 226 473 226 473 186.5 419.5 c 128,-1,25
 147 366 147 366 147 273 c 0,26,27
 147 181 147 181 186.5 127.5 c 128,-1,28
 226 74 226 74 293 74 c 0,29,30
 361 74 361 74 401.5 127.5 c 128,-1,31
 442 181 442 181 442 273 c 0,20,21
EndSplineSet
Substitution2: "'case' Case-Sensitive Forms lookup 18 subtable" O
Substitution2: "'ordn' Ordinals in Latin lookup 7 subtable" ordmasculine
EndChar

StartChar: p
Encoding: 112 112 83
Width: 588
VWidth: 1177
Flags: W
LayerCount: 2
Fore
SplineSet
442 272 m 0,0,1
 442 367 442 367 397 419.5 c 128,-1,2
 352 472 352 472 280 472 c 0,3,4
 240 472 240 472 217 468.5 c 128,-1,5
 194 465 194 465 181 461 c 1,6,-1
 181 115 l 1,7,8
 197 100 197 100 229 87 c 128,-1,9
 261 74 261 74 296 74 c 0,10,11
 335 74 335 74 362.5 89.5 c 128,-1,12
 390 105 390 105 407.5 131.5 c 128,-1,13
 425 158 425 158 433.5 194 c 128,-1,14
 442 230 442 230 442 272 c 0,0,1
542 272 m 0,15,16
 542 210 542 210 526 157.5 c 128,-1,17
 510 105 510 105 480 67 c 128,-1,18
 450 29 450 29 406.5 8 c 128,-1,19
 363 -13 363 -13 307 -13 c 0,20,21
 263 -13 263 -13 230.5 -2.5 c 128,-1,22
 198 8 198 8 181 21 c 1,23,-1
 181 -194 l 1,24,-1
 84 -194 l 1,25,-1
 84 530 l 1,26,27
 116 539 116 539 166 548.5 c 128,-1,28
 216 558 216 558 280 558 c 0,29,30
 339 558 339 558 387.5 538 c 128,-1,31
 436 518 436 518 470 481 c 128,-1,32
 504 444 504 444 523 391 c 128,-1,33
 542 338 542 338 542 272 c 0,15,16
EndSplineSet
Substitution2: "'case' Case-Sensitive Forms lookup 18 subtable" P
EndChar

StartChar: q
Encoding: 113 113 84
Width: 588
VWidth: 1177
Flags: W
LayerCount: 2
Fore
SplineSet
147 272 m 0,0,1
 147 230 147 230 156 194 c 128,-1,2
 165 158 165 158 182.5 131.5 c 128,-1,3
 200 105 200 105 228 89.5 c 128,-1,4
 256 74 256 74 294 74 c 0,5,6
 328 74 328 74 360 87 c 128,-1,7
 392 100 392 100 409 115 c 1,8,-1
 409 461 l 1,9,10
 396 466 396 466 373 469 c 128,-1,11
 350 472 350 472 310 472 c 0,12,13
 238 472 238 472 192.5 419.5 c 128,-1,14
 147 367 147 367 147 272 c 0,0,1
47 272 m 0,15,16
 47 338 47 338 66 391 c 128,-1,17
 85 444 85 444 119 481 c 128,-1,18
 153 518 153 518 202 538 c 128,-1,19
 251 558 251 558 310 558 c 0,20,21
 374 558 374 558 422.5 548 c 128,-1,22
 471 538 471 538 505 529 c 1,23,-1
 505 -194 l 1,24,-1
 408 -194 l 1,25,-1
 408 21 l 1,26,27
 390 9 390 9 357 -2 c 128,-1,28
 324 -13 324 -13 283 -13 c 0,29,30
 228 -13 228 -13 184 8 c 128,-1,31
 140 29 140 29 110 67 c 128,-1,32
 80 105 80 105 63.5 157.5 c 128,-1,33
 47 210 47 210 47 272 c 0,15,16
EndSplineSet
Substitution2: "'case' Case-Sensitive Forms lookup 18 subtable" Q
EndChar

StartChar: r
Encoding: 114 114 85
Width: 588
VWidth: 1177
Flags: W
LayerCount: 2
Fore
SplineSet
126 0 m 1,0,-1
 126 517 l 1,1,2
 246 558 246 558 369 558 c 0,3,4
 407 558 407 558 441 555 c 128,-1,5
 475 552 475 552 516 543 c 1,6,-1
 498 457 l 1,7,8
 460 468 460 468 431.5 470.5 c 128,-1,9
 403 473 403 473 369 473 c 0,10,11
 297 473 297 473 223 453 c 1,12,-1
 223 0 l 1,13,-1
 126 0 l 1,0,-1
EndSplineSet
Substitution2: "'case' Case-Sensitive Forms lookup 18 subtable" R
EndChar

StartChar: s
Encoding: 115 115 86
Width: 588
VWidth: 1177
Flags: W
LayerCount: 2
Fore
SplineSet
413 137 m 0,0,1
 413 166 413 166 389 185 c 128,-1,2
 365 204 365 204 329 218 c 128,-1,3
 293 232 293 232 250.5 245.5 c 128,-1,4
 208 259 208 259 172.5 279 c 128,-1,5
 137 299 137 299 112.5 328.5 c 128,-1,6
 88 358 88 358 88 405 c 0,7,8
 88 471 88 471 142 515 c 128,-1,9
 196 559 196 559 310 559 c 0,10,11
 355 559 355 559 402.5 553 c 128,-1,12
 450 547 450 547 484 536 c 1,13,-1
 466 449 l 1,14,15
 457 454 457 454 440.5 459 c 128,-1,16
 424 464 424 464 403 468 c 128,-1,17
 382 472 382 472 357.5 474.5 c 128,-1,18
 333 477 333 477 311 477 c 0,19,20
 184 477 184 477 184 408 c 0,21,22
 184 383 184 383 208 366 c 128,-1,23
 232 349 232 349 268.5 334.5 c 128,-1,24
 305 320 305 320 347.5 305.5 c 128,-1,25
 390 291 390 291 426.5 270 c 128,-1,26
 463 249 463 249 487 218.5 c 128,-1,27
 511 188 511 188 511 143 c 0,28,29
 511 69 511 69 453.5 28 c 128,-1,30
 396 -13 396 -13 271 -13 c 0,31,32
 214 -13 214 -13 167 -3.5 c 128,-1,33
 120 6 120 6 78 25 c 1,34,-1
 97 113 l 1,35,36
 138 94 138 94 183.5 81.5 c 128,-1,37
 229 69 229 69 280 69 c 0,38,39
 413 70 413 70 413 137 c 0,0,1
EndSplineSet
Substitution2: "'case' Case-Sensitive Forms lookup 18 subtable" S
EndChar

StartChar: t
Encoding: 116 116 87
Width: 588
VWidth: 1177
Flags: W
LayerCount: 2
Fore
SplineSet
286 547 m 1,0,-1
 517 547 l 1,1,-1
 517 465 l 1,2,-1
 286 465 l 1,3,-1
 286 211 l 2,4,5
 286 170 286 170 292 144 c 128,-1,6
 298 118 298 118 311.5 102 c 128,-1,7
 325 86 325 86 346 80 c 128,-1,8
 367 74 367 74 398 74 c 0,9,10
 440 74 440 74 466 81 c 128,-1,11
 492 88 492 88 516 100 c 1,12,-1
 530 18 l 1,13,14
 514 11 514 11 478 -1 c 128,-1,15
 442 -13 442 -13 389 -13 c 0,16,17
 328 -13 328 -13 289 1 c 128,-1,18
 250 15 250 15 228 43.5 c 128,-1,19
 206 72 206 72 198 113.5 c 128,-1,20
 190 155 190 155 190 211 c 2,21,-1
 190 465 l 1,22,-1
 74 465 l 1,23,-1
 74 547 l 1,24,-1
 190 547 l 1,25,-1
 190 700 l 1,26,-1
 286 716 l 1,27,-1
 286 547 l 1,0,-1
EndSplineSet
Substitution2: "'case' Case-Sensitive Forms lookup 18 subtable" T
EndChar

StartChar: u
Encoding: 117 117 88
Width: 588
VWidth: 1177
Flags: W
LayerCount: 2
Fore
SplineSet
505 15 m 1,0,1
 473 7 473 7 421 -2.5 c 128,-1,2
 369 -12 369 -12 298 -12 c 0,3,4
 236 -12 236 -12 194.5 6.5 c 128,-1,5
 153 25 153 25 127 58.5 c 128,-1,6
 101 92 101 92 90.5 138 c 128,-1,7
 80 184 80 184 80 239 c 2,8,-1
 80 547 l 1,9,-1
 177 547 l 1,10,-1
 177 260 l 2,11,12
 177 159 177 159 207 116.5 c 128,-1,13
 237 74 237 74 307 74 c 0,14,15
 322 74 322 74 338.5 75.5 c 128,-1,16
 355 77 355 77 369 78.5 c 128,-1,17
 383 80 383 80 393.5 82 c 128,-1,18
 404 84 404 84 408 85 c 2,19,-1
 408 547 l 1,20,-1
 505 547 l 1,21,-1
 505 15 l 1,0,1
EndSplineSet
Substitution2: "'case' Case-Sensitive Forms lookup 18 subtable" U
EndChar

StartChar: v
Encoding: 118 118 89
Width: 588
VWidth: 1177
Flags: W
LayerCount: 2
Fore
SplineSet
554 547 m 1,0,1
 533 470 533 470 505.5 396.5 c 128,-1,2
 478 323 478 323 450 253 c 128,-1,3
 422 183 422 183 392.5 119 c 128,-1,4
 363 55 363 55 336 0 c 1,5,-1
 247 0 l 1,6,7
 192 111 192 111 135.5 252 c 128,-1,8
 79 393 79 393 35 547 c 1,9,-1
 141 547 l 1,10,11
 155 495 155 495 173.5 437 c 128,-1,12
 192 379 192 379 212 321.5 c 128,-1,13
 232 264 232 264 252.5 210.5 c 128,-1,14
 273 157 273 157 293 114 c 1,15,16
 313 156 313 156 335 210 c 128,-1,17
 357 264 357 264 378 321.5 c 128,-1,18
 399 379 399 379 418.5 437 c 128,-1,19
 438 495 438 495 452 547 c 1,20,-1
 554 547 l 1,0,1
EndSplineSet
Substitution2: "'case' Case-Sensitive Forms lookup 18 subtable" V
EndChar

StartChar: w
Encoding: 119 119 90
Width: 588
VWidth: 1177
Flags: W
LayerCount: 2
Fore
SplineSet
404 0 m 1,0,1
 386 40 386 40 373 73 c 128,-1,2
 360 106 360 106 348 139 c 128,-1,3
 336 172 336 172 323.5 208 c 128,-1,4
 311 244 311 244 294 290 c 1,5,6
 278 244 278 244 265 208 c 128,-1,7
 252 172 252 172 239.5 139 c 128,-1,8
 227 106 227 106 213.5 73 c 128,-1,9
 200 40 200 40 183 0 c 1,10,-1
 110 0 l 1,11,12
 77 145 77 145 55 287 c 128,-1,13
 33 429 33 429 22 547 c 1,14,-1
 114 547 l 1,15,16
 118 501 118 501 122 456.5 c 128,-1,17
 126 412 126 412 132 364 c 128,-1,18
 138 316 138 316 145.5 259.5 c 128,-1,19
 153 203 153 203 163 132 c 1,20,21
 182 179 182 179 194.5 214.5 c 128,-1,22
 207 250 207 250 218 281.5 c 128,-1,23
 229 313 229 313 239 346 c 128,-1,24
 249 379 249 379 260 420 c 1,25,-1
 333 420 l 1,26,27
 345 379 345 379 354.5 346 c 128,-1,28
 364 313 364 313 374.5 281.5 c 128,-1,29
 385 250 385 250 397 214.5 c 128,-1,30
 409 179 409 179 426 133 c 1,31,32
 437 198 437 198 445 253.5 c 128,-1,33
 453 309 453 309 459 357.5 c 128,-1,34
 465 406 465 406 470 452 c 128,-1,35
 475 498 475 498 478 547 c 1,36,-1
 567 547 l 1,37,38
 561 488 561 488 552.5 420.5 c 128,-1,39
 544 353 544 353 532.5 282.5 c 128,-1,40
 521 212 521 212 506.5 139.5 c 128,-1,41
 492 67 492 67 477 0 c 1,42,-1
 404 0 l 1,0,1
EndSplineSet
Substitution2: "'case' Case-Sensitive Forms lookup 18 subtable" W
EndChar

StartChar: x
Encoding: 120 120 91
Width: 588
VWidth: 1177
Flags: W
LayerCount: 2
Fore
SplineSet
448 0 m 1,0,1
 436 24 436 24 419 52 c 128,-1,2
 402 80 402 80 382 110 c 128,-1,3
 362 140 362 140 340 169.5 c 128,-1,4
 318 199 318 199 297 225 c 1,5,6
 276 198 276 198 252.5 168.5 c 128,-1,7
 229 139 229 139 207 109 c 128,-1,8
 185 79 185 79 166 50.5 c 128,-1,9
 147 22 147 22 134 0 c 1,10,-1
 34 0 l 1,11,12
 73 71 73 71 129 145.5 c 128,-1,13
 185 220 185 220 239 287 c 1,14,-1
 42 547 l 1,15,-1
 152 547 l 1,16,-1
 299 356 l 1,17,-1
 435 547 l 1,18,-1
 538 547 l 1,19,-1
 358 293 l 1,20,21
 411 224 411 224 464.5 148.5 c 128,-1,22
 518 73 518 73 556 0 c 1,23,-1
 448 0 l 1,0,1
EndSplineSet
Substitution2: "'case' Case-Sensitive Forms lookup 18 subtable" X
EndChar

StartChar: y
Encoding: 121 121 92
Width: 588
VWidth: 1177
Flags: W
LayerCount: 2
Fore
SplineSet
60 -102 m 1,0,1
 71 -108 71 -108 90.5 -111.5 c 128,-1,2
 110 -115 110 -115 126 -115 c 0,3,4
 184 -115 184 -115 216.5 -90 c 128,-1,5
 249 -65 249 -65 276 -7 c 1,6,7
 210 118 210 118 152 261 c 128,-1,8
 94 404 94 404 57 547 c 1,9,-1
 163 547 l 1,10,11
 175 500 175 500 190.5 445 c 128,-1,12
 206 390 206 390 226 332 c 128,-1,13
 246 274 246 274 269 216 c 128,-1,14
 292 158 292 158 318 105 c 1,15,16
 337 159 337 159 353.5 212 c 128,-1,17
 370 265 370 265 384 318.5 c 128,-1,18
 398 372 398 372 412 428 c 128,-1,19
 426 484 426 484 442 547 c 1,20,-1
 543 547 l 1,21,22
 505 394 505 394 458.5 250 c 128,-1,23
 412 106 412 106 359 -16 c 0,24,25
 339 -63 339 -63 316 -97.5 c 128,-1,26
 293 -132 293 -132 266 -154.5 c 128,-1,27
 239 -177 239 -177 205 -187.5 c 128,-1,28
 171 -198 171 -198 127 -198 c 0,29,30
 105 -198 105 -198 78.5 -192 c 128,-1,31
 52 -186 52 -186 42 -181 c 1,32,-1
 60 -102 l 1,0,1
EndSplineSet
Substitution2: "'case' Case-Sensitive Forms lookup 18 subtable" Y
EndChar

StartChar: z
Encoding: 122 122 93
Width: 588
VWidth: 1177
Flags: W
LayerCount: 2
Fore
SplineSet
495 473 m 1,0,1
 474 448 474 448 437 404 c 128,-1,2
 400 360 400 360 358.5 306.5 c 128,-1,3
 317 253 317 253 275.5 194 c 128,-1,4
 234 135 234 135 203 82 c 1,5,-1
 503 82 l 1,6,-1
 503 0 l 1,7,-1
 86 0 l 1,8,-1
 86 65 l 1,9,10
 111 112 111 112 148 168 c 128,-1,11
 185 224 185 224 225 278.5 c 128,-1,12
 265 333 265 333 303.5 382.5 c 128,-1,13
 342 432 342 432 370 465 c 1,14,-1
 101 465 l 1,15,-1
 101 547 l 1,16,-1
 495 547 l 1,17,-1
 495 473 l 1,0,1
EndSplineSet
Substitution2: "'case' Case-Sensitive Forms lookup 18 subtable" Z
EndChar

StartChar: braceleft
Encoding: 123 123 94
Width: 588
VWidth: 1177
Flags: W
LayerCount: 2
Fore
SplineSet
93 352 m 1,0,-1
 140 352 l 2,1,2
 160 352 160 352 175.5 361 c 128,-1,3
 191 370 191 370 201 384.5 c 128,-1,4
 211 399 211 399 216 417.5 c 128,-1,5
 221 436 221 436 221 455 c 2,6,-1
 221 644 l 2,7,8
 221 688 221 688 230 721 c 128,-1,9
 239 754 239 754 260.5 777 c 128,-1,10
 282 800 282 800 317.5 811.5 c 128,-1,11
 353 823 353 823 408 823 c 2,12,-1
 503 823 l 1,13,-1
 503 747 l 1,14,-1
 403 747 l 2,15,16
 354 747 354 747 333 724.5 c 128,-1,17
 312 702 312 702 312 643 c 2,18,-1
 312 481 l 2,19,20
 312 402 312 402 288.5 364.5 c 128,-1,21
 265 327 265 327 234 314 c 1,22,23
 265 300 265 300 288.5 261.5 c 128,-1,24
 312 223 312 223 312 148 c 2,25,-1
 312 -14 l 2,26,27
 312 -73 312 -73 333.5 -95.5 c 128,-1,28
 355 -118 355 -118 404 -118 c 2,29,-1
 503 -118 l 1,30,-1
 503 -194 l 1,31,-1
 408 -194 l 2,32,33
 354 -194 354 -194 318 -182.5 c 128,-1,34
 282 -171 282 -171 260.5 -148 c 128,-1,35
 239 -125 239 -125 230 -92 c 128,-1,36
 221 -59 221 -59 221 -15 c 2,37,-1
 221 174 l 2,38,39
 221 192 221 192 216 210.5 c 128,-1,40
 211 229 211 229 201 243.5 c 128,-1,41
 191 258 191 258 176 267.5 c 128,-1,42
 161 277 161 277 141 277 c 2,43,-1
 93 277 l 1,44,-1
 93 352 l 1,0,-1
EndSplineSet
Substitution2: "'case' Case-Sensitive Forms lookup 17 subtable" Braceleft
EndChar

StartChar: bar
Encoding: 124 124 95
Width: 588
VWidth: 1177
Flags: W
LayerCount: 2
Fore
SplineSet
250 823 m 1,0,-1
 340 823 l 1,1,-1
 340 -194 l 1,2,-1
 250 -194 l 1,3,-1
 250 823 l 1,0,-1
EndSplineSet
EndChar

StartChar: braceright
Encoding: 125 125 96
Width: 588
VWidth: 1177
Flags: W
LayerCount: 2
Fore
SplineSet
496 277 m 1,0,-1
 449 277 l 2,1,2
 429 277 429 277 414 268 c 128,-1,3
 399 259 399 259 389 244.5 c 128,-1,4
 379 230 379 230 374 211.5 c 128,-1,5
 369 193 369 193 369 174 c 2,6,-1
 369 -15 l 2,7,8
 369 -59 369 -59 360 -92 c 128,-1,9
 351 -125 351 -125 329 -148 c 128,-1,10
 307 -171 307 -171 271.5 -182.5 c 128,-1,11
 236 -194 236 -194 181 -194 c 2,12,-1
 86 -194 l 1,13,-1
 86 -118 l 1,14,-1
 186 -118 l 2,15,16
 235 -118 235 -118 256 -95.5 c 128,-1,17
 277 -73 277 -73 277 -14 c 2,18,-1
 277 148 l 2,19,20
 277 227 277 227 300.5 264.5 c 128,-1,21
 324 302 324 302 355 314 c 1,22,23
 324 328 324 328 300.5 367 c 128,-1,24
 277 406 277 406 277 481 c 2,25,-1
 277 643 l 2,26,27
 277 702 277 702 255.5 724.5 c 128,-1,28
 234 747 234 747 185 747 c 2,29,-1
 86 747 l 1,30,-1
 86 823 l 1,31,-1
 181 823 l 2,32,33
 235 823 235 823 271 811.5 c 128,-1,34
 307 800 307 800 329 777 c 128,-1,35
 351 754 351 754 360 721 c 128,-1,36
 369 688 369 688 369 644 c 2,37,-1
 369 455 l 2,38,39
 369 437 369 437 373.5 418.5 c 128,-1,40
 378 400 378 400 388 385.5 c 128,-1,41
 398 371 398 371 413 361.5 c 128,-1,42
 428 352 428 352 448 352 c 2,43,-1
 496 352 l 1,44,-1
 496 277 l 1,0,-1
EndSplineSet
Substitution2: "'case' Case-Sensitive Forms lookup 17 subtable" Braceright
EndChar

StartChar: asciitilde
Encoding: 126 126 97
Width: 588
VWidth: 1177
Flags: W
LayerCount: 2
Fore
SplineSet
545 370 m 1,0,1
 541 350 541 350 532.5 324 c 128,-1,2
 524 298 524 298 507 275.5 c 128,-1,3
 490 253 490 253 464 238 c 128,-1,4
 438 223 438 223 402 223 c 0,5,6
 370 223 370 223 343.5 235 c 128,-1,7
 317 247 317 247 292 263 c 0,8,9
 264 279 264 279 238 295.5 c 128,-1,10
 212 312 212 312 181 312 c 0,11,12
 165 312 165 312 153 304.5 c 128,-1,13
 141 297 141 297 133.5 285 c 128,-1,14
 126 273 126 273 120 258.5 c 128,-1,15
 114 244 114 244 111 231 c 1,16,-1
 44 250 l 1,17,18
 48 270 48 270 57 296 c 128,-1,19
 66 322 66 322 82.5 344 c 128,-1,20
 99 366 99 366 124.5 381.5 c 128,-1,21
 150 397 150 397 187 397 c 0,22,23
 219 397 219 397 245.5 384.5 c 128,-1,24
 272 372 272 372 297 357 c 0,25,26
 325 341 325 341 351.5 324 c 128,-1,27
 378 307 378 307 408 307 c 0,28,29
 424 307 424 307 436 315 c 128,-1,30
 448 323 448 323 455.5 334.5 c 128,-1,31
 463 346 463 346 469 361 c 128,-1,32
 475 376 475 376 478 389 c 1,33,-1
 545 370 l 1,0,1
EndSplineSet
EndChar

StartChar: Euro
Encoding: 8364 8364 98
Width: 588
VWidth: 1177
Flags: W
LayerCount: 2
Fore
SplineSet
125 496 m 1,0,1
 146 621 146 621 214 681.5 c 128,-1,2
 282 742 282 742 393 742 c 0,3,4
 440 742 440 742 470.5 736 c 128,-1,5
 501 730 501 730 529 720 c 1,6,-1
 510 637 l 1,7,8
 485 646 485 646 455 652 c 128,-1,9
 425 658 425 658 393 658 c 0,10,11
 313 658 313 658 275.5 614 c 128,-1,12
 238 570 238 570 226 496 c 1,13,-1
 461 496 l 1,14,-1
 446 420 l 1,15,-1
 216 420 l 1,16,17
 215 407 215 407 214.5 393.5 c 128,-1,18
 214 380 214 380 214 365 c 0,19,20
 214 352 214 352 214 339 c 128,-1,21
 214 326 214 326 216 314 c 1,22,-1
 426 314 l 1,23,-1
 412 239 l 1,24,-1
 224 239 l 1,25,26
 239 145 239 145 282 108.5 c 128,-1,27
 325 72 325 72 396 72 c 0,28,29
 441 72 441 72 472.5 79.5 c 128,-1,30
 504 87 504 87 529 100 c 1,31,-1
 550 16 l 1,32,33
 532 7 532 7 488 -3.5 c 128,-1,34
 444 -14 444 -14 390 -14 c 0,35,36
 268 -14 268 -14 203.5 53 c 128,-1,37
 139 120 139 120 122 239 c 1,38,-1
 42 239 l 1,39,-1
 42 314 l 1,40,-1
 114 314 l 1,41,42
 113 326 113 326 113 339 c 128,-1,43
 113 352 113 352 113 365 c 0,44,45
 113 380 113 380 113 394 c 128,-1,46
 113 408 113 408 114 420 c 1,47,-1
 42 420 l 1,48,-1
 42 496 l 1,49,-1
 125 496 l 1,0,1
EndSplineSet
EndChar

StartChar: quotesinglbase
Encoding: 8218 8218 99
Width: 588
VWidth: 1177
Flags: W
LayerCount: 2
Fore
SplineSet
174 -93 m 1,0,1
 195 -88 195 -88 216 -83.5 c 128,-1,2
 237 -79 237 -79 254.5 -70 c 128,-1,3
 272 -61 272 -61 286 -47.5 c 128,-1,4
 300 -34 300 -34 309 -11 c 1,5,6
 271 -7 271 -7 254 18.5 c 128,-1,7
 237 44 237 44 237 68 c 0,8,9
 237 115 237 115 264 139.5 c 128,-1,10
 291 164 291 164 324 164 c 0,11,12
 368 164 368 164 390 132.5 c 128,-1,13
 412 101 412 101 412 57 c 0,14,15
 412 23 412 23 398.5 -14.5 c 128,-1,16
 385 -52 385 -52 357.5 -84.5 c 128,-1,17
 330 -117 330 -117 288.5 -140 c 128,-1,18
 247 -163 247 -163 192 -170 c 1,19,-1
 174 -93 l 1,0,1
EndSplineSet
EndChar

StartChar: florin
Encoding: 402 402 100
Width: 588
VWidth: 1177
Flags: W
LayerCount: 2
Fore
SplineSet
74 465 m 1,0,-1
 74 547 l 1,1,-1
 190 547 l 1,2,-1
 190 596 l 2,3,4
 190 660 190 660 207.5 701.5 c 128,-1,5
 225 743 225 743 254 769 c 128,-1,6
 283 795 283 795 321 805.5 c 128,-1,7
 359 816 359 816 402 816 c 256,8,9
 444 816 444 816 487 806.5 c 128,-1,10
 530 797 530 797 568 784 c 1,11,-1
 550 701 l 1,12,13
 524 714 524 714 485 723.5 c 128,-1,14
 446 733 446 733 406 733 c 0,15,16
 381 733 381 733 359.5 726.5 c 128,-1,17
 338 720 338 720 321.5 704 c 128,-1,18
 305 688 305 688 295.5 661.5 c 128,-1,19
 286 635 286 635 286 595 c 2,20,-1
 286 547 l 1,21,-1
 506 547 l 1,22,-1
 506 465 l 1,23,-1
 286 465 l 1,24,-1
 286 4 l 2,25,26
 286 -53 286 -53 270 -92 c 128,-1,27
 254 -131 254 -131 227.5 -155 c 128,-1,28
 201 -179 201 -179 166 -189.5 c 128,-1,29
 131 -200 131 -200 93 -200 c 0,30,31
 60 -200 60 -200 42.5 -196.5 c 128,-1,32
 25 -193 25 -193 8 -190 c 1,33,-1
 29 -106 l 1,34,35
 54 -115 54 -115 81 -115 c 0,36,37
 127 -115 127 -115 158.5 -90 c 128,-1,38
 190 -65 190 -65 190 5 c 2,39,-1
 190 465 l 1,40,-1
 74 465 l 1,0,-1
EndSplineSet
EndChar

StartChar: quotedblbase
Encoding: 8222 8222 101
Width: 588
VWidth: 1177
Flags: W
LayerCount: 2
Fore
SplineSet
49 -87 m 1,0,1
 89 -79 89 -79 123 -66 c 128,-1,2
 157 -53 157 -53 172 -12 c 1,3,4
 138 -8 138 -8 121 15 c 128,-1,5
 104 38 104 38 104 65 c 0,6,7
 104 94 104 94 123.5 118.5 c 128,-1,8
 143 143 143 143 181 143 c 0,9,10
 215 143 215 143 240.5 120 c 128,-1,11
 266 97 266 97 266 45 c 0,12,13
 266 11 266 11 256 -21.5 c 128,-1,14
 246 -54 246 -54 223 -81 c 128,-1,15
 200 -108 200 -108 162 -128 c 128,-1,16
 124 -148 124 -148 66 -155 c 1,17,-1
 49 -87 l 1,0,1
323 -87 m 1,18,19
 343 -82 343 -82 361.5 -78 c 128,-1,20
 380 -74 380 -74 396.5 -66 c 128,-1,21
 413 -58 413 -58 426 -45.5 c 128,-1,22
 439 -33 439 -33 446 -12 c 1,23,24
 412 -8 412 -8 395 15 c 128,-1,25
 378 38 378 38 378 65 c 0,26,27
 378 94 378 94 397 118.5 c 128,-1,28
 416 143 416 143 456 143 c 0,29,30
 490 143 490 143 514.5 120 c 128,-1,31
 539 97 539 97 539 45 c 0,32,33
 539 11 539 11 529 -21.5 c 128,-1,34
 519 -54 519 -54 496 -81 c 128,-1,35
 473 -108 473 -108 435 -128 c 128,-1,36
 397 -148 397 -148 339 -155 c 1,37,-1
 323 -87 l 1,18,19
EndSplineSet
EndChar

StartChar: ellipsis
Encoding: 8230 8230 102
Width: 588
VWidth: 1177
Flags: W
LayerCount: 2
Fore
SplineSet
161 49 m 256,0,1
 161 23 161 23 144 4.5 c 128,-1,2
 127 -14 127 -14 99 -14 c 256,3,4
 71 -14 71 -14 54 5 c 128,-1,5
 37 24 37 24 37 49 c 256,6,7
 37 75 37 75 54 94 c 128,-1,8
 71 113 71 113 99 113 c 256,9,10
 127 113 127 113 144 94 c 128,-1,11
 161 75 161 75 161 49 c 256,0,1
357 49 m 256,12,13
 357 23 357 23 340.5 4.5 c 128,-1,14
 324 -14 324 -14 296 -14 c 256,15,16
 268 -14 268 -14 251 5 c 128,-1,17
 234 24 234 24 234 49 c 256,18,19
 234 75 234 75 250.5 94 c 128,-1,20
 267 113 267 113 296 113 c 256,21,22
 324 113 324 113 340.5 94 c 128,-1,23
 357 75 357 75 357 49 c 256,12,13
552 49 m 256,24,25
 552 23 552 23 535.5 4.5 c 128,-1,26
 519 -14 519 -14 491 -14 c 256,27,28
 463 -14 463 -14 446.5 5 c 128,-1,29
 430 24 430 24 430 49 c 256,30,31
 430 75 430 75 446.5 94 c 128,-1,32
 463 113 463 113 491 113 c 256,33,34
 519 113 519 113 535.5 94 c 128,-1,35
 552 75 552 75 552 49 c 256,24,25
EndSplineSet
EndChar

StartChar: dagger
Encoding: 8224 8224 103
Width: 588
VWidth: 1177
Flags: W
LayerCount: 2
Fore
SplineSet
337 419 m 1,0,-1
 337 152 l 2,1,2
 337 64 337 64 333 -8 c 128,-1,3
 329 -80 329 -80 319 -152 c 1,4,-1
 271 -152 l 1,5,6
 262 -80 262 -80 257 -8 c 128,-1,7
 252 64 252 64 252 152 c 2,8,-1
 252 419 l 1,9,-1
 85 419 l 1,10,-1
 85 501 l 1,11,-1
 252 501 l 1,12,-1
 252 729 l 1,13,-1
 337 729 l 1,14,-1
 337 501 l 1,15,-1
 504 501 l 1,16,-1
 504 419 l 1,17,-1
 337 419 l 1,0,-1
EndSplineSet
EndChar

StartChar: daggerdbl
Encoding: 8225 8225 104
Width: 588
VWidth: 1177
Flags: W
LayerCount: 2
Fore
SplineSet
337 141 m 1,0,1
 337 55 337 55 332 -13.5 c 128,-1,2
 327 -82 327 -82 319 -152 c 1,3,-1
 271 -152 l 1,4,5
 262 -83 262 -83 257 -14 c 128,-1,6
 252 55 252 55 252 141 c 1,7,-1
 85 141 l 1,8,-1
 85 221 l 1,9,-1
 252 221 l 1,10,-1
 252 419 l 1,11,-1
 85 419 l 1,12,-1
 85 501 l 1,13,-1
 252 501 l 1,14,-1
 252 729 l 1,15,-1
 337 729 l 1,16,-1
 337 501 l 1,17,-1
 504 501 l 1,18,-1
 504 419 l 1,19,-1
 337 419 l 1,20,-1
 337 221 l 1,21,-1
 504 221 l 1,22,-1
 504 141 l 1,23,-1
 337 141 l 1,0,1
EndSplineSet
EndChar

StartChar: circumflex
Encoding: 710 710 105
Width: 588
VWidth: 1177
Flags: W
LayerCount: 2
Fore
SplineSet
294 809 m 1,0,-1
 437 658 l 1,1,-1
 397 612 l 1,2,-1
 294 704 l 1,3,-1
 192 612 l 1,4,-1
 152 658 l 1,5,-1
 294 809 l 1,0,-1
EndSplineSet
EndChar

StartChar: perthousand
Encoding: 8240 8240 106
Width: 588
VWidth: 1177
Flags: W
LayerCount: 2
Fore
SplineSet
82 583 m 256,0,1
 82 523 82 523 90 500 c 128,-1,2
 98 477 98 477 113 477 c 256,3,4
 128 477 128 477 136.5 500 c 128,-1,5
 145 523 145 523 145 583 c 256,6,7
 145 643 145 643 136.5 665.5 c 128,-1,8
 128 688 128 688 113 688 c 256,9,10
 98 688 98 688 90 665.5 c 128,-1,11
 82 643 82 643 82 583 c 256,0,1
20 583 m 0,12,13
 20 744 20 744 112 744 c 0,14,15
 207 744 207 744 207 583 c 0,16,17
 207 420 207 420 113 420 c 0,18,19
 20 420 20 420 20 583 c 0,12,13
211 146 m 256,20,21
 211 86 211 86 219 63.5 c 128,-1,22
 227 41 227 41 243 41 c 256,23,24
 259 41 259 41 267.5 63.5 c 128,-1,25
 276 86 276 86 276 146 c 256,26,27
 276 206 276 206 267.5 228.5 c 128,-1,28
 259 251 259 251 243 251 c 0,29,30
 228 251 228 251 219.5 228.5 c 128,-1,31
 211 206 211 206 211 146 c 256,20,21
151 146 m 0,32,33
 151 309 151 309 241 309 c 0,34,35
 336 309 336 309 337 146 c 0,36,37
 337 -15 337 -15 244 -15 c 256,38,39
 151 -15 151 -15 151 146 c 0,32,33
444 146 m 256,40,41
 444 86 444 86 452.5 63.5 c 128,-1,42
 461 41 461 41 476 41 c 256,43,44
 491 41 491 41 499.5 63.5 c 128,-1,45
 508 86 508 86 508 146 c 256,46,47
 508 206 508 206 499.5 228.5 c 128,-1,48
 491 251 491 251 476 251 c 256,49,50
 461 251 461 251 452.5 228.5 c 128,-1,51
 444 206 444 206 444 146 c 256,40,41
383 146 m 0,52,53
 383 309 383 309 475 309 c 0,54,55
 569 309 569 309 569 146 c 0,56,57
 569 -15 569 -15 477 -15 c 0,58,59
 383 -15 383 -15 383 146 c 0,52,53
45 241 m 1,60,-1
 11 294 l 1,61,-1
 544 643 l 1,62,-1
 578 590 l 1,63,-1
 45 241 l 1,60,-1
EndSplineSet
EndChar

StartChar: guilsinglleft
Encoding: 8249 8249 108
Width: 588
VWidth: 1177
Flags: W
LayerCount: 2
Fore
SplineSet
170 299 m 1,0,-1
 333 531 l 1,1,-1
 402 495 l 1,2,-1
 285 299 l 1,3,-1
 402 104 l 1,4,-1
 333 66 l 1,5,-1
 170 299 l 1,0,-1
EndSplineSet
Substitution2: "'case' Case-Sensitive Forms lookup 17 subtable" Guilsinglleft
EndChar

StartChar: OE
Encoding: 338 338 109
Width: 588
VWidth: 1177
Flags: W
LayerCount: 2
Fore
SplineSet
259 653 m 0,0,1
 227 653 227 653 202 631.5 c 128,-1,2
 177 610 177 610 160.5 571 c 128,-1,3
 144 532 144 532 135 477.5 c 128,-1,4
 126 423 126 423 126 355 c 0,5,6
 126 218 126 218 159.5 147.5 c 128,-1,7
 193 77 193 77 259 77 c 0,8,9
 283 77 283 77 294.5 80.5 c 128,-1,10
 306 84 306 84 310 85 c 2,11,-1
 310 644 l 1,12,13
 295 650 295 650 282.5 651.5 c 128,-1,14
 270 653 270 653 259 653 c 0,0,1
259 -7 m 0,15,16
 154 -7 154 -7 93 79.5 c 128,-1,17
 32 166 32 166 32 355 c 256,18,19
 32 543 32 543 93 639.5 c 128,-1,20
 154 736 154 736 260 736 c 0,21,22
 273 736 273 736 291 733.5 c 128,-1,23
 309 731 309 731 325 729 c 2,24,-1
 552 729 l 1,25,-1
 552 647 l 1,26,-1
 402 647 l 1,27,-1
 402 423 l 1,28,-1
 525 423 l 1,29,-1
 525 340 l 1,30,-1
 402 340 l 1,31,-1
 402 82 l 1,32,-1
 568 82 l 1,33,-1
 568 0 l 1,34,-1
 325 0 l 1,35,36
 291 -7 291 -7 259 -7 c 0,15,16
EndSplineSet
EndChar

StartChar: quoteleft
Encoding: 8216 8216 110
Width: 588
VWidth: 1177
Flags: W
LayerCount: 2
Fore
SplineSet
413 760 m 1,0,1
 392 755 392 755 371.5 750.5 c 128,-1,2
 351 746 351 746 333.5 737 c 128,-1,3
 316 728 316 728 301.5 714 c 128,-1,4
 287 700 287 700 279 677 c 1,5,6
 317 673 317 673 334 648 c 128,-1,7
 351 623 351 623 351 598 c 0,8,9
 351 551 351 551 324 527 c 128,-1,10
 297 503 297 503 264 503 c 0,11,12
 220 503 220 503 198 534 c 128,-1,13
 176 565 176 565 176 610 c 0,14,15
 176 644 176 644 189.5 681 c 128,-1,16
 203 718 203 718 230 750.5 c 128,-1,17
 257 783 257 783 298.5 806 c 128,-1,18
 340 829 340 829 396 836 c 1,19,-1
 413 760 l 1,0,1
EndSplineSet
EndChar

StartChar: quoteright
Encoding: 8217 8217 111
Width: 588
VWidth: 1177
Flags: W
LayerCount: 2
Fore
SplineSet
174 576 m 1,0,1
 195 581 195 581 216 585.5 c 128,-1,2
 237 590 237 590 254.5 599 c 128,-1,3
 272 608 272 608 286 621.5 c 128,-1,4
 300 635 300 635 309 658 c 1,5,6
 271 662 271 662 254 687.5 c 128,-1,7
 237 713 237 713 237 737 c 0,8,9
 237 784 237 784 264 808.5 c 128,-1,10
 291 833 291 833 324 833 c 0,11,12
 368 833 368 833 390 801.5 c 128,-1,13
 412 770 412 770 412 726 c 0,14,15
 412 692 412 692 398.5 654.5 c 128,-1,16
 385 617 385 617 357.5 584.5 c 128,-1,17
 330 552 330 552 288.5 529 c 128,-1,18
 247 506 247 506 192 499 c 1,19,-1
 174 576 l 1,0,1
EndSplineSet
EndChar

StartChar: quotedblleft
Encoding: 8220 8220 112
Width: 588
VWidth: 1177
Flags: W
LayerCount: 2
Fore
SplineSet
539 748 m 1,0,1
 519 743 519 743 500.5 739 c 128,-1,2
 482 735 482 735 466 726.5 c 128,-1,3
 450 718 450 718 437 706 c 128,-1,4
 424 694 424 694 417 673 c 1,5,6
 451 669 451 669 468 646 c 128,-1,7
 485 623 485 623 485 595 c 0,8,9
 485 566 485 566 465.5 541.5 c 128,-1,10
 446 517 446 517 408 517 c 0,11,12
 374 517 374 517 348.5 540.5 c 128,-1,13
 323 564 323 564 323 616 c 0,14,15
 323 649 323 649 333 682 c 128,-1,16
 343 715 343 715 366 742 c 128,-1,17
 389 769 389 769 427 789 c 128,-1,18
 465 809 465 809 523 816 c 1,19,-1
 539 748 l 1,0,1
267 748 m 1,20,21
 247 743 247 743 228.5 739 c 128,-1,22
 210 735 210 735 193.5 726.5 c 128,-1,23
 177 718 177 718 164 706 c 128,-1,24
 151 694 151 694 144 673 c 1,25,26
 178 669 178 669 195 646 c 128,-1,27
 212 623 212 623 212 595 c 0,28,29
 212 566 212 566 193 541.5 c 128,-1,30
 174 517 174 517 134 517 c 0,31,32
 100 517 100 517 75.5 540.5 c 128,-1,33
 51 564 51 564 51 616 c 0,34,35
 51 649 51 649 61 682 c 128,-1,36
 71 715 71 715 94 742 c 128,-1,37
 117 769 117 769 155 789 c 128,-1,38
 193 809 193 809 251 816 c 1,39,-1
 267 748 l 1,20,21
EndSplineSet
EndChar

StartChar: quotedblright
Encoding: 8221 8221 113
Width: 588
VWidth: 1177
Flags: W
LayerCount: 2
Fore
SplineSet
49 585 m 1,0,1
 69 590 69 590 88 594 c 128,-1,2
 107 598 107 598 123 606.5 c 128,-1,3
 139 615 139 615 152 628 c 128,-1,4
 165 641 165 641 172 662 c 1,5,6
 138 664 138 664 121 687.5 c 128,-1,7
 104 711 104 711 104 739 c 0,8,9
 104 768 104 768 123.5 792 c 128,-1,10
 143 816 143 816 181 816 c 0,11,12
 215 816 215 816 240.5 792.5 c 128,-1,13
 266 769 266 769 266 717 c 0,14,15
 266 683 266 683 256 650.5 c 128,-1,16
 246 618 246 618 223 591 c 128,-1,17
 200 564 200 564 162 544 c 128,-1,18
 124 524 124 524 66 517 c 1,19,-1
 49 585 l 1,0,1
322 585 m 1,20,21
 342 590 342 590 360.5 594 c 128,-1,22
 379 598 379 598 395.5 606.5 c 128,-1,23
 412 615 412 615 425 628 c 128,-1,24
 438 641 438 641 445 662 c 1,25,26
 411 664 411 664 394 687.5 c 128,-1,27
 377 711 377 711 377 739 c 0,28,29
 377 768 377 768 396 792 c 128,-1,30
 415 816 415 816 455 816 c 0,31,32
 489 816 489 816 513.5 792.5 c 128,-1,33
 538 769 538 769 538 717 c 0,34,35
 538 683 538 683 528 650.5 c 128,-1,36
 518 618 518 618 495 591 c 128,-1,37
 472 564 472 564 434 544 c 128,-1,38
 396 524 396 524 339 517 c 1,39,-1
 322 585 l 1,20,21
EndSplineSet
EndChar

StartChar: bullet
Encoding: 8226 8226 114
Width: 588
VWidth: 1177
Flags: W
LayerCount: 2
Fore
SplineSet
455 372 m 0,0,1
 455 338 455 338 443.5 307.5 c 128,-1,2
 432 277 432 277 411.5 254 c 128,-1,3
 391 231 391 231 361 217.5 c 128,-1,4
 331 204 331 204 294 204 c 0,5,6
 256 204 256 204 227 217.5 c 128,-1,7
 198 231 198 231 177.5 254 c 128,-1,8
 157 277 157 277 145.5 307.5 c 128,-1,9
 134 338 134 338 134 372 c 0,10,11
 134 405 134 405 145.5 435.5 c 128,-1,12
 157 466 157 466 177.5 490 c 128,-1,13
 198 514 198 514 227.5 527.5 c 128,-1,14
 257 541 257 541 294 541 c 256,15,16
 331 541 331 541 361 527.5 c 128,-1,17
 391 514 391 514 411.5 490 c 128,-1,18
 432 466 432 466 443.5 435.5 c 128,-1,19
 455 405 455 405 455 372 c 0,0,1
EndSplineSet
Substitution2: "'case' Case-Sensitive Forms lookup 17 subtable" Bullet
EndChar

StartChar: endash
Encoding: 8211 8211 115
Width: 588
VWidth: 1177
Flags: W
LayerCount: 2
Fore
SplineSet
81 360 m 1,0,-1
 508 360 l 1,1,-1
 508 278 l 1,2,-1
 81 278 l 1,3,-1
 81 360 l 1,0,-1
EndSplineSet
Substitution2: "'case' Case-Sensitive Forms lookup 17 subtable" Endash
EndChar

StartChar: emdash
Encoding: 8212 8212 116
Width: 588
VWidth: 1177
Flags: W
LayerCount: 2
Fore
SplineSet
0 360 m 1,0,-1
 589 360 l 1,1,-1
 589 278 l 1,2,-1
 0 278 l 1,3,-1
 0 360 l 1,0,-1
EndSplineSet
Substitution2: "'case' Case-Sensitive Forms lookup 17 subtable" Emdash
EndChar

StartChar: tilde
Encoding: 732 732 117
Width: 588
VWidth: 1177
Flags: W
LayerCount: 2
Fore
SplineSet
457 748 m 1,0,1
 453 735 453 735 444.5 718.5 c 128,-1,2
 436 702 436 702 423 688 c 128,-1,3
 410 674 410 674 392.5 664 c 128,-1,4
 375 654 375 654 352 654 c 0,5,6
 337 654 337 654 316.5 662 c 128,-1,7
 296 670 296 670 283 676 c 0,8,9
 252 692 252 692 233 693 c 0,10,11
 218 693 218 693 204 677.5 c 128,-1,12
 190 662 190 662 183 645 c 1,13,-1
 132 673 l 1,14,15
 136 686 136 686 144.5 702 c 128,-1,16
 153 718 153 718 166 732.5 c 128,-1,17
 179 747 179 747 196.5 757 c 128,-1,18
 214 767 214 767 236 767 c 0,19,20
 251 767 251 767 271.5 758 c 128,-1,21
 292 749 292 749 305 743 c 0,22,23
 336 727 336 727 355 727 c 0,24,25
 370 727 370 727 384.5 742 c 128,-1,26
 399 757 399 757 406 774 c 1,27,-1
 457 748 l 1,0,1
EndSplineSet
EndChar

StartChar: trademark
Encoding: 8482 8482 118
Width: 588
VWidth: 1177
Flags: W
LayerCount: 2
Fore
SplineSet
240 729 m 1,0,-1
 240 670 l 1,1,-1
 165 670 l 1,2,-1
 165 420 l 1,3,-1
 97 420 l 1,4,-1
 97 670 l 1,5,-1
 21 670 l 1,6,-1
 21 729 l 1,7,-1
 240 729 l 1,0,-1
384 502 m 1,8,-1
 338 638 l 1,9,10
 336 614 336 614 334.5 579 c 128,-1,11
 333 544 333 544 332.5 510.5 c 128,-1,12
 332 477 332 477 331.5 451 c 128,-1,13
 331 425 331 425 331 420 c 1,14,-1
 263 420 l 1,15,16
 267 479 267 479 270 523 c 128,-1,17
 273 567 273 567 277.5 602 c 128,-1,18
 282 637 282 637 286 667 c 128,-1,19
 290 697 290 697 296 729 c 1,20,-1
 359 729 l 1,21,-1
 411 569 l 1,22,-1
 466 729 l 1,23,-1
 530 729 l 1,24,25
 536 697 536 697 540 666.5 c 128,-1,26
 544 636 544 636 547.5 600.5 c 128,-1,27
 551 565 551 565 554 521.5 c 128,-1,28
 557 478 557 478 561 420 c 1,29,-1
 492 420 l 1,30,31
 492 425 492 425 491.5 451 c 128,-1,32
 491 477 491 477 490.5 510.5 c 128,-1,33
 490 544 490 544 489 579.5 c 128,-1,34
 488 615 488 615 486 638 c 1,35,-1
 437 502 l 1,36,-1
 384 502 l 1,8,-1
EndSplineSet
EndChar

StartChar: guilsinglright
Encoding: 8250 8250 120
Width: 588
VWidth: 1177
Flags: W
LayerCount: 2
Fore
SplineSet
256 66 m 1,0,-1
 187 104 l 1,1,-1
 304 299 l 1,2,-1
 187 495 l 1,3,-1
 256 531 l 1,4,-1
 419 299 l 1,5,-1
 256 66 l 1,0,-1
EndSplineSet
Substitution2: "'case' Case-Sensitive Forms lookup 17 subtable" Guilsinglright
EndChar

StartChar: oe
Encoding: 339 339 121
Width: 588
VWidth: 1177
Flags: W
LayerCount: 2
Fore
SplineSet
548 18 m 1,0,1
 524 2 524 2 497 -5.5 c 128,-1,2
 470 -13 470 -13 444 -13 c 0,3,4
 403 -13 403 -13 367.5 10 c 128,-1,5
 332 33 332 33 309 93 c 1,6,7
 289 39 289 39 261.5 13 c 128,-1,8
 234 -13 234 -13 185 -13 c 0,9,10
 146 -13 146 -13 118.5 12 c 128,-1,11
 91 37 91 37 72.5 77.5 c 128,-1,12
 54 118 54 118 45.5 169.5 c 128,-1,13
 37 221 37 221 37 276 c 0,14,15
 37 329 37 329 45.5 380 c 128,-1,16
 54 431 54 431 72 471 c 128,-1,17
 90 511 90 511 118 535 c 128,-1,18
 146 559 146 559 185 559 c 0,19,20
 229 559 229 559 260.5 534.5 c 128,-1,21
 292 510 292 510 309 453 c 1,22,23
 330 508 330 508 358 533.5 c 128,-1,24
 386 559 386 559 420 559 c 0,25,26
 563 559 563 559 563 282 c 0,27,28
 563 275 563 275 563 266.5 c 128,-1,29
 563 258 563 258 562 247 c 1,30,-1
 355 247 l 1,31,32
 355 214 355 214 361 183 c 128,-1,33
 367 152 367 152 379.5 128 c 128,-1,34
 392 104 392 104 411.5 89 c 128,-1,35
 431 74 431 74 457 74 c 0,36,37
 472 74 472 74 490 79 c 128,-1,38
 508 84 508 84 535 100 c 1,39,-1
 548 18 l 1,0,1
199 73 m 0,40,41
 217 73 217 73 228.5 89.5 c 128,-1,42
 240 106 240 106 248 133.5 c 128,-1,43
 256 161 256 161 258.5 196.5 c 128,-1,44
 261 232 261 232 261 270 c 256,45,46
 261 308 261 308 257.5 345 c 128,-1,47
 254 382 254 382 246 410.5 c 128,-1,48
 238 439 238 439 224.5 457.5 c 128,-1,49
 211 476 211 476 192 476 c 0,50,51
 174 476 174 476 161 459 c 128,-1,52
 148 442 148 442 140.5 415 c 128,-1,53
 133 388 133 388 129.5 352 c 128,-1,54
 126 316 126 316 126 279 c 0,55,56
 126 240 126 240 130 203.5 c 128,-1,57
 134 167 134 167 143 137.5 c 128,-1,58
 152 108 152 108 165.5 90.5 c 128,-1,59
 179 73 179 73 199 73 c 0,40,41
475 326 m 1,60,61
 475 395 475 395 459.5 436 c 128,-1,62
 444 477 444 477 420 477 c 0,63,64
 391 477 391 477 374 435 c 128,-1,65
 357 393 357 393 357 326 c 1,66,-1
 475 326 l 1,60,61
EndSplineSet
Substitution2: "'case' Case-Sensitive Forms lookup 18 subtable" OE
EndChar

StartChar: exclamdown
Encoding: 161 161 124
Width: 588
VWidth: 1177
Flags: W
LayerCount: 2
Fore
SplineSet
240 4 m 2,0,1
 240 48 240 48 242 84 c 128,-1,2
 244 120 244 120 246.5 153 c 128,-1,3
 249 186 249 186 253 218.5 c 128,-1,4
 257 251 257 251 260 286 c 1,5,-1
 327 286 l 1,6,7
 331 251 331 251 334.5 218.5 c 128,-1,8
 338 186 338 186 341 153 c 128,-1,9
 344 120 344 120 345 83.5 c 128,-1,10
 346 47 346 47 346 4 c 2,11,-1
 346 -194 l 1,12,-1
 240 -194 l 1,13,-1
 240 4 l 2,0,1
293 548 m 0,14,15
 326 548 326 548 349 526 c 128,-1,16
 372 504 372 504 372 468 c 256,17,18
 372 431 372 431 349 410 c 128,-1,19
 326 389 326 389 293 389 c 0,20,21
 261 389 261 389 237.5 410 c 128,-1,22
 214 431 214 431 214 468 c 256,23,24
 214 505 214 505 237.5 526.5 c 128,-1,25
 261 548 261 548 293 548 c 0,14,15
EndSplineSet
Substitution2: "'case' Case-Sensitive Forms lookup 17 subtable" Exclamdown
EndChar

StartChar: cent
Encoding: 162 162 125
Width: 588
VWidth: 1177
Flags: W
LayerCount: 2
Fore
SplineSet
58 306 m 0,0,1
 58 368 58 368 75.5 416 c 128,-1,2
 93 464 93 464 125 498 c 128,-1,3
 157 532 157 532 201 552 c 128,-1,4
 245 572 245 572 297 580 c 1,5,-1
 297 729 l 1,6,-1
 384 729 l 1,7,-1
 384 583 l 1,8,9
 416 581 416 581 447.5 575.5 c 128,-1,10
 479 570 479 570 516 558 c 1,11,-1
 495 477 l 1,12,13
 456 491 456 491 424 495 c 128,-1,14
 392 499 392 499 359 499 c 0,15,16
 317 499 317 499 280 488 c 128,-1,17
 243 477 243 477 215.5 454 c 128,-1,18
 188 431 188 431 173 394 c 128,-1,19
 158 357 158 357 158 306 c 0,20,21
 158 208 158 208 216 161.5 c 128,-1,22
 274 115 274 115 369 115 c 0,23,24
 407 115 407 115 441 120 c 128,-1,25
 475 125 475 125 516 139 c 1,26,-1
 530 59 l 1,27,28
 495 46 495 46 459.5 40 c 128,-1,29
 424 34 424 34 384 32 c 1,30,-1
 384 -114 l 1,31,-1
 297 -114 l 1,32,-1
 297 34 l 1,33,34
 189 49 189 49 123.5 117.5 c 128,-1,35
 58 186 58 186 58 306 c 0,0,1
EndSplineSet
EndChar

StartChar: sterling
Encoding: 163 163 126
Width: 588
VWidth: 1177
Flags: W
LayerCount: 2
Fore
SplineSet
247 392 m 1,0,-1
 448 392 l 1,1,-1
 448 313 l 1,2,-1
 247 313 l 1,3,-1
 247 305 l 2,4,5
 247 252 247 252 243 194.5 c 128,-1,6
 239 137 239 137 231 84 c 1,7,-1
 536 84 l 1,8,-1
 536 0 l 1,9,-1
 121 0 l 1,10,11
 133 75 133 75 142 149 c 128,-1,12
 151 223 151 223 151 298 c 2,13,-1
 151 313 l 1,14,-1
 53 313 l 1,15,-1
 53 392 l 1,16,-1
 151 392 l 1,17,-1
 151 479 l 2,18,19
 151 557 151 557 167.5 608.5 c 128,-1,20
 184 660 184 660 213.5 689 c 128,-1,21
 243 718 243 718 284.5 730 c 128,-1,22
 326 742 326 742 378 742 c 0,23,24
 424 742 424 742 455 734.5 c 128,-1,25
 486 727 486 727 516 714 c 1,26,-1
 492 630 l 1,27,28
 439 656 439 656 373 656 c 0,29,30
 345 656 345 656 322 648 c 128,-1,31
 299 640 299 640 282 620 c 128,-1,32
 265 600 265 600 256 566 c 128,-1,33
 247 532 247 532 247 482 c 2,34,-1
 247 392 l 1,0,-1
EndSplineSet
EndChar

StartChar: currency
Encoding: 164 164 127
Width: 588
VWidth: 1177
Flags: W
LayerCount: 2
Fore
SplineSet
92 365 m 0,0,1
 92 430 92 430 121 477 c 1,2,-1
 45 555 l 1,3,-1
 105 615 l 1,4,-1
 183 536 l 1,5,6
 234 567 234 567 294 567 c 256,7,8
 354 567 354 567 405 536 c 1,9,-1
 484 615 l 1,10,-1
 545 555 l 1,11,-1
 466 477 l 1,12,13
 497 430 497 430 497 365 c 0,14,15
 497 331 497 331 489.5 304 c 128,-1,16
 482 277 482 277 466 253 c 1,17,-1
 545 176 l 1,18,-1
 484 114 l 1,19,-1
 405 192 l 1,20,21
 354 163 354 163 294 163 c 0,22,23
 230 163 230 163 183 192 c 1,24,-1
 105 114 l 1,25,-1
 45 176 l 1,26,-1
 121 252 l 1,27,28
 92 299 92 299 92 365 c 0,0,1
418 365 m 256,29,30
 418 425 418 425 381.5 460.5 c 128,-1,31
 345 496 345 496 294 496 c 256,32,33
 243 496 243 496 207 460.5 c 128,-1,34
 171 425 171 425 171 365 c 256,35,36
 171 305 171 305 207.5 269.5 c 128,-1,37
 244 234 244 234 294 234 c 256,38,39
 345 234 345 234 381.5 269.5 c 128,-1,40
 418 305 418 305 418 365 c 256,29,30
EndSplineSet
EndChar

StartChar: yen
Encoding: 165 165 128
Width: 588
VWidth: 1177
Flags: W
LayerCount: 2
Fore
SplineSet
247 0 m 1,0,-1
 247 112 l 1,1,-1
 77 112 l 1,2,-1
 77 186 l 1,3,-1
 247 186 l 1,4,-1
 247 293 l 1,5,-1
 77 293 l 1,6,-1
 77 369 l 1,7,-1
 220 369 l 1,8,9
 162 461 162 461 111 552 c 128,-1,10
 60 643 60 643 15 729 c 1,11,-1
 122 729 l 1,12,13
 160 647 160 647 205 565 c 128,-1,14
 250 483 250 483 298 408 c 1,15,16
 344 483 344 483 387 565 c 128,-1,17
 430 647 430 647 468 729 c 1,18,-1
 575 729 l 1,19,20
 528 641 528 641 477 551 c 128,-1,21
 426 461 426 461 369 369 c 1,22,-1
 514 369 l 1,23,-1
 514 293 l 1,24,-1
 344 293 l 1,25,-1
 344 186 l 1,26,-1
 514 186 l 1,27,-1
 514 112 l 1,28,-1
 344 112 l 1,29,-1
 344 0 l 1,30,-1
 247 0 l 1,0,-1
EndSplineSet
EndChar

StartChar: brokenbar
Encoding: 166 166 129
Width: 588
VWidth: 1177
Flags: W
LayerCount: 2
Fore
SplineSet
250 208 m 1,0,-1
 340 208 l 1,1,-1
 340 -194 l 1,2,-1
 250 -194 l 1,3,-1
 250 208 l 1,0,-1
250 823 m 1,4,-1
 340 823 l 1,5,-1
 340 420 l 1,6,-1
 250 420 l 1,7,-1
 250 823 l 1,4,-1
EndSplineSet
EndChar

StartChar: section
Encoding: 167 167 130
Width: 588
VWidth: 1177
Flags: W
LayerCount: 2
Fore
SplineSet
106 -1 m 1,0,1
 138 -14 138 -14 175.5 -24 c 128,-1,2
 213 -34 213 -34 272 -34 c 0,3,4
 391 -34 391 -34 391 39 c 0,5,6
 391 77 391 77 363 97.5 c 128,-1,7
 335 118 335 118 267 140 c 0,8,9
 228 153 228 153 194.5 168 c 128,-1,10
 161 183 161 183 135.5 203.5 c 128,-1,11
 110 224 110 224 95 253.5 c 128,-1,12
 80 283 80 283 80 325 c 0,13,14
 80 352 80 352 89 375.5 c 128,-1,15
 98 399 98 399 111.5 418.5 c 128,-1,16
 125 438 125 438 141.5 453 c 128,-1,17
 158 468 158 468 173 477 c 1,18,19
 147 498 147 498 132 525 c 128,-1,20
 117 552 117 552 117 588 c 0,21,22
 117 661 117 661 168 703.5 c 128,-1,23
 219 746 219 746 311 746 c 0,24,25
 365 746 365 746 411 736 c 128,-1,26
 457 726 457 726 485 716 c 1,27,-1
 463 635 l 1,28,29
 437 644 437 644 401 654.5 c 128,-1,30
 365 665 365 665 310 665 c 0,31,32
 269 665 269 665 239.5 648 c 128,-1,33
 210 631 210 631 210 596 c 0,34,35
 210 559 210 559 235.5 539 c 128,-1,36
 261 519 261 519 320 501 c 0,37,38
 359 488 359 488 392.5 473 c 128,-1,39
 426 458 426 458 452 437 c 128,-1,40
 478 416 478 416 493 387 c 128,-1,41
 508 358 508 358 508 316 c 0,42,43
 508 290 508 290 499.5 267 c 128,-1,44
 491 244 491 244 478 224.5 c 128,-1,45
 465 205 465 205 449 189.5 c 128,-1,46
 433 174 433 174 418 165 c 1,47,48
 449 143 449 143 467.5 113.5 c 128,-1,49
 486 84 486 84 486 45 c 0,50,51
 486 -34 486 -34 430.5 -74 c 128,-1,52
 375 -114 375 -114 271 -114 c 0,53,54
 200 -114 200 -114 155 -103 c 128,-1,55
 110 -92 110 -92 82 -79 c 1,56,-1
 106 -1 l 1,0,1
238 439 m 1,57,58
 207 419 207 419 188.5 392.5 c 128,-1,59
 170 366 170 366 170 335 c 0,60,61
 170 308 170 308 182 289 c 128,-1,62
 194 270 194 270 215.5 255.5 c 128,-1,63
 237 241 237 241 266.5 230.5 c 128,-1,64
 296 220 296 220 330 208 c 2,65,-1
 350 201 l 1,66,67
 381 221 381 221 399.5 247 c 128,-1,68
 418 273 418 273 418 306 c 0,69,70
 418 333 418 333 405.5 351.5 c 128,-1,71
 393 370 393 370 372.5 383 c 128,-1,72
 352 396 352 396 324.5 406.5 c 128,-1,73
 297 417 297 417 266 429 c 2,74,-1
 238 439 l 1,57,58
EndSplineSet
EndChar

StartChar: dieresis
Encoding: 168 168 131
Width: 588
VWidth: 1177
Flags: W
LayerCount: 2
Fore
SplineSet
194 648 m 0,0,1
 170 648 170 648 151.5 665.5 c 128,-1,2
 133 683 133 683 133 710 c 256,3,4
 133 737 133 737 152 754 c 128,-1,5
 171 771 171 771 194 771 c 0,6,7
 219 771 219 771 237.5 754 c 128,-1,8
 256 737 256 737 256 710 c 256,9,10
 256 683 256 683 237.5 665.5 c 128,-1,11
 219 648 219 648 194 648 c 0,0,1
395 648 m 256,12,13
 370 648 370 648 351.5 665.5 c 128,-1,14
 333 683 333 683 333 710 c 256,15,16
 333 737 333 737 351.5 754 c 128,-1,17
 370 771 370 771 395 771 c 256,18,19
 420 771 420 771 438 754 c 128,-1,20
 456 737 456 737 456 710 c 256,21,22
 456 683 456 683 438 665.5 c 128,-1,23
 420 648 420 648 395 648 c 256,12,13
EndSplineSet
EndChar

StartChar: copyright
Encoding: 169 169 132
Width: 588
VWidth: 1177
Flags: W
LayerCount: 2
Fore
SplineSet
481 272 m 0,0,1
 481 329 481 329 465 370.5 c 128,-1,2
 449 412 449 412 422.5 440 c 128,-1,3
 396 468 396 468 363 482 c 128,-1,4
 330 496 330 496 294 496 c 256,5,6
 259 496 259 496 226 482 c 128,-1,7
 193 468 193 468 166.5 440 c 128,-1,8
 140 412 140 412 124 370.5 c 128,-1,9
 108 329 108 329 108 274 c 0,10,11
 108 217 108 217 124 175.5 c 128,-1,12
 140 134 140 134 166.5 106.5 c 128,-1,13
 193 79 193 79 226 65 c 128,-1,14
 259 51 259 51 294 51 c 256,15,16
 329 51 329 51 363 65 c 128,-1,17
 397 79 397 79 423 106.5 c 128,-1,18
 449 134 449 134 465 175.5 c 128,-1,19
 481 217 481 217 481 272 c 0,0,1
385 141 m 1,20,21
 365 132 365 132 343.5 127 c 128,-1,22
 322 122 322 122 302 122 c 0,23,24
 268 122 268 122 242.5 134.5 c 128,-1,25
 217 147 217 147 200.5 167.5 c 128,-1,26
 184 188 184 188 175.5 214.5 c 128,-1,27
 167 241 167 241 167 270 c 256,28,29
 167 298 167 298 175.5 325 c 128,-1,30
 184 352 184 352 200.5 373.5 c 128,-1,31
 217 395 217 395 242 407.5 c 128,-1,32
 267 420 267 420 303 420 c 0,33,34
 322 420 322 420 342.5 417.5 c 128,-1,35
 363 415 363 415 383 405 c 1,36,-1
 359 342 l 1,37,38
 346 348 346 348 333 349.5 c 128,-1,39
 320 351 320 351 310 351 c 0,40,41
 272 351 272 351 256 327.5 c 128,-1,42
 240 304 240 304 240 274 c 0,43,44
 240 236 240 236 259.5 214.5 c 128,-1,45
 279 193 279 193 314 193 c 0,46,47
 325 193 325 193 338.5 195.5 c 128,-1,48
 352 198 352 198 365 204 c 1,49,-1
 385 141 l 1,20,21
40 272 m 0,50,51
 40 344 40 344 62.5 398 c 128,-1,52
 85 452 85 452 121 488 c 128,-1,53
 157 524 157 524 203 541.5 c 128,-1,54
 249 559 249 559 296 559 c 256,55,56
 343 559 343 559 389 541.5 c 128,-1,57
 435 524 435 524 470 488 c 128,-1,58
 505 452 505 452 527 398.5 c 128,-1,59
 549 345 549 345 549 274 c 0,60,61
 549 202 549 202 526.5 148.5 c 128,-1,62
 504 95 504 95 468 59.5 c 128,-1,63
 432 24 432 24 386 5.5 c 128,-1,64
 340 -13 340 -13 293 -13 c 0,65,66
 245 -13 245 -13 199.5 5.5 c 128,-1,67
 154 24 154 24 119 59 c 128,-1,68
 84 94 84 94 62 147.5 c 128,-1,69
 40 201 40 201 40 272 c 0,50,51
EndSplineSet
EndChar

StartChar: ordfeminine
Encoding: 170 170 133
Width: 588
VWidth: 1177
Flags: W
LayerCount: 2
Fore
SplineSet
305 411 m 0,0,1
 329 411 329 411 351 412 c 128,-1,2
 373 413 373 413 379 416 c 1,3,-1
 379 521 l 1,4,5
 367 523 367 523 349.5 524 c 128,-1,6
 332 525 332 525 316 525 c 0,7,8
 298 525 298 525 279.5 523 c 128,-1,9
 261 521 261 521 246 515 c 128,-1,10
 231 509 231 509 221.5 497.5 c 128,-1,11
 212 486 212 486 212 469 c 0,12,13
 212 438 212 438 236.5 424.5 c 128,-1,14
 261 411 261 411 305 411 c 0,0,1
298 742 m 0,15,16
 384 742 384 742 418 702 c 128,-1,17
 452 662 452 662 452 596 c 2,18,-1
 452 360 l 1,19,20
 426 354 426 354 384 350 c 128,-1,21
 342 346 342 346 298 346 c 0,22,23
 229 346 229 346 184 374.5 c 128,-1,24
 139 403 139 403 139 469 c 0,25,26
 139 502 139 502 152.5 525 c 128,-1,27
 166 548 166 548 189.5 562 c 128,-1,28
 213 576 213 576 243 582.5 c 128,-1,29
 273 589 273 589 307 589 c 0,30,31
 322 589 322 589 339.5 588 c 128,-1,32
 357 587 357 587 379 584 c 1,33,-1
 379 587 l 2,34,35
 379 602 379 602 376 618 c 128,-1,36
 373 634 373 634 364 646 c 128,-1,37
 355 658 355 658 337.5 666 c 128,-1,38
 320 674 320 674 293 674 c 0,39,40
 268 674 268 674 240 671 c 128,-1,41
 212 668 212 668 191 661 c 1,42,-1
 180 727 l 1,43,44
 200 733 200 733 232 737.5 c 128,-1,45
 264 742 264 742 298 742 c 0,15,16
EndSplineSet
EndChar

StartChar: guillemotleft
Encoding: 171 171 134
Width: 588
VWidth: 1177
Flags: W
LayerCount: 2
Fore
SplineSet
74 299 m 1,0,-1
 214 506 l 1,1,-1
 276 475 l 1,2,-1
 177 299 l 1,3,-1
 271 130 l 1,4,-1
 212 93 l 1,5,-1
 74 299 l 1,0,-1
285 299 m 1,6,-1
 426 506 l 1,7,-1
 486 475 l 1,8,-1
 389 299 l 1,9,-1
 483 130 l 1,10,-1
 424 93 l 1,11,-1
 285 299 l 1,6,-1
EndSplineSet
Substitution2: "'case' Case-Sensitive Forms lookup 17 subtable" Guillemotleft
EndChar

StartChar: logicalnot
Encoding: 172 172 135
Width: 588
VWidth: 1177
Flags: W
LayerCount: 2
Fore
SplineSet
530 409 m 1,0,-1
 530 51 l 1,1,-1
 446 51 l 1,2,-1
 446 326 l 1,3,-1
 48 326 l 1,4,-1
 48 409 l 1,5,-1
 530 409 l 1,0,-1
EndSplineSet
EndChar

StartChar: registered
Encoding: 174 174 137
Width: 588
VWidth: 1177
Flags: W
LayerCount: 2
Fore
SplineSet
481 272 m 0,0,1
 481 329 481 329 465 370.5 c 128,-1,2
 449 412 449 412 422.5 440 c 128,-1,3
 396 468 396 468 363 482 c 128,-1,4
 330 496 330 496 294 496 c 256,5,6
 259 496 259 496 226 482 c 128,-1,7
 193 468 193 468 166.5 440 c 128,-1,8
 140 412 140 412 124 370.5 c 128,-1,9
 108 329 108 329 108 274 c 0,10,11
 108 217 108 217 124 175.5 c 128,-1,12
 140 134 140 134 166.5 106.5 c 128,-1,13
 193 79 193 79 226 65 c 128,-1,14
 259 51 259 51 294 51 c 256,15,16
 329 51 329 51 363 65 c 128,-1,17
 397 79 397 79 423 106.5 c 128,-1,18
 449 134 449 134 465 175.5 c 128,-1,19
 481 217 481 217 481 272 c 0,0,1
40 272 m 0,20,21
 40 344 40 344 62.5 398 c 128,-1,22
 85 452 85 452 121 488 c 128,-1,23
 157 524 157 524 203 541.5 c 128,-1,24
 249 559 249 559 296 559 c 256,25,26
 343 559 343 559 389 541.5 c 128,-1,27
 435 524 435 524 470 488 c 128,-1,28
 505 452 505 452 527 398.5 c 128,-1,29
 549 345 549 345 549 274 c 0,30,31
 549 202 549 202 526.5 148.5 c 128,-1,32
 504 95 504 95 468 59.5 c 128,-1,33
 432 24 432 24 386 5.5 c 128,-1,34
 340 -13 340 -13 293 -13 c 0,35,36
 245 -13 245 -13 199.5 5.5 c 128,-1,37
 154 24 154 24 119 59 c 128,-1,38
 84 94 84 94 62 147.5 c 128,-1,39
 40 201 40 201 40 272 c 0,20,21
259 220 m 1,40,-1
 259 130 l 1,41,-1
 196 130 l 1,42,-1
 196 410 l 1,43,44
 212 415 212 415 232 417.5 c 128,-1,45
 252 420 252 420 274 420 c 0,46,47
 341 420 341 420 373.5 394.5 c 128,-1,48
 406 369 406 369 406 319 c 0,49,50
 406 262 406 262 359 236 c 1,51,52
 373 216 373 216 388.5 188 c 128,-1,53
 404 160 404 160 419 130 c 1,54,-1
 352 130 l 1,55,56
 337 158 337 158 325 179.5 c 128,-1,57
 313 201 313 201 302 220 c 1,58,-1
 259 220 l 1,40,-1
259 279 m 1,59,-1
 280 279 l 2,60,61
 312 279 312 279 327.5 287.5 c 128,-1,62
 343 296 343 296 343 323 c 0,63,64
 343 347 343 347 324 354.5 c 128,-1,65
 305 362 305 362 285 362 c 0,66,67
 278 362 278 362 271.5 361 c 128,-1,68
 265 360 265 360 259 359 c 1,69,-1
 259 279 l 1,59,-1
EndSplineSet
EndChar

StartChar: macron
Encoding: 175 175 138
Width: 588
VWidth: 1177
Flags: W
LayerCount: 2
Fore
SplineSet
145 748 m 1,0,-1
 444 748 l 1,1,-1
 444 673 l 1,2,-1
 145 673 l 1,3,-1
 145 748 l 1,0,-1
EndSplineSet
EndChar

StartChar: degree
Encoding: 176 176 139
Width: 588
VWidth: 1177
Flags: W
LayerCount: 2
Fore
SplineSet
442 670 m 256,0,1
 442 636 442 636 430 609 c 128,-1,2
 418 582 418 582 397.5 563 c 128,-1,3
 377 544 377 544 350.5 534 c 128,-1,4
 324 524 324 524 294 524 c 256,5,6
 265 524 265 524 238.5 534 c 128,-1,7
 212 544 212 544 191.5 563 c 128,-1,8
 171 582 171 582 159 609 c 128,-1,9
 147 636 147 636 147 670 c 256,10,11
 147 704 147 704 159 731.5 c 128,-1,12
 171 759 171 759 191.5 777.5 c 128,-1,13
 212 796 212 796 238.5 806 c 128,-1,14
 265 816 265 816 294 816 c 256,15,16
 323 816 323 816 350 806 c 128,-1,17
 377 796 377 796 397.5 777.5 c 128,-1,18
 418 759 418 759 430 731.5 c 128,-1,19
 442 704 442 704 442 670 c 256,0,1
371 670 m 256,20,21
 371 708 371 708 348.5 729 c 128,-1,22
 326 750 326 750 294 750 c 256,23,24
 262 750 262 750 240 729 c 128,-1,25
 218 708 218 708 218 670 c 256,26,27
 218 632 218 632 240.5 611 c 128,-1,28
 263 590 263 590 294 590 c 256,29,30
 326 590 326 590 348.5 611 c 128,-1,31
 371 632 371 632 371 670 c 256,20,21
EndSplineSet
EndChar

StartChar: plusminus
Encoding: 177 177 140
Width: 588
VWidth: 1177
Flags: W
LayerCount: 2
Fore
SplineSet
54 441 m 1,0,-1
 252 441 l 1,1,-1
 252 653 l 1,2,-1
 337 653 l 1,3,-1
 337 441 l 1,4,-1
 536 441 l 1,5,-1
 536 358 l 1,6,-1
 337 358 l 1,7,-1
 337 146 l 1,8,-1
 252 146 l 1,9,-1
 252 358 l 1,10,-1
 54 358 l 1,11,-1
 54 441 l 1,0,-1
54 84 m 1,12,-1
 536 84 l 1,13,-1
 536 0 l 1,14,-1
 54 0 l 1,15,-1
 54 84 l 1,12,-1
EndSplineSet
EndChar

StartChar: twosuperior
Encoding: 178 178 141
Width: 588
VWidth: 1177
Flags: W
LayerCount: 2
Fore
SplineSet
426 629 m 0,0,1
 426 607 426 607 416 586 c 128,-1,2
 406 565 406 565 389 544.5 c 128,-1,3
 372 524 372 524 349.5 503 c 128,-1,4
 327 482 327 482 303 461 c 0,5,6
 285 446 285 446 267.5 428.5 c 128,-1,7
 250 411 250 411 247 398 c 1,8,-1
 443 398 l 1,9,-1
 443 331 l 1,10,-1
 163 331 l 1,11,12
 159 366 159 366 167.5 392.5 c 128,-1,13
 176 419 176 419 191 441.5 c 128,-1,14
 206 464 206 464 226.5 482.5 c 128,-1,15
 247 501 247 501 269 519 c 0,16,17
 304 550 304 550 326.5 576 c 128,-1,18
 349 602 349 602 349 627 c 0,19,20
 349 680 349 680 284 680 c 0,21,22
 266 680 266 680 250 675 c 128,-1,23
 234 670 234 670 221 663.5 c 128,-1,24
 208 657 208 657 199 650 c 128,-1,25
 190 643 190 643 184 638 c 1,26,-1
 146 690 l 1,27,28
 165 709 165 709 201 727.5 c 128,-1,29
 237 746 237 746 284 746 c 0,30,31
 357 746 357 746 391.5 716 c 128,-1,32
 426 686 426 686 426 629 c 0,0,1
EndSplineSet
Substitution2: "Single Substitution lookup 22 subtable" twoinferior
Substitution2: "'sinf' Scientific Inferiors lookup 11 subtable" two.sinf
Substitution2: "'subs' Subscript lookup 10 subtable" two.sinf
Substitution2: "'sups' Superscript lookup 9 subtable" two.sups
Substitution2: "'dnom' Denominators lookup 8 subtable" twoinferior
EndChar

StartChar: threesuperior
Encoding: 179 179 142
Width: 588
VWidth: 1177
Flags: W
LayerCount: 2
Fore
SplineSet
266 389 m 0,0,1
 323 389 323 389 343.5 406 c 128,-1,2
 364 423 364 423 364 450 c 0,3,4
 364 468 364 468 354.5 480 c 128,-1,5
 345 492 345 492 329 500.5 c 128,-1,6
 313 509 313 509 292 512.5 c 128,-1,7
 271 516 271 516 249 516 c 2,8,-1
 229 516 l 1,9,-1
 229 576 l 1,10,-1
 254 576 l 2,11,12
 269 576 269 576 285.5 579 c 128,-1,13
 302 582 302 582 314.5 588.5 c 128,-1,14
 327 595 327 595 336 605.5 c 128,-1,15
 345 616 345 616 345 633 c 0,16,17
 345 659 345 659 325.5 670 c 128,-1,18
 306 681 306 681 276 681 c 0,19,20
 248 681 248 681 223.5 671 c 128,-1,21
 199 661 199 661 181 653 c 1,22,-1
 154 710 l 1,23,24
 170 722 170 722 206.5 734 c 128,-1,25
 243 746 243 746 278 746 c 0,26,27
 355 746 355 746 386.5 715 c 128,-1,28
 418 684 418 684 418 635 c 0,29,30
 418 584 418 584 360 551 c 1,31,32
 398 539 398 539 419.5 512.5 c 128,-1,33
 441 486 441 486 441 449 c 0,34,35
 441 396 441 396 400.5 359.5 c 128,-1,36
 360 323 360 323 267 323 c 0,37,38
 234 323 234 323 200.5 330.5 c 128,-1,39
 167 338 167 338 148 347 c 1,40,-1
 164 410 l 1,41,42
 188 401 188 401 213.5 395 c 128,-1,43
 239 389 239 389 266 389 c 0,0,1
EndSplineSet
Substitution2: "Single Substitution lookup 22 subtable" threeinferior
Substitution2: "'sinf' Scientific Inferiors lookup 11 subtable" three.sinf
Substitution2: "'subs' Subscript lookup 10 subtable" three.sinf
Substitution2: "'sups' Superscript lookup 9 subtable" three.sups
Substitution2: "'dnom' Denominators lookup 8 subtable" threeinferior
EndChar

StartChar: acute
Encoding: 180 180 143
Width: 588
VWidth: 1177
Flags: W
LayerCount: 2
Fore
SplineSet
398 754 m 1,0,-1
 250 610 l 1,1,-1
 200 654 l 1,2,-1
 335 816 l 1,3,-1
 398 754 l 1,0,-1
EndSplineSet
EndChar

StartChar: mu
Encoding: 181 181 144
Width: 588
VWidth: 1177
Flags: W
LayerCount: 2
Fore
SplineSet
505 15 m 1,0,1
 473 7 473 7 421 -3 c 128,-1,2
 369 -13 369 -13 298 -13 c 0,3,4
 250 -13 250 -13 223.5 -2.5 c 128,-1,5
 197 8 197 8 177 26 c 1,6,7
 181 -1 181 -1 181 -28 c 128,-1,8
 181 -55 181 -55 181 -86 c 2,9,-1
 181 -194 l 1,10,-1
 84 -194 l 1,11,-1
 84 547 l 1,12,-1
 181 547 l 1,13,-1
 181 260 l 2,14,15
 181 209 181 209 187.5 174 c 128,-1,16
 194 139 194 139 209 116.5 c 128,-1,17
 224 94 224 94 248 84 c 128,-1,18
 272 74 272 74 307 74 c 0,19,20
 322 74 322 74 338.5 75.5 c 128,-1,21
 355 77 355 77 369 78 c 128,-1,22
 383 79 383 79 393.5 80.5 c 128,-1,23
 404 82 404 82 408 84 c 2,24,-1
 408 547 l 1,25,-1
 505 547 l 1,26,-1
 505 15 l 1,0,1
EndSplineSet
EndChar

StartChar: paragraph
Encoding: 182 182 145
Width: 588
VWidth: 1177
Flags: W
LayerCount: 2
Fore
SplineSet
444 651 m 1,0,1
 390 658 390 658 342 654 c 1,2,-1
 342 -194 l 1,3,-1
 260 -194 l 1,4,-1
 260 276 l 1,5,6
 150 288 150 288 91.5 342 c 128,-1,7
 33 396 33 396 33 504 c 0,8,9
 33 562 33 562 55 605 c 128,-1,10
 77 648 77 648 118 677.5 c 128,-1,11
 159 707 159 707 217.5 721.5 c 128,-1,12
 276 736 276 736 349 736 c 0,13,14
 390 736 390 736 437 732.5 c 128,-1,15
 484 729 484 729 527 717 c 1,16,-1
 527 -194 l 1,17,-1
 444 -194 l 1,18,-1
 444 651 l 1,0,1
EndSplineSet
EndChar

StartChar: cedilla
Encoding: 184 184 147
Width: 588
VWidth: 1177
Flags: W
LayerCount: 2
Fore
SplineSet
320 -39 m 1,0,1
 351 -53 351 -53 364.5 -70.5 c 128,-1,2
 378 -88 378 -88 378 -122 c 0,3,4
 378 -134 378 -134 372.5 -147.5 c 128,-1,5
 367 -161 367 -161 355 -172.5 c 128,-1,6
 343 -184 343 -184 322.5 -191.5 c 128,-1,7
 302 -199 302 -199 271 -199 c 0,8,9
 244 -199 244 -199 220.5 -195 c 128,-1,10
 197 -191 197 -191 184 -185 c 1,11,-1
 196 -125 l 1,12,13
 209 -130 209 -130 223 -132.5 c 128,-1,14
 237 -135 237 -135 254 -135 c 0,15,16
 292 -135 292 -135 292 -112 c 256,17,18
 292 -88 292 -88 249 -75 c 2,19,-1
 240 -73 l 1,20,21
 244 -62 244 -62 250.5 -48 c 128,-1,22
 257 -34 257 -34 263.5 -20 c 128,-1,23
 270 -6 270 -6 276 5 c 128,-1,24
 282 16 282 16 284 21 c 1,25,-1
 351 21 l 1,26,27
 345 8 345 8 335.5 -9 c 128,-1,28
 326 -26 326 -26 320 -39 c 1,0,1
EndSplineSet
EndChar

StartChar: onesuperior
Encoding: 185 185 148
Width: 588
VWidth: 1177
Flags: W
LayerCount: 2
Fore
SplineSet
272 398 m 1,0,-1
 272 641 l 1,1,2
 248 626 248 626 219 614 c 128,-1,3
 190 602 190 602 168 596 c 1,4,-1
 148 654 l 1,5,6
 188 667 188 667 227 688.5 c 128,-1,7
 266 710 266 710 294 737 c 1,8,-1
 346 737 l 1,9,-1
 346 398 l 1,10,-1
 451 398 l 1,11,-1
 451 331 l 1,12,-1
 157 331 l 1,13,-1
 157 398 l 1,14,-1
 272 398 l 1,0,-1
EndSplineSet
Substitution2: "Single Substitution lookup 22 subtable" oneinferior
Substitution2: "'sinf' Scientific Inferiors lookup 11 subtable" one.sinf
Substitution2: "'subs' Subscript lookup 10 subtable" one.sinf
Substitution2: "'sups' Superscript lookup 9 subtable" one.sups
Substitution2: "'dnom' Denominators lookup 8 subtable" oneinferior
EndChar

StartChar: ordmasculine
Encoding: 186 186 149
Width: 588
VWidth: 1177
Flags: W
LayerCount: 2
Fore
SplineSet
484 545 m 256,0,1
 484 499 484 499 470 462.5 c 128,-1,2
 456 426 456 426 430.5 399.5 c 128,-1,3
 405 373 405 373 370.5 359 c 128,-1,4
 336 345 336 345 294 345 c 256,5,6
 253 345 253 345 218.5 359 c 128,-1,7
 184 373 184 373 158.5 399.5 c 128,-1,8
 133 426 133 426 119 462.5 c 128,-1,9
 105 499 105 499 105 545 c 256,10,11
 105 591 105 591 119 627.5 c 128,-1,12
 133 664 133 664 158.5 690 c 128,-1,13
 184 716 184 716 218.5 730 c 128,-1,14
 253 744 253 744 294 744 c 256,15,16
 335 744 335 744 370 730 c 128,-1,17
 405 716 405 716 430.5 690 c 128,-1,18
 456 664 456 664 470 627.5 c 128,-1,19
 484 591 484 591 484 545 c 256,0,1
406 545 m 0,20,21
 406 605 406 605 377.5 639.5 c 128,-1,22
 349 674 349 674 294 674 c 0,23,24
 241 674 241 674 212 639.5 c 128,-1,25
 183 605 183 605 183 545 c 0,26,27
 183 486 183 486 211.5 451 c 128,-1,28
 240 416 240 416 294 416 c 256,29,30
 348 416 348 416 377 451 c 128,-1,31
 406 486 406 486 406 545 c 0,20,21
EndSplineSet
EndChar

StartChar: guillemotright
Encoding: 187 187 150
Width: 588
VWidth: 1177
Flags: W
LayerCount: 2
Fore
SplineSet
515 300 m 1,0,-1
 373 93 l 1,1,-1
 312 125 l 1,2,-1
 411 300 l 1,3,-1
 317 470 l 1,4,-1
 376 506 l 1,5,-1
 515 300 l 1,0,-1
302 300 m 1,6,-1
 161 93 l 1,7,-1
 100 125 l 1,8,-1
 199 300 l 1,9,-1
 104 470 l 1,10,-1
 163 506 l 1,11,-1
 302 300 l 1,6,-1
EndSplineSet
Substitution2: "'case' Case-Sensitive Forms lookup 17 subtable" Guillemotright
EndChar

StartChar: onequarter
Encoding: 188 188 151
Width: 588
VWidth: 1177
Flags: W
LayerCount: 2
Fore
SplineSet
21 661 m 1,0,1
 61 677 61 677 89.5 693.5 c 128,-1,2
 118 710 118 710 146 737 c 1,3,-1
 193 737 l 1,4,-1
 193 443 l 1,5,-1
 124 443 l 1,6,-1
 124 641 l 1,7,8
 100 628 100 628 81 619.5 c 128,-1,9
 62 611 62 611 41 604 c 1,10,-1
 21 661 l 1,0,1
519 294 m 1,11,-1
 519 115 l 1,12,-1
 562 115 l 1,13,-1
 562 57 l 1,14,-1
 519 57 l 1,15,-1
 519 0 l 1,16,-1
 450 0 l 1,17,-1
 450 57 l 1,18,-1
 298 57 l 1,19,-1
 298 105 l 1,20,21
 329 159 329 159 357 203 c 128,-1,22
 385 247 385 247 422 294 c 1,23,-1
 519 294 l 1,11,-1
450 244 m 1,24,25
 425 212 425 212 405 179 c 128,-1,26
 385 146 385 146 367 115 c 1,27,-1
 450 115 l 1,28,-1
 450 244 l 1,24,25
112 -5 m 1,29,-1
 29 -5 l 1,30,-1
 476 724 l 1,31,-1
 558 724 l 1,32,-1
 112 -5 l 1,29,-1
EndSplineSet
Ligature2: "'frac' Diagonal Fractions lookup 13 subtable" one.sinf fraction four.sinf
Ligature2: "'frac' Diagonal Fractions lookup 13 subtable" one.sinf fraction four.sups
Ligature2: "'frac' Diagonal Fractions lookup 13 subtable" one.sinf fraction fourinferior
Ligature2: "'frac' Diagonal Fractions lookup 13 subtable" one.sinf fraction foursuperior
Ligature2: "'frac' Diagonal Fractions lookup 13 subtable" one.sinf fraction four
Ligature2: "'frac' Diagonal Fractions lookup 13 subtable" one.sups fraction four.sinf
Ligature2: "'frac' Diagonal Fractions lookup 13 subtable" one.sups fraction four.sups
Ligature2: "'frac' Diagonal Fractions lookup 13 subtable" one.sups fraction fourinferior
Ligature2: "'frac' Diagonal Fractions lookup 13 subtable" one.sups fraction foursuperior
Ligature2: "'frac' Diagonal Fractions lookup 13 subtable" one.sups fraction four
Ligature2: "'frac' Diagonal Fractions lookup 13 subtable" oneinferior fraction four.sinf
Ligature2: "'frac' Diagonal Fractions lookup 13 subtable" oneinferior fraction four.sups
Ligature2: "'frac' Diagonal Fractions lookup 13 subtable" oneinferior fraction fourinferior
Ligature2: "'frac' Diagonal Fractions lookup 13 subtable" oneinferior fraction foursuperior
Ligature2: "'frac' Diagonal Fractions lookup 13 subtable" oneinferior fraction four
Ligature2: "'frac' Diagonal Fractions lookup 13 subtable" onesuperior fraction four.sinf
Ligature2: "'frac' Diagonal Fractions lookup 13 subtable" onesuperior fraction four.sups
Ligature2: "'frac' Diagonal Fractions lookup 13 subtable" onesuperior fraction fourinferior
Ligature2: "'frac' Diagonal Fractions lookup 13 subtable" onesuperior fraction foursuperior
Ligature2: "'frac' Diagonal Fractions lookup 13 subtable" onesuperior fraction four
Ligature2: "'frac' Diagonal Fractions lookup 13 subtable" one fraction four.sinf
Ligature2: "'frac' Diagonal Fractions lookup 13 subtable" one fraction four.sups
Ligature2: "'frac' Diagonal Fractions lookup 13 subtable" one fraction fourinferior
Ligature2: "'frac' Diagonal Fractions lookup 13 subtable" one fraction foursuperior
Ligature2: "'frac' Diagonal Fractions lookup 13 subtable" one fraction four
EndChar

StartChar: onehalf
Encoding: 189 189 152
Width: 588
VWidth: 1177
Flags: W
LayerCount: 2
Fore
SplineSet
568 59 m 1,0,-1
 568 0 l 1,1,-1
 336 0 l 2,2,3
 335 4 335 4 335 14 c 128,-1,4
 335 24 335 24 335 27 c 0,5,6
 335 65 335 65 358.5 85.5 c 128,-1,7
 382 106 382 106 412 125 c 2,8,-1
 438 143 l 2,9,10
 466 159 466 159 477 173.5 c 128,-1,11
 488 188 488 188 488 205 c 0,12,13
 488 225 488 225 474.5 234.5 c 128,-1,14
 461 244 461 244 442 244 c 0,15,16
 424 244 424 244 405 236.5 c 128,-1,17
 386 229 386 229 372 213 c 1,18,-1
 335 260 l 1,19,20
 355 282 355 282 385.5 293.5 c 128,-1,21
 416 305 416 305 446 305 c 0,22,23
 501 305 501 305 529 275.5 c 128,-1,24
 557 246 557 246 557 208 c 0,25,26
 557 177 557 177 542 155.5 c 128,-1,27
 527 134 527 134 504.5 117.5 c 128,-1,28
 482 101 482 101 458.5 87 c 128,-1,29
 435 73 435 73 419 59 c 1,30,-1
 568 59 l 1,0,-1
28 661 m 1,31,32
 69 677 69 677 97 693.5 c 128,-1,33
 125 710 125 710 153 737 c 1,34,-1
 201 737 l 1,35,-1
 201 443 l 1,36,-1
 132 443 l 1,37,-1
 132 641 l 1,38,39
 108 628 108 628 88.5 619.5 c 128,-1,40
 69 611 69 611 48 604 c 1,41,-1
 28 661 l 1,31,32
102 0 m 1,42,-1
 20 0 l 1,43,-1
 466 729 l 1,44,-1
 549 729 l 1,45,-1
 102 0 l 1,42,-1
EndSplineSet
Ligature2: "'frac' Diagonal Fractions lookup 13 subtable" one.sinf fraction two.sinf
Ligature2: "'frac' Diagonal Fractions lookup 13 subtable" one.sinf fraction two.sups
Ligature2: "'frac' Diagonal Fractions lookup 13 subtable" one.sinf fraction twoinferior
Ligature2: "'frac' Diagonal Fractions lookup 13 subtable" one.sinf fraction twosuperior
Ligature2: "'frac' Diagonal Fractions lookup 13 subtable" one.sinf fraction two
Ligature2: "'frac' Diagonal Fractions lookup 13 subtable" one.sups fraction two.sinf
Ligature2: "'frac' Diagonal Fractions lookup 13 subtable" one.sups fraction two.sups
Ligature2: "'frac' Diagonal Fractions lookup 13 subtable" one.sups fraction twoinferior
Ligature2: "'frac' Diagonal Fractions lookup 13 subtable" one.sups fraction twosuperior
Ligature2: "'frac' Diagonal Fractions lookup 13 subtable" one.sups fraction two
Ligature2: "'frac' Diagonal Fractions lookup 13 subtable" oneinferior fraction two.sinf
Ligature2: "'frac' Diagonal Fractions lookup 13 subtable" oneinferior fraction two.sups
Ligature2: "'frac' Diagonal Fractions lookup 13 subtable" oneinferior fraction twoinferior
Ligature2: "'frac' Diagonal Fractions lookup 13 subtable" oneinferior fraction twosuperior
Ligature2: "'frac' Diagonal Fractions lookup 13 subtable" oneinferior fraction two
Ligature2: "'frac' Diagonal Fractions lookup 13 subtable" onesuperior fraction two.sinf
Ligature2: "'frac' Diagonal Fractions lookup 13 subtable" onesuperior fraction two.sups
Ligature2: "'frac' Diagonal Fractions lookup 13 subtable" onesuperior fraction twoinferior
Ligature2: "'frac' Diagonal Fractions lookup 13 subtable" onesuperior fraction twosuperior
Ligature2: "'frac' Diagonal Fractions lookup 13 subtable" onesuperior fraction two
Ligature2: "'frac' Diagonal Fractions lookup 13 subtable" one fraction two.sinf
Ligature2: "'frac' Diagonal Fractions lookup 13 subtable" one fraction two.sups
Ligature2: "'frac' Diagonal Fractions lookup 13 subtable" one fraction twoinferior
Ligature2: "'frac' Diagonal Fractions lookup 13 subtable" one fraction twosuperior
Ligature2: "'frac' Diagonal Fractions lookup 13 subtable" one fraction two
EndChar

StartChar: threequarters
Encoding: 190 190 153
Width: 588
VWidth: 1177
Flags: W
LayerCount: 2
Fore
SplineSet
519 294 m 1,0,-1
 519 115 l 1,1,-1
 562 115 l 1,2,-1
 562 57 l 1,3,-1
 519 57 l 1,4,-1
 519 0 l 1,5,-1
 450 0 l 1,6,-1
 450 57 l 1,7,-1
 298 57 l 1,8,-1
 298 105 l 1,9,10
 329 159 329 159 357 203 c 128,-1,11
 385 247 385 247 422 294 c 1,12,-1
 519 294 l 1,0,-1
42 506 m 1,13,14
 55 500 55 500 74.5 495.5 c 128,-1,15
 94 491 94 491 118 491 c 0,16,17
 144 491 144 491 163.5 498.5 c 128,-1,18
 183 506 183 506 183 527 c 0,19,20
 183 552 183 552 160.5 558.5 c 128,-1,21
 138 565 138 565 93 565 c 2,22,-1
 79 565 l 1,23,-1
 79 624 l 1,24,-1
 105 624 l 2,25,26
 136 624 136 624 152 630.5 c 128,-1,27
 168 637 168 637 168 658 c 0,28,29
 168 676 168 676 153.5 681.5 c 128,-1,30
 139 687 139 687 122 687 c 256,31,32
 106 687 106 687 85 681 c 128,-1,33
 64 675 64 675 49 669 c 1,34,-1
 27 720 l 1,35,36
 45 731 45 731 73.5 738.5 c 128,-1,37
 102 746 102 746 133 746 c 0,38,39
 153 746 153 746 172 741.5 c 128,-1,40
 191 737 191 737 205.5 728.5 c 128,-1,41
 220 720 220 720 229 705 c 128,-1,42
 238 690 238 690 238 669 c 0,43,44
 238 651 238 651 229 633.5 c 128,-1,45
 220 616 220 616 201 603 c 1,46,47
 252 579 252 579 252 527 c 0,48,49
 252 511 252 511 245 493.5 c 128,-1,50
 238 476 238 476 222.5 462.5 c 128,-1,51
 207 449 207 449 182.5 440.5 c 128,-1,52
 158 432 158 432 122 432 c 0,53,54
 68 432 68 432 25 449 c 1,55,-1
 42 506 l 1,13,14
450 244 m 1,56,57
 425 212 425 212 405 179 c 128,-1,58
 385 146 385 146 367 115 c 1,59,-1
 450 115 l 1,60,-1
 450 244 l 1,56,57
118 0 m 1,61,-1
 35 0 l 1,62,-1
 482 729 l 1,63,-1
 564 729 l 1,64,-1
 118 0 l 1,61,-1
EndSplineSet
Ligature2: "'frac' Diagonal Fractions lookup 13 subtable" three.sinf fraction four.sinf
Ligature2: "'frac' Diagonal Fractions lookup 13 subtable" three.sinf fraction four.sups
Ligature2: "'frac' Diagonal Fractions lookup 13 subtable" three.sinf fraction fourinferior
Ligature2: "'frac' Diagonal Fractions lookup 13 subtable" three.sinf fraction foursuperior
Ligature2: "'frac' Diagonal Fractions lookup 13 subtable" three.sinf fraction four
Ligature2: "'frac' Diagonal Fractions lookup 13 subtable" three.sups fraction four.sinf
Ligature2: "'frac' Diagonal Fractions lookup 13 subtable" three.sups fraction four.sups
Ligature2: "'frac' Diagonal Fractions lookup 13 subtable" three.sups fraction fourinferior
Ligature2: "'frac' Diagonal Fractions lookup 13 subtable" three.sups fraction foursuperior
Ligature2: "'frac' Diagonal Fractions lookup 13 subtable" three.sups fraction four
Ligature2: "'frac' Diagonal Fractions lookup 13 subtable" threeinferior fraction four.sinf
Ligature2: "'frac' Diagonal Fractions lookup 13 subtable" threeinferior fraction four.sups
Ligature2: "'frac' Diagonal Fractions lookup 13 subtable" threeinferior fraction fourinferior
Ligature2: "'frac' Diagonal Fractions lookup 13 subtable" threeinferior fraction foursuperior
Ligature2: "'frac' Diagonal Fractions lookup 13 subtable" threeinferior fraction four
Ligature2: "'frac' Diagonal Fractions lookup 13 subtable" threesuperior fraction four.sinf
Ligature2: "'frac' Diagonal Fractions lookup 13 subtable" threesuperior fraction four.sups
Ligature2: "'frac' Diagonal Fractions lookup 13 subtable" threesuperior fraction fourinferior
Ligature2: "'frac' Diagonal Fractions lookup 13 subtable" threesuperior fraction foursuperior
Ligature2: "'frac' Diagonal Fractions lookup 13 subtable" threesuperior fraction four
Ligature2: "'frac' Diagonal Fractions lookup 13 subtable" three fraction four.sinf
Ligature2: "'frac' Diagonal Fractions lookup 13 subtable" three fraction four.sups
Ligature2: "'frac' Diagonal Fractions lookup 13 subtable" three fraction fourinferior
Ligature2: "'frac' Diagonal Fractions lookup 13 subtable" three fraction foursuperior
Ligature2: "'frac' Diagonal Fractions lookup 13 subtable" three fraction four
EndChar

StartChar: questiondown
Encoding: 191 191 154
Width: 588
VWidth: 1177
Flags: W
LayerCount: 2
Fore
SplineSet
373 286 m 1,0,-1
 375 263 l 2,1,2
 375 229 375 229 362.5 203 c 128,-1,3
 350 177 350 177 331.5 154.5 c 128,-1,4
 313 132 313 132 291.5 112.5 c 128,-1,5
 270 93 270 93 251.5 73 c 128,-1,6
 233 53 233 53 220.5 30.5 c 128,-1,7
 208 8 208 8 208 -19 c 0,8,9
 208 -64 208 -64 236.5 -91 c 128,-1,10
 265 -118 265 -118 319 -118 c 0,11,12
 388 -118 388 -118 456 -82 c 1,13,-1
 483 -158 l 1,14,15
 448 -177 448 -177 403 -188.5 c 128,-1,16
 358 -200 358 -200 307 -200 c 0,17,18
 247 -200 247 -200 209 -183.5 c 128,-1,19
 171 -167 171 -167 148.5 -142 c 128,-1,20
 126 -117 126 -117 117 -86 c 128,-1,21
 108 -55 108 -55 108 -27 c 0,22,23
 108 8 108 8 121.5 35 c 128,-1,24
 135 62 135 62 155.5 85 c 128,-1,25
 176 108 176 108 199.5 129.5 c 128,-1,26
 223 151 223 151 243 174.5 c 128,-1,27
 263 198 263 198 276.5 224.5 c 128,-1,28
 290 251 290 251 290 286 c 1,29,-1
 373 286 l 1,0,-1
323 548 m 0,30,31
 356 548 356 548 379 526 c 128,-1,32
 402 504 402 504 402 468 c 256,33,34
 402 431 402 431 379 410 c 128,-1,35
 356 389 356 389 323 389 c 0,36,37
 291 389 291 389 267.5 410 c 128,-1,38
 244 431 244 431 244 468 c 256,39,40
 244 505 244 505 267.5 526.5 c 128,-1,41
 291 548 291 548 323 548 c 0,30,31
EndSplineSet
Substitution2: "'case' Case-Sensitive Forms lookup 17 subtable" Questiondown
EndChar

StartChar: Aring
Encoding: 197 197 160
Width: 588
VWidth: 1177
Flags: W
LayerCount: 2
Fore
SplineSet
476 0 m 1,0,-1
 432 191 l 1,1,-1
 152 191 l 1,2,-1
 110 0 l 1,3,-1
 11 0 l 1,4,5
 30 74 30 74 55 165.5 c 128,-1,6
 80 257 80 257 108.5 350.5 c 128,-1,7
 137 444 137 444 167 532.5 c 128,-1,8
 197 621 197 621 227 690 c 1,9,10
 211 704 211 704 199 726 c 128,-1,11
 187 748 187 748 187 775 c 0,12,13
 187 824 187 824 219.5 853 c 128,-1,14
 252 882 252 882 296 882 c 256,15,16
 340 882 340 882 372 853 c 128,-1,17
 404 824 404 824 404 775 c 0,18,19
 404 749 404 749 393 726.5 c 128,-1,20
 382 704 382 704 365 691 c 1,21,22
 394 622 394 622 424.5 533 c 128,-1,23
 455 444 455 444 482.5 350 c 128,-1,24
 510 256 510 256 534 164.5 c 128,-1,25
 558 73 558 73 578 0 c 1,26,-1
 476 0 l 1,0,-1
293 644 m 1,27,28
 266 570 266 570 234.5 472.5 c 128,-1,29
 203 375 203 375 174 271 c 1,30,-1
 410 271 l 1,31,32
 383 377 383 377 351.5 475 c 128,-1,33
 320 573 320 573 293 644 c 1,27,28
351 775 m 256,34,35
 351 802 351 802 335 817.5 c 128,-1,36
 319 833 319 833 296 833 c 256,37,38
 272 833 272 833 256 817.5 c 128,-1,39
 240 802 240 802 240 775 c 256,40,41
 240 748 240 748 256 732.5 c 128,-1,42
 272 717 272 717 296 717 c 256,43,44
 320 717 320 717 335.5 732.5 c 128,-1,45
 351 748 351 748 351 775 c 256,34,35
EndSplineSet
EndChar

StartChar: AE
Encoding: 198 198 161
Width: 588
VWidth: 1177
Flags: W
LayerCount: 2
Fore
SplineSet
310 0 m 1,0,-1
 310 191 l 1,1,-1
 171 191 l 1,2,-1
 127 0 l 1,3,-1
 32 0 l 1,4,5
 85 205 85 205 139 384.5 c 128,-1,6
 193 564 193 564 258 729 c 1,7,-1
 552 729 l 1,8,-1
 552 647 l 1,9,-1
 402 647 l 1,10,-1
 402 423 l 1,11,-1
 525 423 l 1,12,-1
 525 340 l 1,13,-1
 402 340 l 1,14,-1
 402 82 l 1,15,-1
 568 82 l 1,16,-1
 568 0 l 1,17,-1
 310 0 l 1,0,-1
310 667 m 1,18,19
 277 563 277 563 247 460.5 c 128,-1,20
 217 358 217 358 192 271 c 1,21,-1
 310 271 l 1,22,-1
 310 667 l 1,18,19
EndSplineSet
EndChar

StartChar: Ccedilla
Encoding: 199 199 162
Width: 588
VWidth: 1177
Flags: W
LayerCount: 2
Fore
SplineSet
373 -39 m 1,0,1
 404 -53 404 -53 417.5 -70.5 c 128,-1,2
 431 -88 431 -88 431 -122 c 0,3,4
 431 -134 431 -134 425.5 -147.5 c 128,-1,5
 420 -161 420 -161 408 -172.5 c 128,-1,6
 396 -184 396 -184 375.5 -191.5 c 128,-1,7
 355 -199 355 -199 324 -199 c 0,8,9
 297 -199 297 -199 273.5 -195 c 128,-1,10
 250 -191 250 -191 237 -185 c 1,11,-1
 249 -125 l 1,12,13
 262 -130 262 -130 276 -132.5 c 128,-1,14
 290 -135 290 -135 307 -135 c 0,15,16
 345 -135 345 -135 345 -112 c 256,17,18
 345 -88 345 -88 302 -75 c 2,19,-1
 293 -73 l 1,20,21
 298 -60 298 -60 305 -44 c 128,-1,22
 312 -28 312 -28 319 -13 c 1,23,24
 261 -7 261 -7 212.5 18.5 c 128,-1,25
 164 44 164 44 128.5 91 c 128,-1,26
 93 138 93 138 73.5 206 c 128,-1,27
 54 274 54 274 54 365 c 0,28,29
 54 458 54 458 78 529 c 128,-1,30
 102 600 102 600 143.5 648 c 128,-1,31
 185 696 185 696 240.5 721 c 128,-1,32
 296 746 296 746 358 746 c 0,33,34
 402 746 402 746 447 734 c 128,-1,35
 492 722 492 722 536 695 c 1,36,-1
 508 615 l 1,37,38
 430 660 430 660 362 660 c 0,39,40
 314 660 314 660 275.5 639 c 128,-1,41
 237 618 237 618 210 579.5 c 128,-1,42
 183 541 183 541 168 486.5 c 128,-1,43
 153 432 153 432 153 365 c 0,44,45
 153 290 153 290 169 234.5 c 128,-1,46
 185 179 185 179 213 142.5 c 128,-1,47
 241 106 241 106 280.5 88.5 c 128,-1,48
 320 71 320 71 366 71 c 0,49,50
 400 71 400 71 438 79.5 c 128,-1,51
 476 88 476 88 516 111 c 1,52,-1
 542 31 l 1,53,54
 474 -8 474 -8 386 -14 c 1,55,-1
 373 -39 l 1,0,1
EndSplineSet
EndChar

StartChar: Eth
Encoding: 208 208 171
Width: 588
VWidth: 1177
Flags: W
LayerCount: 2
Fore
SplineSet
542 365 m 0,0,1
 542 264 542 264 518 193 c 128,-1,2
 494 122 494 122 452 78 c 128,-1,3
 410 34 410 34 352 14 c 128,-1,4
 294 -6 294 -6 227 -6 c 0,5,6
 155 -6 155 -6 84 12 c 1,7,-1
 84 343 l 1,8,-1
 21 343 l 1,9,-1
 21 418 l 1,10,-1
 84 418 l 1,11,-1
 84 718 l 1,12,13
 156 736 156 736 227 736 c 0,14,15
 294 736 294 736 352 716 c 128,-1,16
 410 696 410 696 452 651.5 c 128,-1,17
 494 607 494 607 518 536 c 128,-1,18
 542 465 542 465 542 365 c 0,0,1
181 81 m 1,19,20
 194 79 194 79 208.5 78.5 c 128,-1,21
 223 78 223 78 236 78 c 0,22,23
 285 78 285 78 323.5 94 c 128,-1,24
 362 110 362 110 388.5 144.5 c 128,-1,25
 415 179 415 179 429 234 c 128,-1,26
 443 289 443 289 443 365 c 0,27,28
 443 513 443 513 389.5 583 c 128,-1,29
 336 653 336 653 232 653 c 0,30,31
 203 653 203 653 181 649 c 1,32,-1
 181 418 l 1,33,-1
 297 418 l 1,34,-1
 297 343 l 1,35,-1
 181 343 l 1,36,-1
 181 81 l 1,19,20
EndSplineSet
EndChar

StartChar: multiply
Encoding: 215 215 178
Width: 588
VWidth: 1177
Flags: W
LayerCount: 2
Fore
SplineSet
448 97 m 1,0,-1
 294 251 l 1,1,-1
 141 97 l 1,2,-1
 82 155 l 1,3,-1
 236 310 l 1,4,-1
 82 463 l 1,5,-1
 141 522 l 1,6,-1
 294 369 l 1,7,-1
 448 522 l 1,8,-1
 506 463 l 1,9,-1
 353 310 l 1,10,-1
 506 155 l 1,11,-1
 448 97 l 1,0,-1
EndSplineSet
EndChar

StartChar: Oslash
Encoding: 216 216 179
Width: 588
VWidth: 1177
Flags: W
LayerCount: 2
Fore
SplineSet
34 365 m 0,0,1
 34 463 34 463 53 535 c 128,-1,2
 72 607 72 607 106 653.5 c 128,-1,3
 140 700 140 700 188 723 c 128,-1,4
 236 746 236 746 294 746 c 0,5,6
 360 746 360 746 416 714 c 1,7,-1
 441 767 l 1,8,-1
 514 730 l 1,9,-1
 478 658 l 1,10,11
 515 610 515 610 535.5 537.5 c 128,-1,12
 556 465 556 465 556 365 c 0,13,14
 556 267 556 267 536.5 195.5 c 128,-1,15
 517 124 517 124 483 76.5 c 128,-1,16
 449 29 449 29 400.5 7 c 128,-1,17
 352 -15 352 -15 294 -15 c 0,18,19
 221 -15 221 -15 167 18 c 1,20,-1
 140 -39 l 1,21,-1
 68 -2 l 1,22,-1
 106 75 l 1,23,24
 71 122 71 122 52.5 193.5 c 128,-1,25
 34 265 34 265 34 365 c 0,0,1
457 365 m 0,26,27
 457 424 457 424 450.5 473.5 c 128,-1,28
 444 523 444 523 430 559 c 1,29,-1
 205 95 l 1,30,31
 223 80 223 80 246 74 c 128,-1,32
 269 68 269 68 292 68 c 0,33,34
 374 68 374 68 415.5 144.5 c 128,-1,35
 457 221 457 221 457 365 c 0,26,27
133 365 m 0,36,37
 133 308 133 308 136.5 259.5 c 128,-1,38
 140 211 140 211 153 174 c 1,39,-1
 377 636 l 1,40,41
 359 650 359 650 338 656 c 128,-1,42
 317 662 317 662 292 662 c 0,43,44
 211 662 211 662 172 585.5 c 128,-1,45
 133 509 133 509 133 365 c 0,36,37
EndSplineSet
EndChar

StartChar: Thorn
Encoding: 222 222 185
Width: 588
VWidth: 1177
Flags: W
LayerCount: 2
Fore
SplineSet
86 729 m 1,0,-1
 183 729 l 1,1,-1
 183 608 l 1,2,3
 220 612 220 612 254 611 c 0,4,5
 389 611 389 611 462.5 557.5 c 128,-1,6
 536 504 536 504 536 400 c 0,7,8
 536 331 536 331 515.5 284 c 128,-1,9
 495 237 495 237 457 207 c 128,-1,10
 419 177 419 177 365.5 164 c 128,-1,11
 312 151 312 151 247 151 c 2,12,-1
 183 151 l 1,13,-1
 183 0 l 1,14,-1
 86 0 l 1,15,-1
 86 729 l 1,0,-1
270 527 m 0,16,17
 241 527 241 527 220 527 c 128,-1,18
 199 527 199 527 183 525 c 1,19,-1
 183 232 l 1,20,-1
 251 232 l 2,21,22
 292 232 292 232 326 239.5 c 128,-1,23
 360 247 360 247 385 266 c 128,-1,24
 410 285 410 285 423.5 316 c 128,-1,25
 437 347 437 347 437 396 c 0,26,27
 437 435 437 435 422.5 460 c 128,-1,28
 408 485 408 485 384 500 c 128,-1,29
 360 515 360 515 330.5 521 c 128,-1,30
 301 527 301 527 270 527 c 0,16,17
EndSplineSet
EndChar

StartChar: germandbls
Encoding: 223 223 186
Width: 588
VWidth: 1177
Flags: W
LayerCount: 2
Fore
SplineSet
471 648 m 0,0,1
 471 620 471 620 462 596 c 128,-1,2
 453 572 453 572 440.5 553 c 128,-1,3
 428 534 428 534 411.5 517.5 c 128,-1,4
 395 501 395 501 380 485 c 0,5,6
 364 466 364 466 356.5 454 c 128,-1,7
 349 442 349 442 349 424 c 0,8,9
 349 400 349 400 364.5 385 c 128,-1,10
 380 370 380 370 404 356.5 c 128,-1,11
 428 343 428 343 455 328.5 c 128,-1,12
 482 314 482 314 505.5 293.5 c 128,-1,13
 529 273 529 273 545 243 c 128,-1,14
 561 213 561 213 561 167 c 0,15,16
 561 77 561 77 512.5 32 c 128,-1,17
 464 -13 464 -13 362 -13 c 0,18,19
 343 -13 343 -13 323.5 -9.5 c 128,-1,20
 304 -6 304 -6 287 -1 c 128,-1,21
 270 4 270 4 257.5 8.5 c 128,-1,22
 245 13 245 13 239 16 c 1,23,-1
 256 102 l 1,24,25
 262 98 262 98 273.5 93 c 128,-1,26
 285 88 285 88 300.5 83 c 128,-1,27
 316 78 316 78 333.5 74.5 c 128,-1,28
 351 71 351 71 369 71 c 0,29,30
 417 71 417 71 439.5 94.5 c 128,-1,31
 462 118 462 118 462 163 c 0,32,33
 462 195 462 195 446 215.5 c 128,-1,34
 430 236 430 236 406.5 251.5 c 128,-1,35
 383 267 383 267 354.5 280.5 c 128,-1,36
 326 294 326 294 302.5 311.5 c 128,-1,37
 279 329 279 329 263 352 c 128,-1,38
 247 375 247 375 247 410 c 0,39,40
 247 452 247 452 265 480.5 c 128,-1,41
 283 509 283 509 310 536 c 0,42,43
 335 560 335 560 354 583.5 c 128,-1,44
 373 607 373 607 373 634 c 0,45,46
 373 679 373 679 352 705 c 128,-1,47
 331 731 331 731 284 731 c 0,48,49
 235 731 235 731 208 691 c 128,-1,50
 181 651 181 651 181 581 c 2,51,-1
 181 0 l 1,52,-1
 84 0 l 1,53,-1
 84 583 l 2,54,55
 84 635 84 635 97.5 678 c 128,-1,56
 111 721 111 721 135.5 751.5 c 128,-1,57
 160 782 160 782 196 799 c 128,-1,58
 232 816 232 816 277 816 c 0,59,60
 331 816 331 816 368.5 802.5 c 128,-1,61
 406 789 406 789 428.5 765.5 c 128,-1,62
 451 742 451 742 461 711.5 c 128,-1,63
 471 681 471 681 471 648 c 0,0,1
EndSplineSet
EndChar

StartChar: ae
Encoding: 230 230 193
Width: 588
VWidth: 1177
Flags: W
LayerCount: 2
Fore
SplineSet
177 559 m 0,0,1
 229 559 229 559 261.5 539 c 128,-1,2
 294 519 294 519 312 484 c 1,3,4
 331 519 331 519 355.5 539 c 128,-1,5
 380 559 380 559 411 559 c 0,6,7
 563 559 563 559 563 282 c 0,8,9
 563 276 563 276 563 266 c 128,-1,10
 563 256 563 256 562 247 c 1,11,-1
 344 247 l 1,12,13
 344 162 344 162 374.5 118 c 128,-1,14
 405 74 405 74 453 74 c 0,15,16
 491 74 491 74 535 100 c 1,17,-1
 548 18 l 1,18,19
 543 13 543 13 532 7.5 c 128,-1,20
 521 2 521 2 506.5 -2.5 c 128,-1,21
 492 -7 492 -7 475.5 -10 c 128,-1,22
 459 -13 459 -13 444 -13 c 0,23,24
 405 -13 405 -13 375 0.5 c 128,-1,25
 345 14 345 14 323 38 c 1,26,27
 291 11 291 11 258 -1 c 128,-1,28
 225 -13 225 -13 191 -13 c 0,29,30
 152 -13 152 -13 123 1.5 c 128,-1,31
 94 16 94 16 74.5 40 c 128,-1,32
 55 64 55 64 46 94 c 128,-1,33
 37 124 37 124 37 155 c 0,34,35
 37 192 37 192 47 224.5 c 128,-1,36
 57 257 57 257 77 281 c 128,-1,37
 97 305 97 305 125.5 318.5 c 128,-1,38
 154 332 154 332 193 332 c 0,39,40
 207 332 207 332 224 329 c 128,-1,41
 241 326 241 326 256 319 c 1,42,-1
 256 346 l 2,43,44
 256 401 256 401 234.5 439 c 128,-1,45
 213 477 213 477 168 477 c 0,46,47
 142 477 142 477 117.5 470 c 128,-1,48
 93 463 93 463 84 456 c 1,49,-1
 73 536 l 1,50,51
 84 545 84 545 115 552 c 128,-1,52
 146 559 146 559 177 559 c 0,0,1
203 253 m 0,53,54
 164 253 164 253 144.5 228.5 c 128,-1,55
 125 204 125 204 125 161 c 0,56,57
 125 126 125 126 143 97.5 c 128,-1,58
 161 69 161 69 199 69 c 0,59,60
 219 69 219 69 242 78.5 c 128,-1,61
 265 88 265 88 282 104 c 1,62,63
 269 133 269 133 261.5 168 c 128,-1,64
 254 203 254 203 252 240 c 1,65,66
 229 253 229 253 203 253 c 0,53,54
475 326 m 1,67,68
 475 370 475 370 469.5 399 c 128,-1,69
 464 428 464 428 455 445.5 c 128,-1,70
 446 463 446 463 435.5 470 c 128,-1,71
 425 477 425 477 416 477 c 0,72,73
 389 477 389 477 367.5 443 c 128,-1,74
 346 409 346 409 346 326 c 1,75,-1
 475 326 l 1,67,68
EndSplineSet
Substitution2: "'case' Case-Sensitive Forms lookup 18 subtable" AE
EndChar

StartChar: ccedilla
Encoding: 231 231 194
Width: 588
VWidth: 1177
Flags: W
LayerCount: 2
Fore
SplineSet
346 -39 m 1,0,1
 377 -53 377 -53 390.5 -70.5 c 128,-1,2
 404 -88 404 -88 404 -122 c 0,3,4
 404 -134 404 -134 398.5 -147.5 c 128,-1,5
 393 -161 393 -161 381 -172.5 c 128,-1,6
 369 -184 369 -184 348 -191.5 c 128,-1,7
 327 -199 327 -199 297 -199 c 0,8,9
 270 -199 270 -199 246.5 -195 c 128,-1,10
 223 -191 223 -191 210 -185 c 1,11,-1
 221 -125 l 1,12,13
 234 -130 234 -130 248.5 -132.5 c 128,-1,14
 263 -135 263 -135 280 -135 c 0,15,16
 318 -135 318 -135 318 -112 c 256,17,18
 318 -88 318 -88 274 -75 c 2,19,-1
 266 -73 l 1,20,21
 271 -60 271 -60 278.5 -42.5 c 128,-1,22
 286 -25 286 -25 294 -8 c 1,23,24
 187 7 187 7 122.5 77 c 128,-1,25
 58 147 58 147 58 272 c 0,26,27
 58 346 58 346 81.5 400.5 c 128,-1,28
 105 455 105 455 146 490 c 128,-1,29
 187 525 187 525 242 542 c 128,-1,30
 297 559 297 559 359 559 c 0,31,32
 399 559 399 559 438.5 554 c 128,-1,33
 478 549 478 549 523 535 c 1,34,-1
 501 451 l 1,35,36
 462 465 462 465 429.5 469 c 128,-1,37
 397 473 397 473 364 473 c 0,38,39
 322 473 322 473 284 462 c 128,-1,40
 246 451 246 451 218.5 427 c 128,-1,41
 191 403 191 403 174.5 364.5 c 128,-1,42
 158 326 158 326 158 272 c 0,43,44
 158 220 158 220 173 183 c 128,-1,45
 188 146 188 146 216 122 c 128,-1,46
 244 98 244 98 283 86 c 128,-1,47
 322 74 322 74 369 74 c 0,48,49
 407 74 407 74 441.5 78 c 128,-1,50
 476 82 476 82 517 97 c 1,51,-1
 531 15 l 1,52,53
 491 1 491 1 450 -5.5 c 128,-1,54
 409 -12 409 -12 359 -13 c 1,55,-1
 346 -39 l 1,0,1
EndSplineSet
Substitution2: "'case' Case-Sensitive Forms lookup 18 subtable" Ccedilla
EndChar

StartChar: eth
Encoding: 240 240 203
Width: 588
VWidth: 1177
Flags: W
LayerCount: 2
Fore
SplineSet
542 691 m 1,0,-1
 429 653 l 1,1,2
 463 595 463 595 486 512 c 128,-1,3
 509 429 509 429 509 323 c 0,4,5
 509 265 509 265 499 205.5 c 128,-1,6
 489 146 489 146 463 97 c 128,-1,7
 437 48 437 48 392 17.5 c 128,-1,8
 347 -13 347 -13 278 -13 c 0,9,10
 225 -13 225 -13 185 9.5 c 128,-1,11
 145 32 145 32 118.5 68.5 c 128,-1,12
 92 105 92 105 78.5 149.5 c 128,-1,13
 65 194 65 194 65 240 c 0,14,15
 65 374 65 374 121.5 445 c 128,-1,16
 178 516 178 516 276 516 c 0,17,18
 321 516 321 516 355 499 c 128,-1,19
 389 482 389 482 405 466 c 1,20,21
 399 508 399 508 382.5 547.5 c 128,-1,22
 366 587 366 587 343 623 c 1,23,-1
 217 580 l 1,24,-1
 192 645 l 1,25,-1
 300 683 l 1,26,27
 282 703 282 703 264 721.5 c 128,-1,28
 246 740 246 740 219 760 c 1,29,-1
 273 816 l 1,30,31
 297 801 297 801 327 775.5 c 128,-1,32
 357 750 357 750 388 713 c 1,33,-1
 517 757 l 1,34,-1
 542 691 l 1,0,-1
413 319 m 0,35,36
 413 345 413 345 412.5 355.5 c 128,-1,37
 412 366 412 366 412 376 c 1,38,39
 383 408 383 408 349.5 420.5 c 128,-1,40
 316 433 316 433 289 433 c 0,41,42
 223 433 223 433 192 380 c 128,-1,43
 161 327 161 327 161 244 c 0,44,45
 161 210 161 210 169 178 c 128,-1,46
 177 146 177 146 191.5 122 c 128,-1,47
 206 98 206 98 228 83.5 c 128,-1,48
 250 69 250 69 278 69 c 0,49,50
 318 69 318 69 344.5 91 c 128,-1,51
 371 113 371 113 386.5 148.5 c 128,-1,52
 402 184 402 184 407.5 228.5 c 128,-1,53
 413 273 413 273 413 319 c 0,35,36
EndSplineSet
Substitution2: "'case' Case-Sensitive Forms lookup 18 subtable" Eth
EndChar

StartChar: divide
Encoding: 247 247 210
Width: 588
VWidth: 1177
Flags: W
LayerCount: 2
Fore
SplineSet
54 351 m 1,0,-1
 536 351 l 1,1,-1
 536 269 l 1,2,-1
 54 269 l 1,3,-1
 54 351 l 1,0,-1
363 113 m 0,4,5
 363 85 363 85 344 63.5 c 128,-1,6
 325 42 325 42 294 42 c 0,7,8
 262 42 262 42 243 63.5 c 128,-1,9
 224 85 224 85 224 113 c 0,10,11
 224 142 224 142 243.5 164 c 128,-1,12
 263 186 263 186 294 186 c 256,13,14
 325 186 325 186 344 164 c 128,-1,15
 363 142 363 142 363 113 c 0,4,5
363 504 m 0,16,17
 363 476 363 476 344 454 c 128,-1,18
 325 432 325 432 294 432 c 0,19,20
 262 432 262 432 243 454 c 128,-1,21
 224 476 224 476 224 504 c 0,22,23
 224 533 224 533 243.5 554.5 c 128,-1,24
 263 576 263 576 294 576 c 256,25,26
 325 576 325 576 344 554.5 c 128,-1,27
 363 533 363 533 363 504 c 0,16,17
EndSplineSet
EndChar

StartChar: oslash
Encoding: 248 248 211
Width: 588
VWidth: 1177
Flags: W
LayerCount: 2
Fore
SplineSet
53 5 m 1,0,-1
 106 78 l 1,1,2
 79 116 79 116 63 164.5 c 128,-1,3
 47 213 47 213 47 273 c 0,4,5
 47 338 47 338 65.5 391 c 128,-1,6
 84 444 84 444 117 481 c 128,-1,7
 150 518 150 518 195 538.5 c 128,-1,8
 240 559 240 559 293 559 c 0,9,10
 374 559 374 559 431 517 c 1,11,-1
 481 584 l 1,12,-1
 536 542 l 1,13,-1
 482 468 l 1,14,15
 510 431 510 431 526 382 c 128,-1,16
 542 333 542 333 542 273 c 0,17,18
 542 208 542 208 523.5 156 c 128,-1,19
 505 104 505 104 472 66 c 128,-1,20
 439 28 439 28 393 7.5 c 128,-1,21
 347 -13 347 -13 293 -13 c 0,22,23
 254 -13 254 -13 220 -2 c 128,-1,24
 186 9 186 9 157 29 c 1,25,-1
 107 -38 l 1,26,-1
 53 5 l 1,0,-1
442 273 m 0,27,28
 442 306 442 306 437.5 335.5 c 128,-1,29
 433 365 433 365 423 389 c 1,30,-1
 210 100 l 1,31,32
 226 86 226 86 247.5 80 c 128,-1,33
 269 74 269 74 293 74 c 0,34,35
 361 74 361 74 401.5 127.5 c 128,-1,36
 442 181 442 181 442 273 c 0,27,28
147 273 m 0,37,38
 147 236 147 236 151 209.5 c 128,-1,39
 155 183 155 183 166 159 c 1,40,-1
 378 446 l 1,41,42
 362 460 362 460 340 466.5 c 128,-1,43
 318 473 318 473 293 473 c 0,44,45
 226 473 226 473 186.5 419.5 c 128,-1,46
 147 366 147 366 147 273 c 0,37,38
EndSplineSet
Substitution2: "'case' Case-Sensitive Forms lookup 18 subtable" Oslash
EndChar

StartChar: thorn
Encoding: 254 254 217
Width: 588
VWidth: 1177
Flags: W
LayerCount: 2
Fore
SplineSet
542 272 m 0,0,1
 542 210 542 210 526 157.5 c 128,-1,2
 510 105 510 105 480 67 c 128,-1,3
 450 29 450 29 406.5 8 c 128,-1,4
 363 -13 363 -13 307 -13 c 0,5,6
 263 -13 263 -13 230.5 -2.5 c 128,-1,7
 198 8 198 8 181 21 c 1,8,-1
 181 -194 l 1,9,-1
 84 -194 l 1,10,-1
 84 800 l 1,11,-1
 181 816 l 1,12,-1
 181 527 l 1,13,14
 215 545 215 545 247 552 c 128,-1,15
 279 559 279 559 310 559 c 0,16,17
 359 559 359 559 401.5 540 c 128,-1,18
 444 521 444 521 475 483.5 c 128,-1,19
 506 446 506 446 524 393 c 128,-1,20
 542 340 542 340 542 272 c 0,0,1
442 272 m 0,21,22
 442 323 442 323 431 361 c 128,-1,23
 420 399 420 399 401 424 c 128,-1,24
 382 449 382 449 355.5 461 c 128,-1,25
 329 473 329 473 298 473 c 256,26,27
 267 473 267 473 239.5 462.5 c 128,-1,28
 212 452 212 452 181 432 c 1,29,-1
 181 115 l 1,30,31
 197 100 197 100 229 87 c 128,-1,32
 261 74 261 74 296 74 c 0,33,34
 335 74 335 74 362.5 89.5 c 128,-1,35
 390 105 390 105 407.5 131.5 c 128,-1,36
 425 158 425 158 433.5 194 c 128,-1,37
 442 230 442 230 442 272 c 0,21,22
EndSplineSet
Substitution2: "'case' Case-Sensitive Forms lookup 18 subtable" Thorn
EndChar

StartChar: Aogonek
Encoding: 260 260 223
Width: 588
VWidth: 1177
Flags: W
LayerCount: 2
Fore
SplineSet
577 2 m 1,0,1
 561 -7 561 -7 548.5 -17.5 c 128,-1,2
 536 -28 536 -28 523 -41 c 0,3,4
 508 -57 508 -57 499.5 -69.5 c 128,-1,5
 491 -82 491 -82 491 -98 c 0,6,7
 491 -129 491 -129 534 -128 c 0,8,9
 541 -128 541 -128 552.5 -126.5 c 128,-1,10
 564 -125 564 -125 576 -121 c 1,11,-1
 584 -185 l 1,12,13
 557 -197 557 -197 515 -197 c 0,14,15
 455 -197 455 -197 429 -177 c 128,-1,16
 403 -157 403 -157 403 -119 c 0,17,18
 403 -85 403 -85 426.5 -55.5 c 128,-1,19
 450 -26 450 -26 477 -4 c 1,20,-1
 432 191 l 1,21,-1
 152 191 l 1,22,-1
 110 0 l 1,23,-1
 11 0 l 1,24,25
 31 78 31 78 55.5 168.5 c 128,-1,26
 80 259 80 259 109 354.5 c 128,-1,27
 138 450 138 450 169.5 546 c 128,-1,28
 201 642 201 642 237 729 c 1,29,-1
 357 729 l 1,30,31
 391 642 391 642 422 546.5 c 128,-1,32
 453 451 453 451 481 355.5 c 128,-1,33
 509 260 509 260 533 170 c 128,-1,34
 557 80 557 80 577 2 c 1,0,1
293 644 m 1,35,36
 266 570 266 570 234.5 472.5 c 128,-1,37
 203 375 203 375 174 271 c 1,38,-1
 410 271 l 1,39,40
 383 377 383 377 351.5 475 c 128,-1,41
 320 573 320 573 293 644 c 1,35,36
EndSplineSet
EndChar

StartChar: aogonek
Encoding: 261 261 224
Width: 588
VWidth: 1177
Flags: W
LayerCount: 2
Fore
SplineSet
291 559 m 0,0,1
 352 559 352 559 394 544 c 128,-1,2
 436 529 436 529 462 502 c 128,-1,3
 488 475 488 475 498.5 436 c 128,-1,4
 509 397 509 397 509 351 c 2,5,-1
 509 9 l 1,6,7
 498 2 498 2 483 -10 c 128,-1,8
 468 -22 468 -22 453.5 -37 c 128,-1,9
 439 -52 439 -52 428.5 -68 c 128,-1,10
 418 -84 418 -84 418 -98 c 0,11,12
 418 -129 418 -129 459 -128 c 0,13,14
 466 -128 466 -128 478 -126.5 c 128,-1,15
 490 -125 490 -125 503 -121 c 1,16,-1
 510 -185 l 1,17,18
 484 -197 484 -197 441 -197 c 0,19,20
 381 -197 381 -197 353 -175.5 c 128,-1,21
 325 -154 325 -154 325 -117 c 0,22,23
 325 -92 325 -92 341 -67 c 128,-1,24
 357 -42 357 -42 389 -8 c 1,25,26
 369 -10 369 -10 347 -11.5 c 128,-1,27
 325 -13 325 -13 304 -13 c 0,28,29
 259 -13 259 -13 216.5 -5.5 c 128,-1,30
 174 2 174 2 141 21.5 c 128,-1,31
 108 41 108 41 88 75.5 c 128,-1,32
 68 110 68 110 68 163 c 0,33,34
 68 210 68 210 89 242 c 128,-1,35
 110 274 110 274 142 294 c 128,-1,36
 174 314 174 314 216 323 c 128,-1,37
 258 332 258 332 300 332 c 0,38,39
 358 332 358 332 413 319 c 1,40,-1
 413 346 l 2,41,42
 413 371 413 371 408 394 c 128,-1,43
 403 417 403 417 388 436 c 128,-1,44
 373 455 373 455 348 466 c 128,-1,45
 323 477 323 477 283 477 c 0,46,47
 232 477 232 477 194.5 470 c 128,-1,48
 157 463 157 463 137 456 c 1,49,-1
 125 536 l 1,50,51
 145 545 145 545 191.5 552 c 128,-1,52
 238 559 238 559 291 559 c 0,0,1
300 69 m 0,53,54
 337 69 337 69 366 71.5 c 128,-1,55
 395 74 395 74 413 78 c 1,56,-1
 413 240 l 1,57,58
 394 246 394 246 368 249.5 c 128,-1,59
 342 253 342 253 312 253 c 0,60,61
 285 253 285 253 259 249 c 128,-1,62
 233 245 233 245 213 234.5 c 128,-1,63
 193 224 193 224 180 207 c 128,-1,64
 167 190 167 190 167 164 c 0,65,66
 167 111 167 111 203 90 c 128,-1,67
 239 69 239 69 300 69 c 0,53,54
EndSplineSet
Substitution2: "'case' Case-Sensitive Forms lookup 18 subtable" Aogonek
EndChar

StartChar: dcaron
Encoding: 271 271 234
Width: 588
VWidth: 1177
Flags: W
LayerCount: 2
Fore
SplineSet
331 431 m 1,0,1
 318 446 318 446 292 459.5 c 128,-1,2
 266 473 266 473 237 473 c 0,3,4
 206 473 206 473 185 458 c 128,-1,5
 164 443 164 443 150.5 416.5 c 128,-1,6
 137 390 137 390 130.5 353 c 128,-1,7
 124 316 124 316 124 273 c 0,8,9
 124 178 124 178 159 126 c 128,-1,10
 194 74 194 74 251 74 c 0,11,12
 280 74 280 74 301 77.5 c 128,-1,13
 322 81 322 81 331 85 c 1,14,-1
 331 431 l 1,0,1
331 800 m 1,15,-1
 428 816 l 1,16,-1
 428 15 l 1,17,18
 400 6 400 6 355.5 -3.5 c 128,-1,19
 311 -13 311 -13 251 -13 c 0,20,21
 199 -13 199 -13 157 7 c 128,-1,22
 115 27 115 27 86 64 c 128,-1,23
 57 101 57 101 40.5 154 c 128,-1,24
 24 207 24 207 24 273 c 0,25,26
 24 337 24 337 37.5 389.5 c 128,-1,27
 51 442 51 442 76.5 479.5 c 128,-1,28
 102 517 102 517 140 538 c 128,-1,29
 178 559 178 559 225 559 c 0,30,31
 263 559 263 559 290 548.5 c 128,-1,32
 317 538 317 538 331 527 c 1,33,-1
 331 800 l 1,15,-1
589 816 m 1,34,-1
 561 582 l 1,35,-1
 496 582 l 1,36,-1
 496 816 l 1,37,-1
 589 816 l 1,34,-1
EndSplineSet
Substitution2: "'case' Case-Sensitive Forms lookup 18 subtable" Dcaron
EndChar

StartChar: dcroat
Encoding: 273 273 236
Width: 588
VWidth: 1177
Flags: W
LayerCount: 2
Fore
SplineSet
391 645 m 1,0,-1
 183 645 l 1,1,-1
 183 718 l 1,2,-1
 391 718 l 1,3,-1
 391 800 l 1,4,-1
 488 816 l 1,5,-1
 488 718 l 1,6,-1
 565 718 l 1,7,-1
 565 645 l 1,8,-1
 488 645 l 1,9,-1
 488 15 l 1,10,11
 457 6 457 6 410 -3.5 c 128,-1,12
 363 -13 363 -13 299 -13 c 0,13,14
 242 -13 242 -13 196 7 c 128,-1,15
 150 27 150 27 117 64 c 128,-1,16
 84 101 84 101 65.5 154 c 128,-1,17
 47 207 47 207 47 273 c 0,18,19
 47 337 47 337 62.5 389.5 c 128,-1,20
 78 442 78 442 107.5 479.5 c 128,-1,21
 137 517 137 517 178.5 538 c 128,-1,22
 220 559 220 559 272 559 c 0,23,24
 313 559 313 559 344 548.5 c 128,-1,25
 375 538 375 538 391 527 c 1,26,-1
 391 645 l 1,0,-1
391 431 m 1,27,28
 375 446 375 446 346 459.5 c 128,-1,29
 317 473 317 473 284 473 c 0,30,31
 247 473 247 473 221.5 458 c 128,-1,32
 196 443 196 443 179.5 416.5 c 128,-1,33
 163 390 163 390 155 353 c 128,-1,34
 147 316 147 316 147 273 c 0,35,36
 147 178 147 178 189.5 126 c 128,-1,37
 232 74 232 74 299 74 c 0,38,39
 333 74 333 74 356.5 77.5 c 128,-1,40
 380 81 380 81 391 85 c 1,41,-1
 391 431 l 1,27,28
EndSplineSet
Substitution2: "'case' Case-Sensitive Forms lookup 18 subtable" Dcroat
EndChar

StartChar: Eogonek
Encoding: 280 280 243
Width: 588
VWidth: 1177
Flags: W
LayerCount: 2
Fore
SplineSet
542 2 m 1,0,1
 513 -14 513 -14 485 -41 c 0,2,3
 470 -57 470 -57 461.5 -69.5 c 128,-1,4
 453 -82 453 -82 453 -98 c 0,5,6
 453 -129 453 -129 496 -128 c 0,7,8
 503 -128 503 -128 515 -126.5 c 128,-1,9
 527 -125 527 -125 538 -121 c 1,10,-1
 545 -185 l 1,11,12
 519 -197 519 -197 477 -197 c 0,13,14
 417 -197 417 -197 391 -177 c 128,-1,15
 365 -157 365 -157 365 -119 c 0,16,17
 365 -94 365 -94 377.5 -71.5 c 128,-1,18
 390 -49 390 -49 409 -31 c 0,19,20
 418 -22 418 -22 426.5 -13.5 c 128,-1,21
 435 -5 435 -5 441 0 c 1,22,-1
 107 0 l 1,23,-1
 107 729 l 1,24,-1
 516 729 l 1,25,-1
 516 647 l 1,26,-1
 204 647 l 1,27,-1
 204 423 l 1,28,-1
 477 423 l 1,29,-1
 477 340 l 1,30,-1
 204 340 l 1,31,-1
 204 82 l 1,32,-1
 542 82 l 1,33,-1
 542 2 l 1,0,1
EndSplineSet
EndChar

StartChar: eogonek
Encoding: 281 281 244
Width: 588
VWidth: 1177
Flags: W
LayerCount: 2
Fore
SplineSet
305 559 m 0,0,1
 416 559 416 559 476 490.5 c 128,-1,2
 536 422 536 422 536 282 c 2,3,-1
 536 247 l 1,4,-1
 145 247 l 1,5,6
 151 162 151 162 201 118 c 128,-1,7
 251 74 251 74 342 74 c 0,8,9
 394 74 394 74 430 82.5 c 128,-1,10
 466 91 466 91 485 100 c 1,11,-1
 498 18 l 1,12,13
 486 9 486 9 465.5 -6 c 128,-1,14
 445 -21 445 -21 428 -41 c 0,15,16
 413 -57 413 -57 404 -69.5 c 128,-1,17
 395 -82 395 -82 395 -98 c 0,18,19
 395 -129 395 -129 437 -128 c 0,20,21
 444 -128 444 -128 456 -126.5 c 128,-1,22
 468 -125 468 -125 479 -121 c 1,23,-1
 486 -185 l 1,24,25
 460 -197 460 -197 418 -197 c 0,26,27
 358 -197 358 -197 330 -175.5 c 128,-1,28
 302 -154 302 -154 302 -117 c 0,29,30
 302 -92 302 -92 315.5 -70.5 c 128,-1,31
 329 -49 329 -49 347 -31 c 0,32,33
 358 -19 358 -19 369 -11 c 1,34,35
 360 -12 360 -12 350 -12.5 c 128,-1,36
 340 -13 340 -13 331 -13 c 0,37,38
 260 -13 260 -13 206.5 9 c 128,-1,39
 153 31 153 31 117.5 68.5 c 128,-1,40
 82 106 82 106 64.5 158.5 c 128,-1,41
 47 211 47 211 47 272 c 0,42,43
 47 345 47 345 69.5 399 c 128,-1,44
 92 453 92 453 128.5 488.5 c 128,-1,45
 165 524 165 524 211 541.5 c 128,-1,46
 257 559 257 559 305 559 c 0,0,1
437 326 m 1,47,48
 438 393 438 393 401 435 c 128,-1,49
 364 477 364 477 304 477 c 0,50,51
 270 477 270 477 242 464 c 128,-1,52
 214 451 214 451 194 430 c 128,-1,53
 174 409 174 409 162.5 382 c 128,-1,54
 151 355 151 355 147 326 c 1,55,-1
 437 326 l 1,47,48
EndSplineSet
Substitution2: "'case' Case-Sensitive Forms lookup 18 subtable" Eogonek
EndChar

StartChar: hcircumflex
Encoding: 293 293 256
Width: 588
VWidth: 1177
Flags: W
LayerCount: 2
Fore
SplineSet
84 0 m 1,0,-1
 84 788 l 1,1,-1
 181 804 l 1,2,-1
 181 538 l 1,3,4
 205 547 205 547 234.5 552.5 c 128,-1,5
 264 558 264 558 292 558 c 0,6,7
 354 558 354 558 396 540 c 128,-1,8
 438 522 438 522 463 489 c 128,-1,9
 488 456 488 456 498.5 410 c 128,-1,10
 509 364 509 364 509 309 c 2,11,-1
 509 0 l 1,12,-1
 412 0 l 1,13,-1
 412 287 l 2,14,15
 412 388 412 388 384 430 c 128,-1,16
 356 472 356 472 283 472 c 0,17,18
 252 472 252 472 223 465.5 c 128,-1,19
 194 459 194 459 181 453 c 1,20,-1
 181 0 l 1,21,-1
 84 0 l 1,0,-1
181 978 m 1,22,-1
 311 878 l 1,23,-1
 280 830 l 1,24,-1
 181 895 l 1,25,-1
 82 830 l 1,26,-1
 52 878 l 1,27,-1
 181 978 l 1,22,-1
EndSplineSet
Substitution2: "'case' Case-Sensitive Forms lookup 18 subtable" Hcircumflex
EndChar

StartChar: Hbar
Encoding: 294 294 257
Width: 588
VWidth: 1177
Flags: W
LayerCount: 2
Fore
SplineSet
505 551 m 1,0,-1
 505 0 l 1,1,-1
 408 0 l 1,2,-1
 408 339 l 1,3,-1
 181 339 l 1,4,-1
 181 0 l 1,5,-1
 84 0 l 1,6,-1
 84 551 l 1,7,-1
 21 551 l 1,8,-1
 21 623 l 1,9,-1
 84 623 l 1,10,-1
 84 729 l 1,11,-1
 181 729 l 1,12,-1
 181 623 l 1,13,-1
 408 623 l 1,14,-1
 408 729 l 1,15,-1
 505 729 l 1,16,-1
 505 623 l 1,17,-1
 568 623 l 1,18,-1
 568 551 l 1,19,-1
 505 551 l 1,0,-1
408 551 m 1,20,-1
 181 551 l 1,21,-1
 181 422 l 1,22,-1
 408 422 l 1,23,-1
 408 551 l 1,20,-1
EndSplineSet
EndChar

StartChar: hbar
Encoding: 295 295 258
Width: 588
VWidth: 1177
Flags: W
LayerCount: 2
Fore
SplineSet
24 718 m 1,0,-1
 101 718 l 1,1,-1
 101 800 l 1,2,-1
 198 816 l 1,3,-1
 198 718 l 1,4,-1
 389 718 l 1,5,-1
 389 645 l 1,6,-1
 198 645 l 1,7,-1
 198 538 l 1,8,9
 220 547 220 547 249 552.5 c 128,-1,10
 278 558 278 558 304 558 c 0,11,12
 362 558 362 558 401.5 540 c 128,-1,13
 441 522 441 522 464.5 489 c 128,-1,14
 488 456 488 456 498.5 410 c 128,-1,15
 509 364 509 364 509 309 c 2,16,-1
 509 0 l 1,17,-1
 412 0 l 1,18,-1
 412 287 l 2,19,20
 412 388 412 388 385.5 430 c 128,-1,21
 359 472 359 472 294 472 c 0,22,23
 267 472 267 472 238.5 465.5 c 128,-1,24
 210 459 210 459 198 453 c 1,25,-1
 198 0 l 1,26,-1
 101 0 l 1,27,-1
 101 645 l 1,28,-1
 24 645 l 1,29,-1
 24 718 l 1,0,-1
EndSplineSet
Substitution2: "'case' Case-Sensitive Forms lookup 18 subtable" Hbar
EndChar

StartChar: Iogonek
Encoding: 302 302 265
Width: 588
VWidth: 1177
Flags: W
LayerCount: 2
Fore
SplineSet
343 647 m 1,0,-1
 343 82 l 1,1,-1
 484 82 l 1,2,-1
 484 0 l 1,3,-1
 344 0 l 1,4,5
 325 -14 325 -14 298 -41 c 0,6,7
 283 -57 283 -57 273.5 -69.5 c 128,-1,8
 264 -82 264 -82 264 -98 c 0,9,10
 264 -129 264 -129 306 -128 c 0,11,12
 313 -128 313 -128 325 -126.5 c 128,-1,13
 337 -125 337 -125 349 -121 c 1,14,-1
 357 -185 l 1,15,16
 330 -197 330 -197 287 -197 c 0,17,18
 227 -197 227 -197 199.5 -175.5 c 128,-1,19
 172 -154 172 -154 172 -117 c 0,20,21
 172 -92 172 -92 185 -70 c 128,-1,22
 198 -48 198 -48 217 -28 c 0,23,24
 232 -9 232 -9 245 0 c 1,25,-1
 105 0 l 1,26,-1
 105 82 l 1,27,-1
 246 82 l 1,28,-1
 246 647 l 1,29,-1
 105 647 l 1,30,-1
 105 729 l 1,31,-1
 484 729 l 1,32,-1
 484 647 l 1,33,-1
 343 647 l 1,0,-1
EndSplineSet
EndChar

StartChar: iogonek
Encoding: 303 303 266
Width: 588
VWidth: 1177
Flags: W
LayerCount: 2
Fore
SplineSet
221 465 m 1,0,-1
 64 465 l 1,1,-1
 64 547 l 1,2,-1
 318 547 l 1,3,-1
 318 211 l 2,4,5
 318 130 318 130 340.5 102 c 128,-1,6
 363 74 363 74 408 74 c 0,7,8
 442 74 442 74 470.5 82.5 c 128,-1,9
 499 91 499 91 516 100 c 1,10,-1
 530 18 l 1,11,12
 495 -7 495 -7 481.5 -19.5 c 128,-1,13
 468 -32 468 -32 459 -41 c 0,14,15
 444 -57 444 -57 435 -69.5 c 128,-1,16
 426 -82 426 -82 426 -98 c 0,17,18
 426 -129 426 -129 468 -128 c 0,19,20
 475 -128 475 -128 487 -126.5 c 128,-1,21
 499 -125 499 -125 511 -121 c 1,22,-1
 518 -185 l 1,23,24
 492 -197 492 -197 449 -197 c 0,25,26
 389 -197 389 -197 361 -175.5 c 128,-1,27
 333 -154 333 -154 333 -117 c 0,28,29
 333 -92 333 -92 347.5 -70 c 128,-1,30
 362 -48 362 -48 380 -28 c 0,31,32
 385 -24 385 -24 390 -19.5 c 128,-1,33
 395 -15 395 -15 399 -13 c 1,34,35
 347 -13 347 -13 313 1 c 128,-1,36
 279 15 279 15 258.5 43.5 c 128,-1,37
 238 72 238 72 229.5 113.5 c 128,-1,38
 221 155 221 155 221 211 c 2,39,-1
 221 465 l 1,0,-1
246 631 m 0,40,41
 215 631 215 631 193 652.5 c 128,-1,42
 171 674 171 674 171 710 c 256,43,44
 171 747 171 747 193.5 768 c 128,-1,45
 216 789 216 789 246 789 c 0,46,47
 278 789 278 789 300 768 c 128,-1,48
 322 747 322 747 322 710 c 256,49,50
 322 673 322 673 300 652 c 128,-1,51
 278 631 278 631 246 631 c 0,40,41
EndSplineSet
Substitution2: "'case' Case-Sensitive Forms lookup 18 subtable" Iogonek
EndChar

StartChar: dotlessi
Encoding: 305 305 268
Width: 588
VWidth: 1177
Flags: W
LayerCount: 2
Fore
SplineSet
221 465 m 1,0,-1
 64 465 l 1,1,-1
 64 547 l 1,2,-1
 318 547 l 1,3,-1
 318 211 l 2,4,5
 318 130 318 130 340.5 102 c 128,-1,6
 363 74 363 74 408 74 c 0,7,8
 442 74 442 74 470.5 82.5 c 128,-1,9
 499 91 499 91 516 100 c 1,10,-1
 530 18 l 1,11,12
 523 14 523 14 510 9 c 128,-1,13
 497 4 497 4 480 -1 c 128,-1,14
 463 -6 463 -6 442.5 -9.5 c 128,-1,15
 422 -13 422 -13 399 -13 c 0,16,17
 347 -13 347 -13 313 1 c 128,-1,18
 279 15 279 15 258.5 43.5 c 128,-1,19
 238 72 238 72 229.5 113.5 c 128,-1,20
 221 155 221 155 221 211 c 2,21,-1
 221 465 l 1,0,-1
EndSplineSet
EndChar

StartChar: IJ
Encoding: 306 306 270
Width: 588
VWidth: 1177
Flags: W
LayerCount: 2
Fore
SplineSet
146 0 m 1,0,-1
 49 0 l 1,1,-1
 49 729 l 1,2,-1
 146 729 l 1,3,-1
 146 0 l 1,0,-1
555 729 m 1,4,-1
 555 201 l 2,5,6
 555 86 555 86 503.5 35.5 c 128,-1,7
 452 -15 452 -15 364 -15 c 0,8,9
 323 -15 323 -15 281.5 -0.5 c 128,-1,10
 240 14 240 14 208 44 c 1,11,-1
 247 122 l 1,12,13
 267 100 267 100 295 84 c 128,-1,14
 323 68 323 68 363 68 c 0,15,16
 409 68 409 68 433 98 c 128,-1,17
 457 128 457 128 457 203 c 2,18,-1
 457 729 l 1,19,-1
 555 729 l 1,4,-1
EndSplineSet
EndChar

StartChar: ij
Encoding: 307 307 271
Width: 588
VWidth: 1177
Flags: W
LayerCount: 2
Fore
SplineSet
127 0 m 1,0,-1
 127 547 l 1,1,-1
 224 547 l 1,2,-1
 224 0 l 1,3,-1
 127 0 l 1,0,-1
276 -197 m 0,4,5
 263 -197 263 -197 243 -194 c 128,-1,6
 223 -191 223 -191 210 -185 c 1,7,-1
 221 -105 l 1,8,9
 232 -109 232 -109 245.5 -111 c 128,-1,10
 259 -113 259 -113 271 -113 c 0,11,12
 323 -113 323 -113 344.5 -82 c 128,-1,13
 366 -51 366 -51 366 9 c 2,14,-1
 366 547 l 1,15,-1
 463 547 l 1,16,-1
 463 11 l 2,17,18
 463 -95 463 -95 415.5 -146 c 128,-1,19
 368 -197 368 -197 276 -197 c 0,4,5
415 638 m 256,20,21
 386 638 386 638 365 657.5 c 128,-1,22
 344 677 344 677 344 710 c 0,23,24
 344 742 344 742 364.5 761.5 c 128,-1,25
 385 781 385 781 415 781 c 256,26,27
 444 781 444 781 464.5 761.5 c 128,-1,28
 485 742 485 742 485 710 c 0,29,30
 485 677 485 677 464.5 657.5 c 128,-1,31
 444 638 444 638 415 638 c 256,20,21
176 638 m 256,32,33
 147 638 147 638 126 657.5 c 128,-1,34
 105 677 105 677 105 710 c 0,35,36
 105 742 105 742 125.5 761.5 c 128,-1,37
 146 781 146 781 176 781 c 256,38,39
 205 781 205 781 225.5 761.5 c 128,-1,40
 246 742 246 742 246 710 c 0,41,42
 246 677 246 677 225.5 657.5 c 128,-1,43
 205 638 205 638 176 638 c 256,32,33
EndSplineSet
Substitution2: "'case' Case-Sensitive Forms lookup 18 subtable" IJ
EndChar

StartChar: kgreenlandic.case
Encoding: 65538 -1 276
Width: 588
VWidth: 1177
Flags: W
LayerCount: 2
Fore
SplineSet
461 547 m 1,0,1
 461 560 461 560 461 570.5 c 128,-1,2
 461 581 461 581 462 591 c 0,3,4
 466 645 466 645 485.5 699 c 128,-1,5
 505 753 505 753 535 800 c 1,6,-1
 610 775 l 1,7,8
 588 728 588 728 576.5 681.5 c 128,-1,9
 565 635 565 635 565 594 c 0,10,11
 565 583 565 583 566 571 c 128,-1,12
 567 559 567 559 568 547 c 1,13,-1
 461 547 l 1,0,1
458 729 m 1,14,15
 413 638 413 638 366 558.5 c 128,-1,16
 319 479 319 479 259 389 c 1,17,18
 296 354 296 354 326.5 312.5 c 128,-1,19
 357 271 357 271 383.5 223.5 c 128,-1,20
 410 176 410 176 434.5 120.5 c 128,-1,21
 459 65 459 65 484 0 c 1,22,-1
 375 0 l 1,23,24
 335 110 335 110 283.5 203 c 128,-1,25
 232 296 232 296 172 349 c 1,26,-1
 172 0 l 1,27,-1
 75 0 l 1,28,-1
 75 729 l 1,29,-1
 172 729 l 1,30,-1
 172 404 l 1,31,32
 221 483 221 483 266.5 569 c 128,-1,33
 312 655 312 655 347 729 c 1,34,-1
 458 729 l 1,14,15
EndSplineSet
EndChar

StartChar: kgreenlandic
Encoding: 312 312 277
Width: 588
VWidth: 1177
Flags: W
LayerCount: 2
Fore
SplineSet
280 300 m 1,0,1
 312 276 312 276 352 240.5 c 128,-1,2
 392 205 392 205 431.5 163.5 c 128,-1,3
 471 122 471 122 506.5 79.5 c 128,-1,4
 542 37 542 37 563 0 c 1,5,-1
 448 0 l 1,6,7
 426 37 426 37 392.5 75 c 128,-1,8
 359 113 359 113 322 148.5 c 128,-1,9
 285 184 285 184 248 213.5 c 128,-1,10
 211 243 211 243 181 263 c 1,11,-1
 181 0 l 1,12,-1
 84 0 l 1,13,-1
 84 547 l 1,14,-1
 181 547 l 1,15,-1
 181 318 l 1,16,17
 246 375 246 375 311 430.5 c 128,-1,18
 376 486 376 486 428 547 c 1,19,-1
 542 547 l 1,20,21
 491 487 491 487 419.5 423 c 128,-1,22
 348 359 348 359 280 300 c 1,0,1
EndSplineSet
Substitution2: "'case' Case-Sensitive Forms lookup 18 subtable" kgreenlandic.case
EndChar

StartChar: lacute
Encoding: 314 314 279
Width: 588
VWidth: 1177
Flags: W
LayerCount: 2
Fore
SplineSet
398 -13 m 0,0,1
 346 -13 346 -13 312 1 c 128,-1,2
 278 15 278 15 258 43.5 c 128,-1,3
 238 72 238 72 229.5 113.5 c 128,-1,4
 221 155 221 155 221 211 c 2,5,-1
 221 716 l 1,6,-1
 64 716 l 1,7,-1
 64 799 l 1,8,-1
 318 799 l 1,9,-1
 318 211 l 2,10,11
 318 170 318 170 323.5 144 c 128,-1,12
 329 118 329 118 340 102 c 128,-1,13
 351 86 351 86 367.5 80 c 128,-1,14
 384 74 384 74 406 74 c 0,15,16
 440 74 440 74 469.5 82.5 c 128,-1,17
 499 91 499 91 516 100 c 1,18,-1
 530 18 l 1,19,20
 523 14 523 14 510 9 c 128,-1,21
 497 4 497 4 479.5 -1 c 128,-1,22
 462 -6 462 -6 441 -9.5 c 128,-1,23
 420 -13 420 -13 398 -13 c 0,0,1
383 901 m 1,24,-1
 206 837 l 1,25,-1
 184 895 l 1,26,-1
 353 978 l 1,27,-1
 383 901 l 1,24,-1
EndSplineSet
Substitution2: "'case' Case-Sensitive Forms lookup 18 subtable" Lacute
EndChar

StartChar: Lslash
Encoding: 321 321 286
Width: 588
VWidth: 1177
Flags: W
LayerCount: 2
Fore
SplineSet
542 82 m 1,0,-1
 542 0 l 1,1,-1
 133 0 l 1,2,-1
 133 302 l 1,3,-1
 55 261 l 1,4,-1
 21 331 l 1,5,-1
 133 389 l 1,6,-1
 133 729 l 1,7,-1
 231 729 l 1,8,-1
 231 439 l 1,9,-1
 357 504 l 1,10,-1
 390 435 l 1,11,-1
 231 352 l 1,12,-1
 231 82 l 1,13,-1
 542 82 l 1,0,-1
EndSplineSet
EndChar

StartChar: lslash
Encoding: 322 322 287
Width: 588
VWidth: 1177
Flags: W
LayerCount: 2
Fore
SplineSet
398 -13 m 0,0,1
 346 -13 346 -13 312 1 c 128,-1,2
 278 15 278 15 258 43.5 c 128,-1,3
 238 72 238 72 229.5 113.5 c 128,-1,4
 221 155 221 155 221 211 c 2,5,-1
 221 359 l 1,6,-1
 144 319 l 1,7,-1
 111 384 l 1,8,-1
 221 441 l 1,9,-1
 221 728 l 1,10,-1
 64 728 l 1,11,-1
 64 810 l 1,12,-1
 318 810 l 1,13,-1
 318 491 l 1,14,-1
 410 538 l 1,15,-1
 443 473 l 1,16,-1
 318 409 l 1,17,-1
 318 211 l 2,18,19
 318 170 318 170 323.5 144 c 128,-1,20
 329 118 329 118 340 102 c 128,-1,21
 351 86 351 86 367.5 80 c 128,-1,22
 384 74 384 74 406 74 c 0,23,24
 440 74 440 74 469.5 82.5 c 128,-1,25
 499 91 499 91 516 100 c 1,26,-1
 530 18 l 1,27,28
 523 14 523 14 510 9 c 128,-1,29
 497 4 497 4 479.5 -1 c 128,-1,30
 462 -6 462 -6 441 -9.5 c 128,-1,31
 420 -13 420 -13 398 -13 c 0,0,1
EndSplineSet
Substitution2: "'case' Case-Sensitive Forms lookup 18 subtable" Lslash
EndChar

StartChar: napostrophe.case
Encoding: 65539 -1 294
Width: 588
VWidth: 1177
Flags: W
LayerCount: 2
Fore
SplineSet
436 0 m 1,0,1
 410 113 410 113 378.5 237.5 c 128,-1,2
 347 362 347 362 314 496 c 1,3,-1
 314 0 l 1,4,-1
 232 0 l 1,5,-1
 232 729 l 1,6,-1
 320 729 l 1,7,8
 336 670 336 670 353.5 609.5 c 128,-1,9
 371 549 371 549 387 489 c 128,-1,10
 403 429 403 429 417 371.5 c 128,-1,11
 431 314 431 314 442 263 c 1,12,-1
 442 729 l 1,13,-1
 524 729 l 1,14,-1
 524 0 l 1,15,-1
 436 0 l 1,0,1
166 816 m 1,16,-1
 166 806 l 2,17,18
 166 746 166 746 149.5 697.5 c 128,-1,19
 133 649 133 649 100 595 c 1,20,-1
 34 620 l 1,21,22
 54 661 54 661 63 698 c 128,-1,23
 72 735 72 735 72 776 c 0,24,25
 72 787 72 787 71.5 798.5 c 128,-1,26
 71 810 71 810 69 816 c 1,27,-1
 166 816 l 1,16,-1
EndSplineSet
EndChar

StartChar: Eng
Encoding: 330 330 296
Width: 588
VWidth: 1177
Flags: W
LayerCount: 2
Fore
SplineSet
436 25 m 1,0,1
 412 77 412 77 379.5 144.5 c 128,-1,2
 347 212 347 212 309.5 286 c 128,-1,3
 272 360 272 360 231.5 436 c 128,-1,4
 191 512 191 512 153 582 c 1,5,-1
 153 0 l 1,6,-1
 65 0 l 1,7,-1
 65 729 l 1,8,-1
 164 729 l 1,9,10
 197 671 197 671 234.5 601.5 c 128,-1,11
 272 532 272 532 309 461 c 128,-1,12
 346 390 346 390 379 322 c 128,-1,13
 412 254 412 254 436 199 c 1,14,-1
 436 729 l 1,15,-1
 524 729 l 1,16,-1
 524 0 l 2,17,18
 524 -44 524 -44 519.5 -80.5 c 128,-1,19
 515 -117 515 -117 500 -142.5 c 128,-1,20
 485 -168 485 -168 456.5 -182.5 c 128,-1,21
 428 -197 428 -197 380 -197 c 0,22,23
 365 -197 365 -197 346 -194 c 128,-1,24
 327 -191 327 -191 316 -188 c 1,25,-1
 325 -112 l 1,26,27
 334 -114 334 -114 348 -115.5 c 128,-1,28
 362 -117 362 -117 370 -117 c 0,29,30
 409 -117 409 -117 422.5 -91.5 c 128,-1,31
 436 -66 436 -66 436 -18 c 2,32,-1
 436 25 l 1,0,1
EndSplineSet
EndChar

StartChar: eng
Encoding: 331 331 297
Width: 588
VWidth: 1177
Flags: W
LayerCount: 2
Fore
SplineSet
84 531 m 1,0,1
 137 544 137 544 189 551 c 128,-1,2
 241 558 241 558 287 558 c 0,3,4
 397 558 397 558 453 501.5 c 128,-1,5
 509 445 509 445 509 320 c 2,6,-1
 509 0 l 2,7,8
 509 -48 509 -48 502.5 -85 c 128,-1,9
 496 -122 496 -122 478.5 -147 c 128,-1,10
 461 -172 461 -172 430.5 -184.5 c 128,-1,11
 400 -197 400 -197 353 -197 c 0,12,13
 338 -197 338 -197 319 -194 c 128,-1,14
 300 -191 300 -191 289 -188 c 1,15,-1
 298 -112 l 1,16,17
 307 -114 307 -114 320 -115.5 c 128,-1,18
 333 -117 333 -117 343 -117 c 0,19,20
 382 -117 382 -117 397 -91.5 c 128,-1,21
 412 -66 412 -66 412 -18 c 2,22,-1
 412 303 l 2,23,24
 412 356 412 356 402.5 389 c 128,-1,25
 393 422 393 422 376 440 c 128,-1,26
 359 458 359 458 335 465 c 128,-1,27
 311 472 311 472 283 472 c 0,28,29
 259 472 259 472 232.5 469 c 128,-1,30
 206 466 206 466 181 462 c 1,31,-1
 181 0 l 1,32,-1
 84 0 l 1,33,-1
 84 531 l 1,0,1
EndSplineSet
Substitution2: "'case' Case-Sensitive Forms lookup 18 subtable" Eng
EndChar

StartChar: Scedilla
Encoding: 350 350 314
Width: 588
VWidth: 1177
Flags: W
LayerCount: 2
Fore
SplineSet
310 -39 m 1,0,1
 341 -53 341 -53 354 -70.5 c 128,-1,2
 367 -88 367 -88 367 -122 c 0,3,4
 367 -134 367 -134 362 -147.5 c 128,-1,5
 357 -161 357 -161 344.5 -172.5 c 128,-1,6
 332 -184 332 -184 311.5 -191.5 c 128,-1,7
 291 -199 291 -199 260 -199 c 0,8,9
 233 -199 233 -199 209.5 -195 c 128,-1,10
 186 -191 186 -191 173 -185 c 1,11,-1
 185 -125 l 1,12,13
 198 -130 198 -130 212 -132.5 c 128,-1,14
 226 -135 226 -135 244 -135 c 0,15,16
 282 -135 282 -135 282 -112 c 256,17,18
 282 -88 282 -88 238 -75 c 2,19,-1
 230 -73 l 1,20,21
 235 -61 235 -61 241 -45 c 128,-1,22
 247 -29 247 -29 254 -15 c 1,23,24
 183 -11 183 -11 134 5.5 c 128,-1,25
 85 22 85 22 65 35 c 1,26,-1
 94 115 l 1,27,28
 118 102 118 102 164 85 c 128,-1,29
 210 68 210 68 276 68 c 0,30,31
 350 68 350 68 389 96.5 c 128,-1,32
 428 125 428 125 428 181 c 0,33,34
 428 215 428 215 413.5 239.5 c 128,-1,35
 399 264 399 264 375.5 282 c 128,-1,36
 352 300 352 300 322.5 313.5 c 128,-1,37
 293 327 293 327 263 339 c 0,38,39
 228 353 228 353 195.5 371 c 128,-1,40
 163 389 163 389 137.5 412.5 c 128,-1,41
 112 436 112 436 97 467.5 c 128,-1,42
 82 499 82 499 82 543 c 0,43,44
 82 638 82 638 142.5 692 c 128,-1,45
 203 746 203 746 310 746 c 0,46,47
 339 746 339 746 368 741.5 c 128,-1,48
 397 737 397 737 421.5 731.5 c 128,-1,49
 446 726 446 726 465.5 717.5 c 128,-1,50
 485 709 485 709 497 701 c 1,51,-1
 466 620 l 1,52,53
 442 634 442 634 401 648 c 128,-1,54
 360 662 360 662 310 662 c 0,55,56
 257 662 257 662 218 635.5 c 128,-1,57
 179 609 179 609 179 556 c 0,58,59
 179 525 179 525 190 504 c 128,-1,60
 201 483 201 483 220.5 467 c 128,-1,61
 240 451 240 451 266 438 c 128,-1,62
 292 425 292 425 323 412 c 0,63,64
 368 393 368 393 405 374.5 c 128,-1,65
 442 356 442 356 468.5 330 c 128,-1,66
 495 304 495 304 509.5 268.5 c 128,-1,67
 524 233 524 233 524 183 c 0,68,69
 524 98 524 98 472 47 c 128,-1,70
 420 -4 420 -4 323 -13 c 1,71,-1
 310 -39 l 1,0,1
EndSplineSet
EndChar

StartChar: scedilla
Encoding: 351 351 315
Width: 588
VWidth: 1177
Flags: W
LayerCount: 2
Fore
SplineSet
310 -39 m 1,0,1
 341 -53 341 -53 354 -70.5 c 128,-1,2
 367 -88 367 -88 367 -122 c 0,3,4
 367 -134 367 -134 362 -147.5 c 128,-1,5
 357 -161 357 -161 344.5 -172.5 c 128,-1,6
 332 -184 332 -184 311.5 -191.5 c 128,-1,7
 291 -199 291 -199 260 -199 c 0,8,9
 233 -199 233 -199 209.5 -195 c 128,-1,10
 186 -191 186 -191 173 -185 c 1,11,-1
 185 -125 l 1,12,13
 198 -130 198 -130 212 -132.5 c 128,-1,14
 226 -135 226 -135 244 -135 c 0,15,16
 282 -135 282 -135 282 -112 c 256,17,18
 282 -88 282 -88 238 -75 c 2,19,-1
 230 -73 l 1,20,21
 235 -60 235 -60 242 -44 c 128,-1,22
 249 -28 249 -28 256 -13 c 1,23,24
 155 -9 155 -9 78 25 c 1,25,-1
 97 113 l 1,26,27
 138 94 138 94 183.5 81.5 c 128,-1,28
 229 69 229 69 280 69 c 0,29,30
 413 69 413 69 413 137 c 0,31,32
 413 166 413 166 389 185 c 128,-1,33
 365 204 365 204 329 218 c 128,-1,34
 293 232 293 232 250.5 245.5 c 128,-1,35
 208 259 208 259 172.5 279 c 128,-1,36
 137 299 137 299 112.5 328.5 c 128,-1,37
 88 358 88 358 88 405 c 0,38,39
 88 471 88 471 142 515 c 128,-1,40
 196 559 196 559 310 559 c 0,41,42
 355 559 355 559 402.5 553 c 128,-1,43
 450 547 450 547 484 536 c 1,44,-1
 466 449 l 1,45,46
 457 454 457 454 440.5 459 c 128,-1,47
 424 464 424 464 403 468 c 128,-1,48
 382 472 382 472 357.5 474.5 c 128,-1,49
 333 477 333 477 311 477 c 0,50,51
 184 477 184 477 184 408 c 0,52,53
 184 383 184 383 208 366 c 128,-1,54
 232 349 232 349 268.5 334.5 c 128,-1,55
 305 320 305 320 347.5 305.5 c 128,-1,56
 390 291 390 291 426.5 270 c 128,-1,57
 463 249 463 249 487 218.5 c 128,-1,58
 511 188 511 188 511 143 c 0,59,60
 511 76 511 76 465.5 37 c 128,-1,61
 420 -2 420 -2 324 -11 c 1,62,-1
 310 -39 l 1,0,1
EndSplineSet
Substitution2: "'case' Case-Sensitive Forms lookup 18 subtable" Scedilla
EndChar

StartChar: uni0162
Encoding: 354 354 316
Width: 588
VWidth: 1177
Flags: W
LayerCount: 2
Fore
SplineSet
310 -39 m 1,0,1
 341 -53 341 -53 354 -70.5 c 128,-1,2
 367 -88 367 -88 367 -122 c 0,3,4
 367 -134 367 -134 362 -147.5 c 128,-1,5
 357 -161 357 -161 344.5 -172.5 c 128,-1,6
 332 -184 332 -184 311.5 -191.5 c 128,-1,7
 291 -199 291 -199 260 -199 c 0,8,9
 233 -199 233 -199 209.5 -195 c 128,-1,10
 186 -191 186 -191 173 -185 c 1,11,-1
 185 -125 l 1,12,13
 198 -130 198 -130 212 -132.5 c 128,-1,14
 226 -135 226 -135 244 -135 c 0,15,16
 282 -135 282 -135 282 -112 c 256,17,18
 282 -88 282 -88 238 -75 c 2,19,-1
 230 -73 l 1,20,21
 236 -58 236 -58 244.5 -37 c 128,-1,22
 253 -16 253 -16 261 0 c 1,23,-1
 246 0 l 1,24,-1
 246 647 l 1,25,-1
 46 647 l 1,26,-1
 46 729 l 1,27,-1
 543 729 l 1,28,-1
 543 647 l 1,29,-1
 343 647 l 1,30,-1
 343 0 l 1,31,-1
 330 0 l 1,32,-1
 310 -39 l 1,0,1
EndSplineSet
EndChar

StartChar: uni0163
Encoding: 355 355 317
Width: 588
VWidth: 1177
Flags: W
LayerCount: 2
Fore
SplineSet
384 -39 m 1,0,1
 415 -53 415 -53 428.5 -70.5 c 128,-1,2
 442 -88 442 -88 442 -122 c 0,3,4
 442 -134 442 -134 436.5 -147.5 c 128,-1,5
 431 -161 431 -161 418.5 -172.5 c 128,-1,6
 406 -184 406 -184 385.5 -191.5 c 128,-1,7
 365 -199 365 -199 335 -199 c 0,8,9
 308 -199 308 -199 284 -195 c 128,-1,10
 260 -191 260 -191 247 -185 c 1,11,-1
 259 -125 l 1,12,13
 272 -130 272 -130 286 -132.5 c 128,-1,14
 300 -135 300 -135 318 -135 c 0,15,16
 356 -135 356 -135 356 -112 c 256,17,18
 356 -88 356 -88 312 -75 c 2,19,-1
 304 -73 l 1,20,21
 309 -60 309 -60 316.5 -42.5 c 128,-1,22
 324 -25 324 -25 332 -9 c 1,23,24
 288 -3 288 -3 260.5 14 c 128,-1,25
 233 31 233 31 217 58.5 c 128,-1,26
 201 86 201 86 195.5 124.5 c 128,-1,27
 190 163 190 163 190 211 c 2,28,-1
 190 465 l 1,29,-1
 74 465 l 1,30,-1
 74 547 l 1,31,-1
 190 547 l 1,32,-1
 190 700 l 1,33,-1
 286 716 l 1,34,-1
 286 547 l 1,35,-1
 517 547 l 1,36,-1
 517 465 l 1,37,-1
 286 465 l 1,38,-1
 286 211 l 2,39,40
 286 170 286 170 292 144 c 128,-1,41
 298 118 298 118 311.5 102 c 128,-1,42
 325 86 325 86 346 80 c 128,-1,43
 367 74 367 74 398 74 c 0,44,45
 440 74 440 74 466 81 c 128,-1,46
 492 88 492 88 516 100 c 1,47,-1
 530 18 l 1,48,49
 515 11 515 11 480.5 0 c 128,-1,50
 446 -11 446 -11 397 -13 c 1,51,-1
 384 -39 l 1,0,1
EndSplineSet
Substitution2: "'case' Case-Sensitive Forms lookup 18 subtable" uni0162
EndChar

StartChar: Tbar
Encoding: 358 358 320
Width: 588
VWidth: 1177
Flags: W
LayerCount: 2
Fore
SplineSet
543 729 m 1,0,-1
 543 647 l 1,1,-1
 343 647 l 1,2,-1
 343 411 l 1,3,-1
 482 411 l 1,4,-1
 482 336 l 1,5,-1
 343 336 l 1,6,-1
 343 0 l 1,7,-1
 246 0 l 1,8,-1
 246 336 l 1,9,-1
 106 336 l 1,10,-1
 106 411 l 1,11,-1
 246 411 l 1,12,-1
 246 647 l 1,13,-1
 46 647 l 1,14,-1
 46 729 l 1,15,-1
 543 729 l 1,0,-1
EndSplineSet
EndChar

StartChar: tbar
Encoding: 359 359 321
Width: 588
VWidth: 1177
Flags: W
LayerCount: 2
Fore
SplineSet
286 547 m 1,0,-1
 517 547 l 1,1,-1
 517 465 l 1,2,-1
 286 465 l 1,3,-1
 286 322 l 1,4,-1
 517 322 l 1,5,-1
 517 249 l 1,6,-1
 286 249 l 1,7,-1
 286 211 l 2,8,9
 286 170 286 170 292 144 c 128,-1,10
 298 118 298 118 311.5 102 c 128,-1,11
 325 86 325 86 346 80 c 128,-1,12
 367 74 367 74 398 74 c 0,13,14
 440 74 440 74 466 81 c 128,-1,15
 492 88 492 88 516 100 c 1,16,-1
 530 18 l 1,17,18
 514 11 514 11 478 -1 c 128,-1,19
 442 -13 442 -13 389 -13 c 0,20,21
 328 -13 328 -13 289 1 c 128,-1,22
 250 15 250 15 228 43.5 c 128,-1,23
 206 72 206 72 198 113.5 c 128,-1,24
 190 155 190 155 190 211 c 2,25,-1
 190 249 l 1,26,-1
 74 249 l 1,27,-1
 74 322 l 1,28,-1
 190 322 l 1,29,-1
 190 465 l 1,30,-1
 74 465 l 1,31,-1
 74 547 l 1,32,-1
 190 547 l 1,33,-1
 190 700 l 1,34,-1
 286 716 l 1,35,-1
 286 547 l 1,0,-1
EndSplineSet
Substitution2: "'case' Case-Sensitive Forms lookup 18 subtable" Tbar
EndChar

StartChar: Uogonek
Encoding: 370 370 332
Width: 588
VWidth: 1177
Flags: W
LayerCount: 2
Fore
SplineSet
283 -28 m 1,0,1
 218 -28 218 -28 175 -7.5 c 128,-1,2
 132 13 132 13 105.5 50 c 128,-1,3
 79 87 79 87 68 138.5 c 128,-1,4
 57 190 57 190 57 251 c 2,5,-1
 57 729 l 1,6,-1
 153 729 l 1,7,-1
 153 261 l 2,8,9
 153 206 153 206 163 169 c 128,-1,10
 173 132 173 132 191.5 109.5 c 128,-1,11
 210 87 210 87 235.5 77.5 c 128,-1,12
 261 68 261 68 294 68 c 256,13,14
 327 68 327 68 353 77.5 c 128,-1,15
 379 87 379 87 397.5 109.5 c 128,-1,16
 416 132 416 132 426 169 c 128,-1,17
 436 206 436 206 436 261 c 2,18,-1
 436 729 l 1,19,-1
 532 729 l 1,20,-1
 532 251 l 2,21,22
 532 170 532 170 510.5 111 c 128,-1,23
 489 52 489 52 438 20 c 0,24,25
 425 12 425 12 402.5 -4.5 c 128,-1,26
 380 -21 380 -21 364 -38 c 256,27,28
 348 -54 348 -54 339 -68 c 128,-1,29
 330 -82 330 -82 330 -98 c 0,30,31
 330 -129 330 -129 372 -128 c 0,32,33
 379 -128 379 -128 391 -126.5 c 128,-1,34
 403 -125 403 -125 416 -121 c 1,35,-1
 423 -185 l 1,36,37
 397 -197 397 -197 353 -197 c 0,38,39
 293 -197 293 -197 265.5 -175.5 c 128,-1,40
 238 -154 238 -154 238 -117 c 0,41,42
 238 -92 238 -92 246.5 -74 c 128,-1,43
 255 -56 255 -56 283 -28 c 1,0,1
EndSplineSet
EndChar

StartChar: uogonek
Encoding: 371 371 333
Width: 588
VWidth: 1177
Flags: W
LayerCount: 2
Fore
SplineSet
505 15 m 1,0,1
 498 8 498 8 483 -5 c 128,-1,2
 468 -18 468 -18 452 -33.5 c 128,-1,3
 436 -49 436 -49 424 -66.5 c 128,-1,4
 412 -84 412 -84 412 -98 c 0,5,6
 412 -129 412 -129 455 -128 c 0,7,8
 462 -128 462 -128 473.5 -126.5 c 128,-1,9
 485 -125 485 -125 497 -121 c 1,10,-1
 505 -185 l 1,11,12
 478 -197 478 -197 436 -197 c 0,13,14
 376 -197 376 -197 347.5 -175.5 c 128,-1,15
 319 -154 319 -154 319 -117 c 0,16,17
 319 -92 319 -92 333 -70 c 128,-1,18
 347 -48 347 -48 366 -29 c 0,19,20
 380 -14 380 -14 395 -5 c 1,21,22
 368 -7 368 -7 342.5 -9.5 c 128,-1,23
 317 -12 317 -12 298 -12 c 0,24,25
 236 -12 236 -12 194.5 6.5 c 128,-1,26
 153 25 153 25 127 58.5 c 128,-1,27
 101 92 101 92 90.5 138 c 128,-1,28
 80 184 80 184 80 239 c 2,29,-1
 80 547 l 1,30,-1
 177 547 l 1,31,-1
 177 260 l 2,32,33
 177 159 177 159 207 116.5 c 128,-1,34
 237 74 237 74 307 74 c 0,35,36
 322 74 322 74 338.5 75.5 c 128,-1,37
 355 77 355 77 369 78.5 c 128,-1,38
 383 80 383 80 393.5 82 c 128,-1,39
 404 84 404 84 408 85 c 2,40,-1
 408 547 l 1,41,-1
 505 547 l 1,42,-1
 505 15 l 1,0,1
EndSplineSet
Substitution2: "'case' Case-Sensitive Forms lookup 18 subtable" Uogonek
EndChar

StartChar: longs
Encoding: 383 383 344
Width: 588
VWidth: 1177
Flags: W
LayerCount: 2
Fore
SplineSet
190 0 m 1,0,-1
 190 596 l 2,1,2
 190 660 190 660 207.5 701.5 c 128,-1,3
 225 743 225 743 254 769 c 128,-1,4
 283 795 283 795 321 805.5 c 128,-1,5
 359 816 359 816 402 816 c 256,6,7
 444 816 444 816 487 806.5 c 128,-1,8
 530 797 530 797 568 784 c 1,9,-1
 550 701 l 1,10,11
 524 714 524 714 485 723.5 c 128,-1,12
 446 733 446 733 406 733 c 0,13,14
 381 733 381 733 359.5 726.5 c 128,-1,15
 338 720 338 720 321.5 704 c 128,-1,16
 305 688 305 688 295.5 661.5 c 128,-1,17
 286 635 286 635 286 595 c 2,18,-1
 286 0 l 1,19,-1
 190 0 l 1,0,-1
EndSplineSet
Substitution2: "'case' Case-Sensitive Forms lookup 17 subtable" S
EndChar

StartChar: dotlessj
Encoding: 567 567 349
Width: 588
VWidth: 1177
Flags: W
LayerCount: 2
Fore
SplineSet
134 465 m 1,0,-1
 134 547 l 1,1,-1
 452 547 l 1,2,-1
 452 6 l 2,3,4
 452 -51 452 -51 436 -90.5 c 128,-1,5
 420 -130 420 -130 393.5 -154.5 c 128,-1,6
 367 -179 367 -179 332.5 -189.5 c 128,-1,7
 298 -200 298 -200 259 -200 c 0,8,9
 214 -200 214 -200 169 -190.5 c 128,-1,10
 124 -181 124 -181 84 -161 c 1,11,-1
 113 -79 l 1,12,13
 142 -93 142 -93 178 -103 c 128,-1,14
 214 -113 214 -113 247 -113 c 0,15,16
 294 -113 294 -113 325 -89 c 128,-1,17
 356 -65 356 -65 356 5 c 2,18,-1
 356 465 l 1,19,-1
 134 465 l 1,0,-1
EndSplineSet
Substitution2: "'case' Case-Sensitive Forms lookup 17 subtable" J
EndChar

StartChar: apostrophe
Encoding: 700 700 350
Width: 588
VWidth: 1177
Flags: W
LayerCount: 2
Fore
SplineSet
363 816 m 1,0,1
 363 804 363 804 363 796 c 128,-1,2
 363 788 363 788 362 779 c 0,3,4
 358 725 358 725 340 680.5 c 128,-1,5
 322 636 322 636 297 595 c 1,6,-1
 231 620 l 1,7,8
 251 661 251 661 260 698 c 128,-1,9
 269 735 269 735 269 776 c 0,10,11
 269 787 269 787 268 798.5 c 128,-1,12
 267 810 267 810 266 816 c 1,13,-1
 363 816 l 1,0,1
EndSplineSet
EndChar

StartChar: caron
Encoding: 711 711 351
Width: 588
VWidth: 1177
Flags: W
LayerCount: 2
Fore
SplineSet
152 767 m 1,0,-1
 192 813 l 1,1,-1
 294 721 l 1,2,-1
 397 813 l 1,3,-1
 437 767 l 1,4,-1
 294 616 l 1,5,-1
 152 767 l 1,0,-1
EndSplineSet
EndChar

StartChar: breve
Encoding: 728 728 353
Width: 588
VWidth: 1177
Flags: W
LayerCount: 2
Fore
SplineSet
294 642 m 256,0,1
 265 642 265 642 239 652 c 128,-1,2
 213 662 213 662 193.5 680 c 128,-1,3
 174 698 174 698 163.5 725.5 c 128,-1,4
 153 753 153 753 154 788 c 1,5,-1
 218 788 l 1,6,7
 219 776 219 776 222.5 762.5 c 128,-1,8
 226 749 226 749 235 738 c 128,-1,9
 244 727 244 727 258 720 c 128,-1,10
 272 713 272 713 294 713 c 256,11,12
 316 713 316 713 331 720 c 128,-1,13
 346 727 346 727 354.5 738 c 128,-1,14
 363 749 363 749 366.5 762.5 c 128,-1,15
 370 776 370 776 371 788 c 1,16,-1
 435 788 l 1,17,18
 436 753 436 753 425.5 725.5 c 128,-1,19
 415 698 415 698 395.5 680 c 128,-1,20
 376 662 376 662 349.5 652 c 128,-1,21
 323 642 323 642 294 642 c 256,0,1
EndSplineSet
EndChar

StartChar: dotaccent
Encoding: 729 729 354
Width: 588
VWidth: 1177
Flags: W
LayerCount: 2
Fore
SplineSet
294 638 m 256,0,1
 265 638 265 638 244.5 657.5 c 128,-1,2
 224 677 224 677 224 710 c 0,3,4
 224 742 224 742 244.5 761.5 c 128,-1,5
 265 781 265 781 294 781 c 256,6,7
 323 781 323 781 344 761.5 c 128,-1,8
 365 742 365 742 365 710 c 0,9,10
 365 677 365 677 344 657.5 c 128,-1,11
 323 638 323 638 294 638 c 256,0,1
EndSplineSet
EndChar

StartChar: ring
Encoding: 730 730 355
Width: 588
VWidth: 1177
Flags: W
LayerCount: 2
Fore
SplineSet
403 713 m 0,0,1
 403 662 403 662 370.5 633 c 128,-1,2
 338 604 338 604 294 604 c 256,3,4
 250 604 250 604 218 633 c 128,-1,5
 186 662 186 662 186 713 c 0,6,7
 186 762 186 762 218.5 791 c 128,-1,8
 251 820 251 820 294 820 c 256,9,10
 338 820 338 820 370.5 791 c 128,-1,11
 403 762 403 762 403 713 c 0,0,1
350 713 m 0,12,13
 350 740 350 740 334 755 c 128,-1,14
 318 770 318 770 294 770 c 256,15,16
 270 770 270 770 254.5 755 c 128,-1,17
 239 740 239 740 239 713 c 0,18,19
 239 685 239 685 255 669.5 c 128,-1,20
 271 654 271 654 294 654 c 256,21,22
 318 654 318 654 334 669.5 c 128,-1,23
 350 685 350 685 350 713 c 0,12,13
EndSplineSet
EndChar

StartChar: ogonek
Encoding: 731 731 356
Width: 588
VWidth: 1177
Flags: W
LayerCount: 2
Fore
SplineSet
318 -197 m 0,0,1
 258 -197 258 -197 229.5 -175.5 c 128,-1,2
 201 -154 201 -154 201 -117 c 0,3,4
 201 -92 201 -92 215 -70 c 128,-1,5
 229 -48 229 -48 247 -28 c 0,6,7
 272 -1 272 -1 289 8 c 1,8,-1
 386 8 l 1,9,10
 373 -1 373 -1 358.5 -13 c 128,-1,11
 344 -25 344 -25 329 -41 c 256,12,13
 314 -57 314 -57 304 -69.5 c 128,-1,14
 294 -82 294 -82 294 -98 c 0,15,16
 294 -129 294 -129 337 -128 c 0,17,18
 344 -128 344 -128 355.5 -126.5 c 128,-1,19
 367 -125 367 -125 379 -121 c 1,20,-1
 388 -185 l 1,21,22
 360 -197 360 -197 318 -197 c 0,0,1
EndSplineSet
EndChar

StartChar: hungarumlaut
Encoding: 733 733 357
Width: 588
VWidth: 1177
Flags: W
LayerCount: 2
Fore
SplineSet
298 757 m 1,0,-1
 168 610 l 1,1,-1
 118 648 l 1,2,-1
 239 816 l 1,3,-1
 298 757 l 1,0,-1
471 757 m 1,4,-1
 342 610 l 1,5,-1
 291 648 l 1,6,-1
 412 816 l 1,7,-1
 471 757 l 1,4,-1
EndSplineSet
EndChar

StartChar: fraction
Encoding: 8260 8260 366
Width: 588
VWidth: 1177
Flags: W
LayerCount: 2
Fore
SplineSet
112 0 m 1,0,-1
 29 0 l 1,1,-1
 476 729 l 1,2,-1
 558 729 l 1,3,-1
 112 0 l 1,0,-1
EndSplineSet
EndChar

StartChar: zerosuperior
Encoding: 8304 8304 367
Width: 588
VWidth: 1177
Flags: W
LayerCount: 2
Fore
SplineSet
137 535 m 0,0,1
 137 637 137 637 178.5 691.5 c 128,-1,2
 220 746 220 746 294 746 c 256,3,4
 368 746 368 746 410 691.5 c 128,-1,5
 452 637 452 637 452 535 c 0,6,7
 452 431 452 431 410.5 377 c 128,-1,8
 369 323 369 323 294 323 c 256,9,10
 220 323 220 323 178.5 377 c 128,-1,11
 137 431 137 431 137 535 c 0,0,1
375 535 m 0,12,13
 375 564 375 564 371 591 c 128,-1,14
 367 618 367 618 358 637.5 c 128,-1,15
 349 657 349 657 333.5 669 c 128,-1,16
 318 681 318 681 294 681 c 256,17,18
 270 681 270 681 255 669 c 128,-1,19
 240 657 240 657 230.5 637.5 c 128,-1,20
 221 618 221 618 217 591 c 128,-1,21
 213 564 213 564 213 535 c 0,22,23
 213 504 213 504 217 477.5 c 128,-1,24
 221 451 221 451 230.5 431.5 c 128,-1,25
 240 412 240 412 255.5 400.5 c 128,-1,26
 271 389 271 389 294 389 c 256,27,28
 318 389 318 389 333.5 400.5 c 128,-1,29
 349 412 349 412 358 431.5 c 128,-1,30
 367 451 367 451 371 477.5 c 128,-1,31
 375 504 375 504 375 535 c 0,12,13
339 537 m 0,32,33
 339 519 339 519 326.5 505.5 c 128,-1,34
 314 492 314 492 294 492 c 256,35,36
 274 492 274 492 262.5 505.5 c 128,-1,37
 251 519 251 519 251 537 c 0,38,39
 251 556 251 556 262.5 569.5 c 128,-1,40
 274 583 274 583 294 583 c 256,41,42
 314 583 314 583 326.5 569.5 c 128,-1,43
 339 556 339 556 339 537 c 0,32,33
EndSplineSet
Substitution2: "Single Substitution lookup 22 subtable" zeroinferior
Substitution2: "'sinf' Scientific Inferiors lookup 11 subtable" zero.sinf
Substitution2: "'subs' Subscript lookup 10 subtable" zero.sinf
Substitution2: "'sups' Superscript lookup 9 subtable" zero.sups
Substitution2: "'dnom' Denominators lookup 8 subtable" zeroinferior
EndChar

StartChar: foursuperior
Encoding: 8308 8308 368
Width: 588
VWidth: 1177
Flags: W
LayerCount: 2
Fore
SplineSet
399 737 m 1,0,-1
 399 492 l 1,1,-1
 452 492 l 1,2,-1
 452 430 l 1,3,-1
 399 430 l 1,4,-1
 399 331 l 1,5,-1
 329 331 l 1,6,-1
 329 430 l 1,7,-1
 124 430 l 1,8,-1
 124 478 l 1,9,10
 138 504 138 504 161 538 c 128,-1,11
 184 572 184 572 212 607.5 c 128,-1,12
 240 643 240 643 271 677 c 128,-1,13
 302 711 302 711 332 737 c 1,14,-1
 399 737 l 1,0,-1
329 650 m 1,15,16
 296 616 296 616 261.5 574 c 128,-1,17
 227 532 227 532 203 492 c 1,18,-1
 329 492 l 1,19,-1
 329 650 l 1,15,16
EndSplineSet
Substitution2: "Single Substitution lookup 22 subtable" fourinferior
Substitution2: "'sinf' Scientific Inferiors lookup 11 subtable" four.sinf
Substitution2: "'subs' Subscript lookup 10 subtable" four.sinf
Substitution2: "'sups' Superscript lookup 9 subtable" four.sups
Substitution2: "'dnom' Denominators lookup 8 subtable" fourinferior
EndChar

StartChar: fivesuperior
Encoding: 8309 8309 369
Width: 588
VWidth: 1177
Flags: W
LayerCount: 2
Fore
SplineSet
442 451 m 0,0,1
 442 394 442 394 400 358.5 c 128,-1,2
 358 323 358 323 270 323 c 0,3,4
 236 323 236 323 201.5 330.5 c 128,-1,5
 167 338 167 338 150 347 c 1,6,-1
 165 410 l 1,7,8
 181 404 181 404 207.5 396.5 c 128,-1,9
 234 389 234 389 267 389 c 0,10,11
 324 389 324 389 345 407 c 128,-1,12
 366 425 366 425 366 449 c 0,13,14
 366 467 366 467 357.5 481.5 c 128,-1,15
 349 496 349 496 327 506 c 128,-1,16
 305 516 305 516 269 522 c 128,-1,17
 233 528 233 528 179 528 c 1,18,19
 186 581 186 581 191 634.5 c 128,-1,20
 196 688 196 688 198 737 c 1,21,-1
 425 737 l 1,22,-1
 425 671 l 1,23,-1
 260 671 l 1,24,25
 258 650 258 650 257.5 629 c 128,-1,26
 257 608 257 608 252 585 c 1,27,28
 352 579 352 579 397 545.5 c 128,-1,29
 442 512 442 512 442 451 c 0,0,1
EndSplineSet
Substitution2: "Single Substitution lookup 22 subtable" fiveinferior
Substitution2: "'sinf' Scientific Inferiors lookup 11 subtable" five.sinf
Substitution2: "'subs' Subscript lookup 10 subtable" five.sinf
Substitution2: "'sups' Superscript lookup 9 subtable" five.sups
Substitution2: "'dnom' Denominators lookup 8 subtable" fiveinferior
EndChar

StartChar: sixsuperior
Encoding: 8310 8310 370
Width: 588
VWidth: 1177
Flags: W
LayerCount: 2
Fore
SplineSet
147 496 m 0,0,1
 147 614 147 614 220 675.5 c 128,-1,2
 293 737 293 737 419 740 c 1,3,-1
 426 675 l 1,4,5
 391 674 391 674 359 667.5 c 128,-1,6
 327 661 327 661 301.5 648 c 128,-1,7
 276 635 276 635 257 616.5 c 128,-1,8
 238 598 238 598 231 574 c 1,9,10
 252 583 252 583 271.5 585.5 c 128,-1,11
 291 588 291 588 307 588 c 0,12,13
 347 588 347 588 375.5 577.5 c 128,-1,14
 404 567 404 567 421.5 549 c 128,-1,15
 439 531 439 531 447 507.5 c 128,-1,16
 455 484 455 484 455 458 c 0,17,18
 455 434 455 434 446 411 c 128,-1,19
 437 388 437 388 418.5 367.5 c 128,-1,20
 400 347 400 347 372.5 335 c 128,-1,21
 345 323 345 323 307 323 c 0,22,23
 227 323 227 323 187 369 c 128,-1,24
 147 415 147 415 147 496 c 0,0,1
300 527 m 256,25,26
 259 527 259 527 220 514 c 1,27,28
 218 456 218 456 237 420.5 c 128,-1,29
 256 385 256 385 306 385 c 0,30,31
 326 385 326 385 339.5 392 c 128,-1,32
 353 399 353 399 362 409.5 c 128,-1,33
 371 420 371 420 374.5 433 c 128,-1,34
 378 446 378 446 378 457 c 0,35,36
 378 491 378 491 359.5 509 c 128,-1,37
 341 527 341 527 300 527 c 256,25,26
EndSplineSet
Substitution2: "Single Substitution lookup 22 subtable" sixinferior
Substitution2: "'sinf' Scientific Inferiors lookup 11 subtable" six.sinf
Substitution2: "'subs' Subscript lookup 10 subtable" six.sinf
Substitution2: "'sups' Superscript lookup 9 subtable" six.sups
Substitution2: "'dnom' Denominators lookup 8 subtable" sixinferior
EndChar

